<?xml version="1.0" encoding="UTF-8"?>
<svg xmlns="http://www.w3.org/2000/svg" viewBox="0 0 96 96" fill="none">
  <circle cx="48" cy="48" r="40" fill="#DDE8FF" stroke="#FFFFFF" stroke-width="2"/>
  <defs>
    <clipPath id="clip_group_4_0"><circle cx="48" cy="29.5" r="27.8" /></clipPath>
    <clipPath id="clip_group_4_1"><circle cx="34.8" cy="51.5" r="25.5" /></clipPath>
    <clipPath id="clip_group_4_2"><circle cx="61.2" cy="51.5" r="25.5" /></clipPath>
  </defs>
  <g clip-path="url(#clip_group_4_0)">
    <g transform="translate(18.4,2.4) scale(0.033)">
      <metadata xmlns:rdf="http://www.w3.org/1999/02/22-rdf-syntax-ns#" xmlns:xsi="http://www.w3.org/2001/XMLSchema-instance" xmlns:dc="http://purl.org/dc/elements/1.1/" xmlns:dcterms="http://purl.org/dc/terms/"><rdf:RDF><rdf:Description><dc:title>Notionists</dc:title><dc:creator>Zoish</dc:creator><dc:source xsi:type="dcterms:URI">https://heyzoish.gumroad.com/l/notionists</dc:source><dcterms:license xsi:type="dcterms:URI">https://creativecommons.org/publicdomain/zero/1.0/</dcterms:license><dc:rights>Remix of „Notionists” (https://heyzoish.gumroad.com/l/notionists) by „Zoish”, licensed under „CC0 1.0” (https://creativecommons.org/publicdomain/zero/1.0/)</dc:rights></rdf:Description></rdf:RDF></metadata><mask id="mixed4_0_viewboxMask"><rect width="1744" height="1744" rx="0" ry="0" x="0" y="0" fill="#fff" /></mask><g mask="url(#mixed4_0_viewboxMask)"><g transform="translate(531 487)"><path d="M554 727.7c-99.2 297-363.8 388.6-503.7 19.8-19.3-50.7 31-69.5 66.2-91.9 24.1-15.3 36.8-28.5 35.3-42.2-7-64.4-36.9-243.8-36.9-243.8l-3-5.8s.7-1.6-2.2 1.2c-3 3-9.9 34.2-37 34.2-24.5 0-49.2-10.9-61-86.3C7.2 285.6 9.6 214 40 201c12.5-5.3 24-7.2 35.2-.8 11.3 6.4-13-22 112-126C268.4 6.4 396.7-3.5 448.5 8 500.3 19.5 552 44.8 574.9 98.5c27.8 65-25.9 114.3-14 262.5-2.2 53.6.8 171.2-146.6 210.6-28 7.5-19.3 48.4 22.7 58.4 67 21 117 72.3 117 97.9" fill="#fff"/><path fill-rule="evenodd" clip-rule="evenodd" d="m554 266.2.1-1.4c4.1-36.4 8.2-71.7 27.1-103.4 6.5 4.4 5.7 10 3.7 15.2-19.9 51.2-18 104.4-16.2 157.6l.4 14c2.1 66.4-14.5 126.8-58.7 177.5-15.4 17.6-35.8 29.8-56.5 40.3-21.4 11-25.9 20.1-19.2 43.6l.8 2.6c1.4 3.9 2.8 7.9-1 11.8-4.5 4.6-9.5 3.3-14.8 1.8l-.6-.1a406.4 406.4 0 0 1-137-68.3c-6-4.4-10.8-10.3-15.5-16.1l-.3-.4c-2.5-3-3-7.8.5-10.4 3.3-2.5 5.8-.5 8.7 1.8l1 .9a145.5 145.5 0 0 0 76.3 31.7c13.4 1.4 26.6.9 40 .4 7.4-.3 14.8-.6 22.3-.5 10.2 0 18.7-4.7 26.7-9.2l2.8-1.6c27.8-15.5 54.3-32.8 72.2-60.7 16.1-25 25.9-52.2 31.6-80.9 7.2-36.1 6.6-72.7 6-109.8-.3-12-.5-24.2-.5-36.4ZM50.6 190.8c21.9-1.7 34 11.2 44.3 26.3a140.4 140.4 0 0 1 22.4 61.5c.5 3.7 1 7.6-1.2 11.3-4.5.6-4.9-3-5-5.6-.5-20.7-9.7-38.7-18.9-56.1-6.6-12.5-16.2-24.6-31.4-27.6-17.2-3.5-33 12-40.8 32.2-14.5 37.6-12 74.6 1.4 111 5.8 15.9 13.1 32.1 27.8 43.2 14.8 11.3 32.7 9.3 43.6-5.7l2-2.5c2-2.6 4-5.1 5-8 2.1-5.8 5.4-11.2 11.3-10.4 6.8 1 8 8.3 8.7 14a3661 3661 0 0 0 22 156.7l5.9 38.8c2.6 17.1 5.6 41.7 3.6 52.1a28 28 0 0 0-.3 2.2c-.4 2.8-.6 5-4.2 5.5-4.9.8-7-2-7.7-6.4-2.3-17-3-23.6-4-49.6-.9-25.2-5.6-50-10.4-74.9l-5-27c-5.2-30.8-10.3-62-10.8-97l-2 3c-7.6 11.3-13.7 20.5-24.5 24a40.5 40.5 0 0 1-46.1-12.5 127.8 127.8 0 0 1-28.8-55.8c-8.4-34-9.9-67.1.9-100.6 5.2-16.1 23.7-44.7 42.2-42Zm34.6 127.5c4.4 3.2 8.4 6 12-5.4-1.1-42.2-14.7-69.2-35.8-70.3 11.2 14.6 22 28.8 23 48.5a32.3 32.3 0 0 1-10.7-8.8c-2-2.2-4-4.4-6.5-6l-3-2.4c-4.8-3.6-9.7-7.4-17.8-4.5 3.8 5.8 9 10 14.3 14 6 4.7 12 9.3 15.6 16.5-10.6 7.7-15.2 17.7-9.7 29.9 4.8 10.5 11.9 19.2 25.9 19.8-.6-6.3-4.7-10.9-8.8-15.4-5-5.4-9.7-10.6-7.5-18.6 3.2-1.5 6.2.7 9 2.7Z" fill="#000"/></g><g transform="translate(178 1057)"><path d="M1308 692 16 688.7S53.7 481.5 111.3 360C237.7 93.7 491.2 44.3 513.3 56.7c32 18 62.4 40.7 152 40.7 91.4 0 149.3-39.5 149.3-39.5s135.8 32.3 201.4 69.5c83.4 47.4 177.7 187 221 295.9 46.2 115.6 71 268.7 71 268.7Z" fill="#fff"/><g fill="#000"><path d="M728.6 692c-4.3-25.7 12-38.5 31-49.3 10.9-6.2 27.6-3.2 39 6 7.7 6 8.4 15.2 11.3 23.4 1.7 4.7 2.4 9.8 3.6 14.7 6.4 3 13.7-.6 20.2 4.4a455 455 0 0 1-49.2-.2c-1.3-7.2-2.2-13.2-8.8-15.6-6.1-2.1-10.4 2.2-14.3 6-2.9 2.7-3.1 6.7-3.3 10.6-3.2 0-6.3-.3-9.4-1-2-12.7 5.2-19 14.4-23 18.2-8 26.4 4.7 33.5 21.6 2.8-18.8-2.6-35.2-11.6-36.7-12.8-2-25.8-3.2-36.6 8a54.2 54.2 0 0 0-13.1 31h-6.7ZM1182.7 692c4.9-29.4 27.1-45.5 56.5-41.7 14.7 2 26.7 19.7 26.5 40.6a25 25 0 0 1-11.8.3c-3.2-25.6-11.3-32.4-33.8-28.7-14 2.3-26.6 16.8-25.8 29.5h-11.6ZM477.6 692a53 53 0 0 1 24.2-34.7c27.4-16.8 50-8.6 59 22.3 1 3.6 2.5 7.1 4.1 11.6-5.2.8-10.6.8-15.9 0 .6-15.7-5.5-27.3-16.1-28.7-19.8-2.7-39.5 5.7-43.6 29.5h-11.7ZM107.4 692c-4.3-17.2-27.2-35.2-45.3-35-17.4.4-30.5 13-34.2 34-2.1 1-4 1-6.9 1 .4-23 9.3-37.2 25.2-41.8 24.3-7 46.6.9 62 22 5.5 7.3 8.1 17.8 20.4 19-6.3.8-13.2.8-21.2.8Z"/><path d="M498 692c12.7-17.4 23.2-21.3 35.8-15.2 6.1 3 7.4 8.8 11 14.3-15 .9-30.3.9-46.8.9ZM1203.1 692c15.3-23.6 31.4-24 46.6-.8-14.9.8-30.1.8-46.6.8ZM38.8 692c4.6-15.7 17.4-19.8 32-20.2 12.6-.2 21.4 5.9 25.4 19.2-2 1-3.9 1-7.3.3-17.6-15-32.3-14.6-41 .7h-9ZM671.6 478.7c35.7 22.3 35.5 53.2 33.8 86.4-.1 3.3-1.5 5.9-5 6.3-3.4.3-5.7-1.6-7.1-4.4-2-4-1.5-8.2-.7-12.5 3.5-17.5 0-33.8-8.5-49.2-7.2-12.6-32.2-22.1-50.7-19.2a55.6 55.6 0 0 0-47 52c-.2 3.5 1.3 8.9-4.4 8.8-5.3 0-4.6-5.1-4.8-8.8a62.8 62.8 0 0 1 56.2-64.3c12.7-1 25.3-.4 38.2 4.9ZM906.3 348.4c-14.8-23-35.3-30-60.6-26.3-20.7 3-37.3 24-38.9 50-.4 7.6.4 15.3 2.2 22.7 1.5 6.1-.6 12-6.9 13-6.8 1.2-7.9-5.4-8.4-10.3-2.6-26 2.6-50.8 19.2-70.7 14-16.8 35-18.9 55.8-16.3 31 3.7 52 26 54.5 59.7.3 4.6.8 9.5-5.8 11.7-7-9.8-1.8-23.7-11-33.5ZM365.6 380.4c-17.1 16-20 36.2-17.7 57.4-8.2.6-8.9-4.2-9.7-8.1a66 66 0 0 1 28.6-64.9c24.2-14.5 57.4-14 75.7 3.4a90.8 90.8 0 0 1 27.2 66.4c0 3.9-.2 8.2-5.5 8.2-5 0-7.7-3.5-8.4-8.1-1.2-8-2-16-3.1-24.1-6-46-57.7-54.8-87.1-30.2ZM1172.3 432.6c-.2 5.5-.2 10.3-6.5 9.5-6.5-.9-7.5-6.2-7.7-11.5-.4-15-2.8-29.4-10.3-42.7a37.5 37.5 0 0 0-25.5-19.2c-43.7-8.9-73 19.5-72.1 58.6 0 3.7 1.4 7.7-2.6 11.3-6.9-1.2-7.5-7.4-7.5-12.3-.6-48.8 35.7-77.3 80.7-70 25.6 4.2 37.8 22.6 45.5 44.3 3.4 9.6 7.7 20 6 32ZM561.1 270.8c20.9-18.4 42-14.7 62.6-2.3a49.1 49.1 0 0 1 26 47.5c-.3 5.4-.4 11.1-6 14.5-6.3-2.3-4.6-7-4-11.6 3.4-28.6-30.3-58.8-57.3-50-13.2 4.5-20.7 17-23.5 31-1.8 8.7-2.1 17.7-3.1 26.6-.5 4.1 0 9.9-5.8 9.6-6-.3-8-5.3-7.4-11.2 1.8-19.2 5.5-37.8 18.5-54.1ZM204.3 530c4.2 10 7 20.7 8 31.6.5 5 1 9.3-6 11.1-3.1-11-6-21.5-9.3-31.8-4.2-12.7-21.6-24.6-34.3-24-17.3.6-25.9 11.2-25.4 30.8.2 10.4 5.2 20.7.5 31.7-6 .4-11.2-1.4-11.8-7.1-1.2-11.8-4.3-23.4-1.6-35.4 7-30.7 36-41.9 64.9-21.8a49.7 49.7 0 0 1 15 15ZM895.9 217.6c-.6 5-1.3 9.4-6.7 8-4.4-1.2-3.2-5.2-3-8.6 2.7-32.5-18.2-46.6-41.8-53.4-12-3.5-26.1 5.2-32.6 18.6a58.9 58.9 0 0 0-7.4 31.7c.2 3 .1 6-.2 9-.3 4.7-.2 10.2-7 9.5-6-.6-7-5.6-6.6-10.5 1.7-17.2 3.7-33.8 13.6-49.4 13.8-21.8 46.8-20 63.5-10.5 20.9 12 32 29.4 28.2 55.6ZM396.8 148.8c3.2 10.2 6.5 19.4 8.8 28.9 1.7 6.8.2 12.7-9.2 14l-8.8-33.1a48 48 0 0 0-9.7-19.1c-14.3-16.8-27-19.2-45.2-7-18.4 12.5-30 28.7-23.8 52.8.7 2.6.9 5-3 8.7-8.4-7.6-10.4-17.3-8.8-27.6a57.4 57.4 0 0 1 50.4-47.9c21.4-3 38.3 6.8 49.3 30.3ZM876.6 519c-26.6-4.5-40.6 9.8-35.9 36 1 5.9 2.5 11.6 2.2 17.6-.2 3.6-.8 7.4-5.3 7.2a7 7 0 0 1-6.8-6.5c-1.8-15.6-4-31.2.4-46.8 3.4-12.1 24-24.8 37.8-21.5 21 5 45.3 18.8 44.6 47.5-.2 6.6 6.5 14-3 21-9.8-19.2-6.5-46.6-34-54.5ZM357 664.1c-4-30.4-35.2-50.7-61-40.6-14.4 5.7-22 23.3-18.4 43 .8 4.5 3.5 8.9-1.3 14.6-14.2-11.2-8.5-26.6-7.8-39.4.7-16.4 17-30 34.6-32.2 24-3 51.3 12.5 59.7 34.1 5.4 13.8 5 31-1 35.3-4.9-3.4-4.2-8.8-4.8-14.8ZM991.9 628.3c-12 12.8-16.2 26.5-9.1 42.5 1.4 3.2 3 6.9-1.4 8.6-4.5 1.7-5.5-2-7-5.3-8.6-20-2.2-47.4 13.5-57.8 19.6-12.8 48.6-7.2 67.3 10.9 13 12.6 11.8 29.2 15.8 44.4a6 6 0 0 1-5.3 7.4c-3.8.4-4.7-3.2-5.3-6-.8-3.7-.8-7.6-1.1-11.4a44.2 44.2 0 0 0-67.4-33.3Z"/><path d="M605.3 545.1c-1.4 3.2-1.9 6.2-5.2 6-3.6-.4-4.6-3.3-5-6.4a43.8 43.8 0 0 1 10.1-33.1C618.6 495.4 638 491 658 494c9 1.4 14.8 10.8 18 18.5a60 60 0 0 1 2 41.2c-.8 2.5-1.4 5-4.6 5.1-3.1.1-4-2.3-5.3-4.6-2.4-4.4-1.8-8.6-.7-13.4 2.5-10.9.8-21-7.9-29.1-8.5-8-17.6-5.3-27.2-2.5-17.5 5.2-24.3 18.1-27 35.8ZM368.6 412.8c-1.5 10 2.3 19.5-3 28.2-8.8-6.7-11.2-23.8-6-38.5 4.8-14.4 25.6-25 45.9-26.5 16.6-1.2 27.4 10.2 33.5 30 3.2 10.3 6.3 20.8-3 29.8-6.5-2.7-5.9-7.3-5.9-11.4 0-8-2.2-15.3-5.3-22.2-6-13.6-18.2-17.6-31.5-11-9.7 5-20 9.4-24.7 21.6ZM1114 388.4c-34 1-45.5 21.3-43.9 53.5a34.6 34.6 0 0 1-3.2-45.5c15.7-19.3 45.8-26.8 60.2-15 15.6 12.9 22 39.7 11.7 53.7-11.2-14.2-4-37.8-24.7-46.8ZM903.5 374.3c-.8 4.9 1.8 11.2-4.5 11.1-5.8 0-4.4-6.1-4.8-10.1-2-19.1-25.3-36.6-43.7-32.2-11.6 2.9-17.2 11.2-18 23-.7 9.6 1.9 19.4-2.2 28.7-9.3-3.6-13.2-21-9.3-39.1 3.6-16.7 21.4-28 42.4-25 19.3 2.8 41.6 16.6 40 43.6ZM129 380.3c.7 5.9-.2 10.3-3.6 14-11.7-8.4-12.4-34.2-1.4-50.3 12.3-18.2 36.5-19 61.9-2.2 12.4 8.3 18.3 31.3 10.7 43.8-6.7-2.7-6-9.4-7.4-14.7-4.5-17.4-24.7-31.2-42-28.2-13.6 2.2-21.5 18-18.2 37.6Z"/><path d="M216.1 352c-.2 6.2 2.4 10.8 3.9 15.6 1.6 5.6 1.2 10.6-6.3 15-7-46.8-32-68.7-79-59.4-.6-9.3 4.3-12.2 9.6-12.7 31.1-3.1 56.2 5.3 71.8 41.4ZM884 536c13.3 15.8 14.8 21.7 9 33.5-7.2-5.3-7.9-14.7-13.6-20.9-4.8-5.3-9.6-8.3-16.4-5.9-6.4 2.4-4.8 8.2-4.4 13.2l1.2 13.9c.4 3.7 2 8.3-3.3 9.4-4.7 1-7.8-2.3-9.5-6.6-3.6-8.5-.3-31 5.8-36.2 9.7-8.2 20.2-6.2 31.3-.3ZM296.5 666.4c-2.4 2.1-3 6.3-7.1 6.6-6.8-10.9-5.3-23.4 3.6-31.6a34.9 34.9 0 0 1 43.1-2.6c7.4 5.4 12.4 27 8.3 35-1.3 2.2-2.5 4.6-5.7 3.9-2.8-.6-4.2-2.7-4.5-5.5-.2-3.3-.2-6.8-.3-10.2-.7-12.7-9.1-20.7-21-20-12.6.6-18.1 8-16.7 23.6l.3.8ZM629.5 318.8c-5.2 5.3-7.8 3.2-9-2.3-.7-3.3-.2-7-1.7-9.9a23.8 23.8 0 0 0-20.2-13c-9.3-.6-11.3 6.8-15 13-3.8 6.6-1 15.4-7.8 21.4-12.6-4.2-7.2-14-5.2-20.8 5.6-19.2 16.8-25.6 36.2-22.6 13 2.1 23.5 17.4 22.7 34.2ZM166.6 530.8c20 5.6 31.2 24.2 22.7 39.2-3.3-9-9-15.4-13.7-22.4-4.4-6.4-10.6-7.3-16.8-4.7-6 2.4-6.3 8.5-5.4 14.2.7 4.2 1.9 8.3 2.7 12.4.8 3.7 2.6 8.5-2.8 9.4-4.7.9-8.8-1.3-11-6.5a30.3 30.3 0 0 1 24.3-41.6ZM316.5 174.9c2.7-16.6 9.6-27.5 27-30 18.4-2.6 36.2 12.9 35 31.7-.3 4-.4 8.3-5.5 8.6-5 .3-6-3.6-6.4-7.8-.3-2.9-.4-6.1-1.8-8.6-4-7.7-6.8-17.5-17.7-17.7-8-.2-19.9 13-21.6 22.5-.7 3.5 1 7.7-2.6 10.7-5-.6-5.2-4.9-6.4-9.4ZM1029.6 645.7c-26.6-11.3-31.4 7.2-35.7 26.8-5.2-11.7-4.7-22 2-30.7 6.2-8.2 26.4-11.7 36.6-7.5 10.5 4.3 16 12.4 15.4 23.8-.4 6.6 4.2 18.4-3.8 18.8-9.8.6-4.1-11.1-5.2-17.3-1-6-3.8-10.2-9.3-14ZM857.7 183.2c16.8 6.2 21.5 17.5 15.7 36-6.4-1-4.3-6.5-4.9-10-1.7-9.3-7-14.9-15.2-18.6-9.7-4.3-16.5-1-20.4 8.3-2.3 5.4-3.9 11.1-4.8 17-.6 4.6-1.8 7.6-6.8 6.5-4.4-1-5.3-4.4-4.8-8.9 2.6-25.7 13.5-34 41.2-30.3ZM1016.5 152.4c-7.8 13.1-1.4 27.4-5.4 40.4-11.3-5-14.5-25-7.1-38.7 11.7-21.4 15.7-24.4 25.4-18l-13 16.3ZM643.4 546.3c-.2-7 0-14.6-6.7-16.1-9.7-2.1-10.5 9-15.4 14-6-6.4-4.7-16.4 2.4-22 8.3-6.7 19.7-6.3 24.5 2 3.4 5.7 4.7 12.6 6.3 19.1.7 2.8.4 6.3-3 7.7-3.7 1.5-6.5.4-8-4.7ZM877.8 379.4a82.1 82.1 0 0 1-4.6-8.3c-2-3.6-4.7-6.3-9-5.2-3.6.8-5.6 3.6-6.1 7.3-.4 3.3-.4 6.7-1 10a4.8 4.8 0 0 1-4.2 4c-3 .5-4.6-1.6-5.6-4-3.3-7.8 3.9-24.5 12-27.9 9-3.8 20 2 23.8 12.8 1.6 4.8 3.4 10.3-5.3 11.3ZM393.4 402c14.4 1.7 20.7 8.7 21.7 22.5.3 3.1.7 6.2-3.2 7-4 1-6.5-.7-7-5-.3-2.5-.2-5.3-1.2-7.5-1.8-4-5.8-6.6-10.1-6.5-4.2 0-4.9 4-6.3 7.1-1.7 3.6.1 8.9-5 10.9-10.6-10.3-6.4-22.3 11-28.4ZM1248.8 517.4c-4.6 12.5-1.5 25.9-8.8 37.7-10-29.2.2-61 25.8-61.8-2.5 10.2-13.8 13.7-17 24ZM1112.4 408.9c3.6 4.9 6 9.3 7.2 14.3 1 3.6 1.3 7-3.1 8.2-4 1-6.4-1.1-7.4-5-1.7-6.2-3.4-13.7-10.9-13.8-9.3 0-7.3 10.8-12.1 16.8-7.5-8.1-5.3-17 .2-22.6 7.7-7.6 17.5-7.2 26.1 2ZM166.8 366.2c-10.8-2-13.7 3.8-14 12.6-.3 4 .2 9.8-6.2 8.4-5-1-5.2-5.7-4.5-10.3 2.7-19.5 17.1-28.5 30.1-18.7 7.4 5.5 7 12.5 5 20.8-7.7-1.2-4.6-10-10.4-12.8ZM1045.8 147c.8.9 1.2 1.5 1 1.6-11 9.6-19.4 20.6-18 38.1-11-5.9-8.4-13.9-7.1-20 2.5-12.2 10-20 24-19.7ZM1261.2 544.3c-.8 3-1 5.2-3.8 5.4-5.5-11.7-1.3-29.4 8.5-35.8 2.7-1.8 5.5-2 7.8.9 2.2 2.7 2 5.6-.5 7.9-6.5 5.4-8.4 13.4-12 21.6Z"/><path d="M869.2 571c-10.7 0-8.3-7-7-12.4 1.4-5.2 5.2-9.7 11.1-8 8.4 2.2 10.5 8.7 9.1 16.5-3.5 4.7-9.6-2-13.2 4ZM296.4 666.5c10.5-13.2 19.8-14.2 26.5-2.5 2.4 4.3 4.2 9.6-.7 12.5-5.8 3.6-8-1.4-9.5-6.3-.4-1-1.5-2-2.1-2.8-4.5-2.3-8.6 5.4-13.5-.4-.6-.6-.6-.5-.7-.5ZM160 555c4.5-5.8 9.5-5.7 13.9-2.5 5 3.6 5 9.2 3.4 14.8-19.4 3.2-19.4 3.2-17.2-12.2ZM1005.4 659.5c7.2-4.8 13.6-5.7 18.3 1.7 3.1 5 7.6 10.9.2 16-6.2-1-5.4-7.9-10.6-10.4l-9.5 2.6c-4-4-1.2-6.6 1.6-9.9ZM335.8 170.2c5-4.8 10-4.4 14.7-2.5 5 2 7.7 6.4 8.4 11.7.3 2.2-.9 4.4-3 5.2-6.5 2.6-6.4-5.2-10.3-7-4.6-1.4-5.4 5.1-9.9 4.5-4.2-3.4-2-7.3.1-12ZM850.1 214.5c-4 2.7-6 10.5-11.2 5.2-4.3-4.5-1.3-11 2.9-14.5 4.7-4 11-5 15.6.5 2 2.7 4.2 6.4 3 10.8-4.3 3.7-5.9-4.2-10.3-2ZM590.7 322.8c-1.8-10.3 3-17 11.9-17.3 8-.3 12 6 10.6 14.4-5.3 3-6.5-3.6-10.3-3.5-3.7 2.7-4.6 10-12.2 6.4ZM1045.4 166.8c6-.1 11.2-.7 13.6 5.7 1.2 3.4 5 6.8 1.3 10.3-4 3.8-7 0-9-3.1-4.3-6.7-7.9 2.4-12.5.2-.5-5.3-2-10.8 6.6-13ZM1082.8 176c0 5.2-1.6 9-6 9.2-4.9.1-5.8-4.4-6.4-8.2-.6-4-3.4-7.8-1.9-13.2 6.8 1.5 11.1 5.4 14.3 12.2ZM95.9 393.3c1.8-3.3 2.6-6.4 6.9-7 2.3 6.2 6.7 12.2.5 18.8-2 2.1-4.8 4.1-7.6 1.8-4.7-4-1-8.4.2-13.6ZM1269 537.6c9.3-7.8 10.2-7.2 14 9.3-4.6-1.5-8.7-.3-12.2 1.2-4-3-3-6.4-1.8-10.5Z"/></g><path fill-rule="evenodd" clip-rule="evenodd" d="M1301.7 692c-6.3-26-11.8-51.9-17.4-77.9l-8.4-39c-8-36.6-18.6-72.3-30.1-107.6a677 677 0 0 0-42.2-102.8l-7.1-13.7a804.1 804.1 0 0 0-27.6-50.7c-27.6-45.3-58.4-88.3-97.4-124a336.4 336.4 0 0 0-102.8-65c-7-2.8-13.9-6-20.8-9.1-8-3.7-15.9-7.3-24.1-10.5-10.6-4-14.4-.7-18.9 7.3-8 14.7-18 28-33 36-40.4 21.6-82.6 33.2-127 13.6-18.3-8.1-35.3-20-48.8-35.4-6-7-12.2-8.3-20.5-9.5-22-3.3-36.8 4.7-49.3 23.1C610 151 584 160 556.6 162.6c-39.9 3.8-76-6.6-108.4-31.8a203.6 203.6 0 0 1-44.8-44.3l-9.7 4.5c-7 3.1-13.7 6.2-20 10-9.6 6-19.7 11-29.8 16-11.6 6-23.2 11.7-34.1 18.9-32 20.8-60 45.8-85.8 73.7a604 604 0 0 0-86.7 122.8 867.4 867.4 0 0 0-50 108.1 1213.2 1213.2 0 0 0-34.2 102 560 560 0 0 0-20.3 102.2c-.6 6.8-2.1 13.6-3.7 20.4-1.9 8.3-3.8 16.8-4.1 25.8-5.5 1-10.7 1-17 1 4.6-32.9 9.8-66 16-98.8 2.4-12 5.4-23.7 8.4-35.4l5.3-21.5c5.2-22.6 12.7-44.6 20-66.6l.1-.1.9-2.6a835.3 835.3 0 0 1 83.3-179c17-27.2 36.2-53 57.3-77 37.5-43 79.4-80.3 130.6-105.9l10.8-5.4c36.1-18.2 72.3-36.4 112.5-44.2 11-2.1 22.2-4.6 33-7.6 12.8-3.5 15.2-9.1 10.4-21.1l-1-2.2c-.7-1.6-1.5-3.3-1.7-5v-.4c-.6-3.6-1.3-7.8 3.8-8.9 4.3-1 5.5 1.6 7 5l.6 1.1c1.6 3.2 3 6.5 4.5 9.7 4.8 10.8 9.6 21.7 18.7 30.6 17 16.6 38 24.2 59.9 27.2l5.3.7c25 3.3 50 6.7 75.4 5.4 35.4-1.8 70.4-5.5 104.3-16.5 5.2-1.7 9.8-4.8 14.1-8.3 7-5.8 6.5-10.6.5-16.8-9-9.2-11-20.6-10.4-32.6 4-1.5 7.1-.5 7.7 1.8 7 30.4 29.7 36 56 39 34 3.8 66.4 14.3 98.9 25a399.8 399.8 0 0 1 71.4 34.6l18.7 10.5a271.8 271.8 0 0 1 67.1 53.2c22.8 24.3 44.1 50 62.7 77.6a762 762 0 0 1 45.1 74.5 1005 1005 0 0 1 86.8 242c5.7 25.4 10 51.3 14.3 77.5 2.2 13.2 4.3 26.4 6.7 39.7-3.2.9-6.7.9-11.3.9ZM575.3 143a84 84 0 0 0 49.9-37.7c-2.9-2.4-6-3-9.2-3.5l-3-.5c-6.5-1.5-13.2-2.7-19.9-3.9-27-4.8-54.1-9.7-74.2-32.8-1.4-1.5-4.7-1.7-7.1-1.8-27.6-.5-53.6 6.9-79.6 14.3l-11.3 3.2c.8 5.6 2.6 9 5.8 12.2 12 12.3 25.3 23.2 39.7 32.5 33 21 68.2 30.7 108.9 18Zm224.8.3c-31.6 4.3-57.3-9-81.2-27.6-1.6-1.7-3.3-3-5-4.2-3-2.4-5.7-4.5-6.9-8.4 10.1-3.8 20.7-5.8 31.2-7.9a178 178 0 0 0 33.2-8.6l5.3-1.8c4.4-1.4 8.8-2.8 11.9-5.8 16.8-16.2 36.3-15.6 56.5-10.6 13 3.3 26 7 39.6 11l19 5.6-5.6 6.5c-14.2 16.6-26.7 31.3-47 38.5-16.8 6-33.4 11-51 13.3Z" fill="#000"/><path d="M1119.6 692c-9.1-36.9-12.1-74.7-22-111.2-7.7-28.1-13.9-56.8-23.8-84-7-19.4-13.7-39-23-57.8-12.7-25-23.1-51.2-34.4-77-1.3-3-2.9-6.3 1.3-8.8 4.3-2.6 7.4-.5 9.8 2.6 3.8 5 7.8 10.2 10.6 15.9 10 20.4 19.4 41.1 29.1 61.6A612.7 612.7 0 0 1 1101 529c9 31.6 17.5 63.6 21.5 96.6 2.6 21.4 7 42.7 8.6 65.4-3.3 1-6.8 1-11.4 1ZM221.2 692c-.6-3 .4-5.8.4-8.7 0-49.6 9.7-98 16.8-146.7 5.1-35 13.4-69 22.8-102.9 6.8-24.4 18-47.5 32-69 2.3-3.6 4-10 10-6.9 6.3 3.2 3.3 9 1.4 13.6-7.2 17.6-16 34.7-22 52.7a740.8 740.8 0 0 0-31.3 138.7c-1 8.5-2.8 16.8-5 25-7.5 28.5-3.8 58.4-11 87-1.2 4.7.2 10.1.2 16.2-4.5 1-8.9 1-14.3 1Z" fill="#000"/><path fill-rule="evenodd" clip-rule="evenodd" d="M648.9 165.5c-9 6.6-10.5 15.7-3.6 28.3l4 2.7c2.3 1.5 4.3 3 6.5 3.6 9.5 3 17-2 21.6-9.1 4.7-7 5.5-16.9-1.9-22-7.3-5.1-16.6-10.9-26.6-3.5Zm5.4 17.4Zm0 0c3.8 2.8 7.6 3.4 10.9-.5a3.4 3.4 0 0 0-1.2-5.3c-4.4-1.6-9.2-2.6-9.7 5.8Z" fill="#000"/></g><g transform="translate(266 207)"><path d="M286.1 399.8c9.9-14.7 13-31.3 21.2-46a328.8 328.8 0 0 1 57-72.4c26.3-26 54.7-49.7 88-66 45.4-22 93.8-33.6 144.2-30.8 32 1.9 63 10.8 92.8 24.6 29.7 13.7 102.5 9 155.6 113.1C906 442.4 866.2 503.8 873 565.1c6 52.4 27 99.3 32 151.8 5.3 56.9 20.2 141.3 1.7 200.3-4.3 13.8-13.9 17.3-24.3 17.5-22.9.5-44.5 8-66.7 10-25 2.1-49.3 8.8-74.6 9.7-18 .7-29-7.3-36.5-20.3a118.6 118.6 0 0 1-16.7-63c.2-9-.8-13.6-12-10.4-17 4.8-34.6 3.5-52 1-3.8-.6-9 .7-9.6-6.9a37 37 0 0 1 21-5.5c50.8-.5 93.5-20.1 126.8-57.8 22.6-25.5 41.4-55.1 49-88.2 6-26.4 7.5-54.5 10-82 4.6-49.4-3.5-99.5 9.3-149.7-19.8-3-37.6-12.5-56.4-19.4a175 175 0 0 1-41.2-21.9c-11.4-8-21-10.8-34.8-6.3-41.8 13.8-84.4 12.6-127 3.2-31-6.9-61.6-14.8-91.8-22.1-18.3 58.3-44 112-86.3 156.7-4 4.2-8.1 9.6-15.1 7-6-2.2-6.8-8-8-13.6-5-24.2-13.8-46-34.3-62-10.4-8-20.5-12.5-32.7-6.2a33 33 0 0 0-17.8 27.4c-3.5 33.1-3 66.3 0 99.4 1.4 14.4 5 28.8 12 41.4 12.7 23 45.4 23.3 62.7 1.6 4-5.1 6.3-12.3 13.5-14.2 19 10.5 10.1 29.5 13.6 44.3 6.7 28.5 8.2 57.9 13.6 86.7 7.6 40.8 12.7 82.1 18.7 123.2 3.9 26.8-4.6 33-31.3 35.1-28.5 2.2-54.6 11.5-81.5 18.6-20.5 5.4-40.8 11.4-61 17.2a24 24 0 0 1-21-3.4c-1.2 2-2.7 3.2-3 4.6-1.3 7-4.8 11-12.3 9.8-7.8-1.2-11.3-6.7-10-13.8 2.4-11.8.1-24.2 3-35.5 7-25.9 5.9-52.3 6.3-78.3.6-30.9 5.9-61 8.6-91.5 2.1-24 4-48.3 7.5-72.2C231.4 641 234.1 594 246 548c10.1-39.4 17.8-79.5 29.6-118.5 3-9.7 6.8-19.1 10.6-29.6Z" fill="#000"/></g><g transform="translate(791 871)"><path d="M169.6 96c-10.4-12.4-20.6-23-37.9-20.7a4.8 4.8 0 0 1-5.6-4.2c-.5-2.8 1.1-4.7 3.2-6.5 7.8-6.8 22-6.8 34.6.3 11 6 18.7 19.7 16.9 29.4-1.7 8.6-5.8 6.7-11.2 1.7Z" fill="#000"/></g><g transform="translate(653 805)"></g><g transform="translate(901 668)"><path d="M69.4 96c-.6-14.1-4.3-27.2.4-40.1 1.2-3.3 1.2-8.6 6.7-8 5.5.8 4.5 5.6 4 9.2-4.6 30.7 7 58.6 15 87 2.7 9.3 6.6 18.2 6.1 28.4-.8 16.4-11.3 26.4-27.4 23.6a29.5 29.5 0 0 0-17.2 1.8c-14 5.6-26-5-39.6-5.3-4 0-6.6-7.3-7-12.7 0-2.5.4-5.2 3.5-6 2-.8 4.4.2 5.3 2.2 3.6 7 9.3 3.2 14.4 4.2 11.9 2 23 1.3 34.8.9 5.8-.3 11.7 3.3 17.2-1.7 5.8-5.2 4-11.3 2.2-17.6C81.7 140.3 72 119.7 69.4 96Z" fill="#000"/></g><g transform="translate(610 680)"><path d="M409.2 75.7c13.1.3 25.4 1 37.7 2.5 3 .3 4.9 3.3 5 6.6 0 3.4-1.8 5.7-4.8 7-11.1 4.9-22 8.3-33.7.2-6.5-4.4-8.9-8.6-4.2-16.3ZM254.7 78.4c6.2 3.3 5.2 7 2.1 10.8-6.5 8-28.2 10-36.4 3.5-4.7-3.8-7.3-8.6-4.4-14.4 3-6 8.2-5 13-2.5 8 4 16.4 3 25.7 2.6Z" fill="#000"/></g><g transform="translate(610 680)"><path d="M474.1 17C499.7 31.2 503.5 68 495 84.7c-8 15.4-19.5 28.5-32.9 39.9a104.9 104.9 0 0 1-38.8 22.8c-7 2-13 .1-18.1-3.3-18.1-12-33.2-27.5-47.5-43.7-3-3.6-5.3-7.7-6.6-12.3-4.3-14.2-14.9-19.2-28.3-13a50.9 50.9 0 0 0-22.3 18.4 150.8 150.8 0 0 1-53.6 49.7c-14.2 8.1-23.5 6.4-37-3.6-13-9.7-24.9-20.8-35.4-33-8.4-9.8-16.8-19.4-15.7-33.5.3-4.6-2.5-7-6.5-8.3a14 14 0 0 0-3.7-.7c-21.3-1-41.3-9-62.6-10.3-16-1-30.9-8.7-46.5-12.6-4.5-1.2-8.7-3.8-13.2-4.6-6.5-1.2-7.8-5.5-9-11.6A65.5 65.5 0 0 1 52 29c18.3 7.3 38 8.5 57 12.8 15.5 3.6 31.5 5 47.7 10.1 4.5-17.5 11.5-32.7 29.6-40 19.9-8 33.2 3.2 48 15 15.2-8.1 31.4-17.3 49.7-9.8 18.4 7.4 22.8 24.7 26.2 42.7 11.6.4 22.8-3.5 34-.7 3.9-7 4.4-14.3 6.3-21.2a37.2 37.2 0 0 1 57.7-21.8c9.8 9 19 9.6 31.5 2.9a38.5 38.5 0 0 1 34.3-2.2Z" fill="#000"/><path d="M193 63.5c-1-.3 1 0-.2.4-6.6 2 50.7 52.8 55.8 48.5 3-2.5-49.5-46.3-55.7-49ZM213.3 39.7c-.9-.3 1 0-.1.4-6.7 2 50.7 52.8 55.7 48.5 3-2.5-49.5-46.3-55.6-49ZM388.2 63.5c-.8-.3 1 0 0 .4-6.7 2 50.6 52.8 55.7 48.5 3-2.5-49.5-46.3-55.7-49ZM408.6 39.7c-.9-.3 1 0-.1.4-6.6 2 50.7 52.8 55.7 48.5 3-2.5-49.5-46.3-55.6-49Z" fill="#fff"/></g><g transform="translate(774 657)"><path d="M53.5 37.6a79.2 79.2 0 0 0 27.3-19.8c2.7-3 6.1-5.7 9.9-5 6.7 1.1 16.2-1 18.8 7.5 2.1 7-5.2 10.5-10.3 14.4-13.8 10.5-28.2 19-46.6 16.7-4.6-.5-9.7.2-11-6.2 1.6-5.5 7.3-4.9 11.9-7.6ZM251.4 15c8.5-1.7 12.6 4.1 17.1 8.2 8.1 7.4 14.7 16.4 26 19.8 3.3 1 5.7 4 4 8-1.5 3.5-4 5.7-8 4.6-14.3-3.8-29.2-5.9-40.6-16.8-10-9.6-10.2-14 1.5-23.7Z" fill="#000"/></g><g transform="translate(0 559)"><path d="m1722 1194-240.1 4.4s-20.1-26.7-36.5-144.5c-4-28.4 12.9-82.2 10-162.5-4.2-124-27.7-283.6-31.8-294.3a1230.2 1230.2 0 0 0-75-150.5c-28.6-45.6-38.6-124.5-25.4-189.5 1.3-6.6 6-25.5 21.5-29.9 16-4.5 31.5 11.7 39.4 9 8-2.6 23.3-18.4 34.6-22.9s23.1-6 19.2-35.7c-1.8-13.7-34-163.7 1.5-168.4 31.5-4.2 40.8 78.1 48.5 108.6 10.8 43.5 13.5 95.5 18 103s35 26.3 48.1 50.8c13.2 24.4 13.2 54.2 9 81.9-6.7 43.7-41.9 134.8-19.4 205.1 13.8 43.4 120.8 304.8 142 357.7 20.5 51.7 51.8 143.4 51.8 173.3 0 58.4-15.4 104.5-15.4 104.5Z" fill="#fff"/><path fill-rule="evenodd" clip-rule="evenodd" d="M1649.7 1194c20.2-29.3 23.7-63.4 27.2-97.6l1.5-13.5c3.6-31.7 3.7-63.7.4-95.4a493 493 0 0 0-13.6-67.5l-5.4-22c-4-17.3-9.3-34.2-14.5-51-3.2-10.2-6.4-20.4-9.3-30.6a693 693 0 0 0-33.2-90.6c-4.4-10-9.1-20-13.9-30a509.4 509.4 0 0 1-30.6-74.8c-3-10.2-6.5-20.4-10-30.5-9-26.4-18-52.8-18.5-81-.4-30.1 6.5-59.4 13.4-88.6l.8-3.2c8-33.8 16-67.6 14.3-102.9-1.5-33.9-21-56.1-46.3-74.5-16.7-12.2-36.6-18-56.5-22a70 70 0 0 0-55.4 13.6c-9.1 6.5-9.4 18.2-1.7 30 17.7-23.3 41.1-19.2 63.9-15.2l7.7 1.3c5.3.8 10.6 2.4 16 4 5.7 1.7 11.4 3.4 17.2 4.2 7.8 1.2 11.8 5.4 15.7 13.6-14.4 3.5-27.3.1-39.9-3.1a439.6 439.6 0 0 0-9.5-2.5c-13-3.3-25.6-6.5-39.5-3.9-17.3 3.3-27.5 12.2-28.7 29.9-.8 13.6-.4 27.3 0 40.9.2 6 2 12.9 9.7 12.5 6-.2 6-4.8 6.2-9.2v-2.7c2.4-28.6 34.4-55 62.6-50.6 3.2.5 6.5.8 9.8 1.2 11 1.2 22.1 2.3 31.8 9.1l2 1.3c2.7 1.6 5.4 3.2 3.8 7-2 4.9-6 3.7-10.3 2.4l-.6-.1-2.4-.7c-16.2-4.8-32.4-9.6-49.8-3.8a45.4 45.4 0 0 0-31 38.5 37.6 37.6 0 0 0 14.9 34.9c13.3 10.3 20.7 7.7 26.2-8 .8-2.3.6-5 .5-7.7-.3-5.1-.5-10.2 6-12.8 4.8-1.9 8.5.5 12.2 3 2.5 1.5 5 3 7.7 3.5a27.7 27.7 0 0 1 16.9 11.2c-5.7 6.7-11.2 4.7-16.7 2.8a27 27 0 0 0-7.3-1.8c-3 1.8-4 4.9-5 8-.3 1.2-.7 2.5-1.3 3.7-13 28.2-32 23.8-50.7 8.1h-.2c-1.8-1.7-4-3.4-4.9-5.6-5.5-13.2-13.5-20.1-29.4-18.6-7 .6-12-8.2-13-16.7a309.8 309.8 0 0 1-3-45.4c-5-.7-10-.7-15-.8-9.7 0-19.2 0-27.9-5-2.1-1.2-4-3.1-4.4-7.6 7.4-4.9 15.9-4.5 24.5-4 8.7.4 17.6.8 25.7-4-1-2-2.2-3.9-3.4-5.7-4.2-6.8-8.4-13.5-6.7-22.2.7-3.5-2.8-4.6-5.9-5.4-4-1.2-8-2.7-12-4.5-14.7-6.3-26-.9-28.6 15-7.2 44-9 88.1-.2 132 3.5 17.5 10.3 34 20 49a465 465 0 0 1 29.6 55.4l9.7 20c7.2 14.5 13.2 29.5 19.2 44.4l10 24.6c16.2 37.5 21.7 77.4 26.7 117.5 4.1 33.8 7.3 67.5 9 101.5l1.2 30 1 26.2c1.2 23.8 4.7 47.2 8.1 70.6 1.4 9.3 2.8 18.6 4 28 5 37.4 16 73.3 26.9 109.1l4.5 14.8a320.4 320.4 0 0 0 64.2 119.8c-5.5.8-11.2.8-16.8 0-49.5-61.6-68-134.2-86.4-205.5l-3-11.9-.3 1-.2.5c-1.8 4.8-4 10.8-5.1 17.7-5 29-2.2 57.7.7 86.4 2.2 21.5 7.5 42.5 15.8 62.3 3 7.2 6.7 14 10.4 20.7 5.2 9.5 10.4 19 13.6 29.6H1483a161.4 161.4 0 0 1-30.8-58.1c-12-35.5-15.7-72-17-108.8-.4-11.2 2.5-22 5.4-32.6a130.5 130.5 0 0 0 6-39.9c1.4-22.8 2.7-45.4-.2-68.5-2.5-19.4-2.7-39-2.8-58.8-.2-10.2-.2-20.4-.7-30.6v-1.1c-1-23.9-2.1-51.4-5-76l-2.2-21.5c-3.1-32.4-5.6-58-25.5-114.1-6.3-17.7-15-34.4-23.5-51-7.3-14.1-14.6-28.2-20.5-43a252.5 252.5 0 0 0-28.5-51c-15.9-22.6-19.8-48.4-23.7-74.3-.6-4.2-1.2-8.5-2-12.7-4.2-26.2-.8-51.9 2.6-77.5 1.2-9.7 2.5-19.4 3.4-29.1 2-21.4 22.8-30.8 49.1-24 4.2 1.1 8.2 2.6 12.4 4l6 2.2a56 56 0 0 1 29.5-21.3c14.3-3.8 14-12.7 13.7-24v-1c-.7-21.5-3.3-42.8-6-64.1-3.4-28.5-7-57-5.7-85.9 1-20.4 13.6-33.3 31.6-31 13.1 1.5 18.4 12.1 23.1 21.7 9.5 19.2 12.9 40.1 16.3 61a539 539 0 0 0 4.5 25.2c2.6 12.3 4.4 24.7 6.2 37.2 2.6 18.2 5.2 36.4 10.5 54.1l.2 1c.8 2.6 1.6 5.2 1.5 7.7-.6 9.7 4.4 15.3 12 20.7 26.4 18.5 44.4 44 50.4 75.3 4 20.7-.5 41.7-4.9 62.5l-1.9 9c-2.8 14-6 28-9.3 41.8a658.9 658.9 0 0 0-16.2 85.5c-1.9 18.9 3.1 36.6 9 53.5l1.4 4.2c8.2 23.4 16.3 46.8 26 69.7 21.1 49 40.8 98.5 59.7 148.3 3.2 8.4 6 17.1 8.6 25.8 5 16 10.1 32.2 18.3 46.8 11.8 21 22.3 42.7 32.8 64.4 7 14.4 14 28.9 21.3 43.1 2.7 5.2 3.8 10.8 5 16.3l1.4 7c9.4 37 18.5 74.2 18.6 112.7 0 25.4-2.8 50.8-6.5 76-1 7.4-4.2 13.8-7.8 21l-.7 1.3c-3.9.9-7.9.8-11.8 0l1.6-6.5c4.3-16.8 8.4-33.1 9-50.1 1.2-38.3.4-76.6-8.1-114.1l-1.6-6.9c-6.5-29.1-13.1-58.4-31.2-84 2 16.9 6.8 32.8 11.6 48.6a406 406 0 0 1 8.9 32.5c9.4 43.9 9.5 87.3-1.6 131-3.3 13.3-9 25.4-14.7 37.5l-6 12.8h-34.6Zm-205.2-991.7a259 259 0 0 0-3.6-60c-1.9-13.5-3.7-26.8-4-40.3.6-12.6-1.1-23.6-2.8-34.2l-1.3-8.8a76.3 76.3 0 0 1 2-35.4c1.4-4 2.9-8.3 8.3-8.6 5-.2 7.7 2.8 10 6.6 8 12.6 13.7 26.5 17 41 9.5 44.4 19.3 99 23.4 124.9l4.1 26s-33.1-13.2-53.1-11.2Zm241 945.7 4.5-22c4.1-29 4.9-56.2 5.7-83.6v-1.5c7.7 37 1 72.2-10.2 107Z" fill="#000"/><path d="M1523.3 552.2c-6.5 13.3-23.7 19-35.7 13.1-3.3-1.6-6-3.4-5.7-7.4.5-4.9 4.3-4.8 7.6-4.3 11.2 1.5 21.7-8.5 33.8-1.4Z" fill="#000"/></g></g>
    </g>
  </g>
  <g clip-path="url(#clip_group_4_1)">
    <g transform="translate(11.7,22.9) scale(0.0305)">
      <metadata xmlns:rdf="http://www.w3.org/1999/02/22-rdf-syntax-ns#" xmlns:xsi="http://www.w3.org/2001/XMLSchema-instance" xmlns:dc="http://purl.org/dc/elements/1.1/" xmlns:dcterms="http://purl.org/dc/terms/"><rdf:RDF><rdf:Description><dc:title>Notionists</dc:title><dc:creator>Zoish</dc:creator><dc:source xsi:type="dcterms:URI">https://heyzoish.gumroad.com/l/notionists</dc:source><dcterms:license xsi:type="dcterms:URI">https://creativecommons.org/publicdomain/zero/1.0/</dcterms:license><dc:rights>Remix of „Notionists” (https://heyzoish.gumroad.com/l/notionists) by „Zoish”, licensed under „CC0 1.0” (https://creativecommons.org/publicdomain/zero/1.0/)</dc:rights></rdf:Description></rdf:RDF></metadata><mask id="mixed4_1_viewboxMask"><rect width="1744" height="1744" rx="0" ry="0" x="0" y="0" fill="#fff" /></mask><g mask="url(#mixed4_1_viewboxMask)"><g transform="translate(531 487)"><path d="M554 727.7c-99.2 297-363.8 388.6-503.7 19.8-19.3-50.7 31-69.5 66.2-91.9 24.1-15.3 36.8-28.5 35.3-42.2-7-64.4-36.9-243.8-36.9-243.8l-3-5.8s.7-1.6-2.2 1.2c-3 3-9.9 34.2-37 34.2-24.5 0-49.2-10.9-61-86.3C7.2 285.6 9.6 214 40 201c12.5-5.3 24-7.2 35.2-.8 11.3 6.4-13-22 112-126C268.4 6.4 396.7-3.5 448.5 8 500.3 19.5 552 44.8 574.9 98.5c27.8 65-25.9 114.3-14 262.5-2.2 53.6.8 171.2-146.6 210.6-28 7.5-19.3 48.4 22.7 58.4 67 21 117 72.3 117 97.9" fill="#fff"/><path fill-rule="evenodd" clip-rule="evenodd" d="m554 266.2.1-1.4c4.1-36.4 8.2-71.7 27.1-103.4 6.5 4.4 5.7 10 3.7 15.2-19.9 51.2-18 104.4-16.2 157.6l.4 14c2.1 66.4-14.5 126.8-58.7 177.5-15.4 17.6-35.8 29.8-56.5 40.3-21.4 11-25.9 20.1-19.2 43.6l.8 2.6c1.4 3.9 2.8 7.9-1 11.8-4.5 4.6-9.5 3.3-14.8 1.8l-.6-.1a406.4 406.4 0 0 1-137-68.3c-6-4.4-10.8-10.3-15.5-16.1l-.3-.4c-2.5-3-3-7.8.5-10.4 3.3-2.5 5.8-.5 8.7 1.8l1 .9a145.5 145.5 0 0 0 76.3 31.7c13.4 1.4 26.6.9 40 .4 7.4-.3 14.8-.6 22.3-.5 10.2 0 18.7-4.7 26.7-9.2l2.8-1.6c27.8-15.5 54.3-32.8 72.2-60.7 16.1-25 25.9-52.2 31.6-80.9 7.2-36.1 6.6-72.7 6-109.8-.3-12-.5-24.2-.5-36.4ZM50.6 190.8c21.9-1.7 34 11.2 44.3 26.3a140.4 140.4 0 0 1 22.4 61.5c.5 3.7 1 7.6-1.2 11.3-4.5.6-4.9-3-5-5.6-.5-20.7-9.7-38.7-18.9-56.1-6.6-12.5-16.2-24.6-31.4-27.6-17.2-3.5-33 12-40.8 32.2-14.5 37.6-12 74.6 1.4 111 5.8 15.9 13.1 32.1 27.8 43.2 14.8 11.3 32.7 9.3 43.6-5.7l2-2.5c2-2.6 4-5.1 5-8 2.1-5.8 5.4-11.2 11.3-10.4 6.8 1 8 8.3 8.7 14a3661 3661 0 0 0 22 156.7l5.9 38.8c2.6 17.1 5.6 41.7 3.6 52.1a28 28 0 0 0-.3 2.2c-.4 2.8-.6 5-4.2 5.5-4.9.8-7-2-7.7-6.4-2.3-17-3-23.6-4-49.6-.9-25.2-5.6-50-10.4-74.9l-5-27c-5.2-30.8-10.3-62-10.8-97l-2 3c-7.6 11.3-13.7 20.5-24.5 24a40.5 40.5 0 0 1-46.1-12.5 127.8 127.8 0 0 1-28.8-55.8c-8.4-34-9.9-67.1.9-100.6 5.2-16.1 23.7-44.7 42.2-42Zm34.6 127.5c4.4 3.2 8.4 6 12-5.4-1.1-42.2-14.7-69.2-35.8-70.3 11.2 14.6 22 28.8 23 48.5a32.3 32.3 0 0 1-10.7-8.8c-2-2.2-4-4.4-6.5-6l-3-2.4c-4.8-3.6-9.7-7.4-17.8-4.5 3.8 5.8 9 10 14.3 14 6 4.7 12 9.3 15.6 16.5-10.6 7.7-15.2 17.7-9.7 29.9 4.8 10.5 11.9 19.2 25.9 19.8-.6-6.3-4.7-10.9-8.8-15.4-5-5.4-9.7-10.6-7.5-18.6 3.2-1.5 6.2.7 9 2.7Z" fill="#000"/></g><g transform="translate(178 1057)"><path d="M1313.4 698 9.7 694.7S43.1 485 106 365.7c17-32.3 81-128.7 141.8-189.6 40.8-41 87.7-56 89-62 2.2-9.7-11-41.4-8.8-48.5 8.1-25.5 9.5.8 42.1-31.8 18.3-18.2 1.4-29.6 21.6-43.2 29.8-20 60-8.7 87-7.6 18 .7 12.4 50.3 27.3 62.5 40.3 32.9 91.8 54 128 63.6 46.1 12 61.6-2.6 85.4-12.3 23.8-9.6 38.5 12.2 68.9-33.2 14.2-21.2-11-42.6 8.2-54C826.6-8.3 872.2-7.7 891.1 2c28.9 14.8 16.3 41.6 16.3 41.6s35.7 11.6 43 22c7.2 10 5 44 5 44s-2.8-13.7 63.4 23.5c84.2 47.4 179.2 187.2 223 296 46.6 115.8 71.6 269 71.6 269Z" fill="#fff"/><path d="M710.4 698a41.5 41.5 0 0 1-3.3-13.8c0-9.2-3.2-14.3-13.5-13.7-6.4.4-13-3.3-13-9.6-.2-8.2 7.8-6 12.7-5.7 9.3.7 12.2-4.1 12.4-12.1 0-4.6-.8-11 5.6-10.8 5.4 0 11.2 4 11.4 10 .4 9.8 4.5 14 14.1 13.6 8.7-.3 8.8 6 8.9 12.2-2.3 3.5-5.8 3.8-9.1 3.8-9 0-13.8 4-12.9 13 .7 6.6-3.7 9-8.5 12.5-1.6.5-3.2.7-4.8.6ZM472.4 698c-1.4-4.5-2-9.3-1.9-14 .8-10-3.1-14.5-13.3-13-4.7.7-8.2-1.6-11.2-4.9-1.8-1.9-3.6-3.8-2.6-6.7 1-2.7 3.5-3.8 6.2-3.5 13.3 1.7 21.4-1.9 19.7-17.4-.3-3.3 2-7 6.4-6 5.1 1 9.3 4.3 9 9.4-.6 11.3 4 15.2 15 14.2 9.7-.9 8.8 6.6 9.4 13.4-3 1-5.4 2.4-7.7 2.3-10.9-.6-16 3.7-14 15 .9 5.3-3.7 7.2-7.7 10.5-2.4.6-4.8.8-7.3.7ZM948.4 698c-1.8-3.2-3.7-6.5-3.7-9.7 0-11.6-1.8-20.2-17-17.6a9.5 9.5 0 0 1-10.6-9c0-6.9 6.4-5.8 10.8-5.6 10.1.6 15.3-3.2 14.6-14-.3-3.6 1.2-7.2 4-9.6 7.6 2 14.2 4.8 14.5 14.3.1 6.4 3.1 9.5 9.5 9.2 9-.6 12.4 3.8 11.4 12.3-2.5 3.2-6.2 2.5-9.5 2.9-7.3.8-12.3 3.5-11.1 12 1 6.4-2 10.4-8 14a11 11 0 0 1-4.9.8ZM236.9 698a27.7 27.7 0 0 1-3.3-11.2c-.2-11-3-17.7-16.3-16.2-5.2.6-11.6-3.5-11.3-9.8.3-6.5 7-4.6 11.3-4.8 12.7-.6 12.7-.5 16.3-21.8 7.7-2.3 12.6 1.2 13.1 8.7.7 10 5.4 13.7 14.7 13 6.7-.6 10.8 1.9 11 9 .2 8.2-6.5 7.3-11 6.7-10.5-1.5-12.5 3.9-11.8 12.5.4 4.9-.1 9.4-5.4 13.1-2.4.7-4.9 1-7.3.8ZM1186.3 698c-1.7-2.8-3.7-5.6-3.5-8.3.6-13-2.4-21.2-18-19.8-4.4.5-10.8-3.4-10.4-9.3.5-6.9 7.2-4.8 11.3-4.4 11 1.2 16-2.7 14.8-14a8.8 8.8 0 0 1 4.5-9.3c6 1.5 12 3.9 11.6 12-.3 8 3 11.8 11.2 11.3 4-.2 8 .4 8.1 5.8.2 5.7-2.7 8.9-8.5 8.6-8.5-.4-11.4 4.1-10.7 11.8.5 6.3-3.2 10.3-8 14.9-.5.7-1.8.7-2.4.7ZM611.4 540.8c3.4.4 6.7-.1 8.2 1.3 3.4 3.3 11.5 2.6 10.3 9.4-1 6.3-7.7 6.2-12.6 6-15-.5-14.2 11-15.4 21.5-8.3-.8-15.2-2-15.9-11.5-.6-7.4-5.5-9.2-11.4-9.2-7.5-.1-10.7-4-11-11-.2-7.6 5.5-7.7 10.5-7.9 7.8-.3 10.6-4.3 9.5-11.6-1.3-9.4 5-12.5 12-12.6 8-.1 6.6 7.2 7.2 12.4.6 5.5-1.7 12.7 8.6 13.2ZM821.6 521.5c3.9-4.9 9-5 13.3-6.4 1.2.9 2.3 1.2 2.5 1.9a55.4 55.4 0 0 0 22.3 26.3c3 1.9 7.4 2.7 8 7.8-2.7 7-9.3 6-15 6.3-7.5.4-12.3 2.3-10.8 11.4.7 4 .7 10-5 9.9-5.5 0-12.7-1.6-12.8-9.3-.2-9-4.2-11.7-12.6-11.6-10.7.2-9.9-8-10.7-16.4 11.6-1.5 24.7-1.8 20.8-19.9ZM1059.2 533c.1-3.5.3-6 .2-8.6-.5-7.4 5.7-8 10.2-8.9 6-1.1 6.5 4.2 6.7 8.5.5 10 1.3 18.6 15.6 17 5.2-.7 12.4 4 12.5 10 .1 6.1-7.1 6.1-12 6.3-8.6.2-13.8 3.2-13.7 12.7.1 4.2-.6 9.7-6.2 9.2-5.3-.5-11.9-2.6-12.2-9.2-.4-9.4-4.8-12-13.5-12.6-8.2-.5-8.2-8-9.1-13.4 5.8-8 18.8 2.9 21.5-11ZM1094 200.6c-2.4 2-4.8 1.9-7.2 1.6-6.6-.7-9.6 2-8.3 8.4 1 4.7-1 7.1-5.6 7.8-5.5 1-5.8-3.2-5.8-6.5.1-6.9-1.6-11-10-9.9-4 .6-8.4-1.9-9-5.6-.7-5 4.4-5.1 8.1-5.8 5-.8 9.2-2.1 9.4-8.2 0-2.8.9-6.5 4.8-6 3.6.6 7.9 1.9 7.7 6.8-.2 5.7 2.3 7.4 8 7.1 6.8-.4 8.2 4.4 8 10.3ZM953.5 221c-10.6 2.8-8.7-5.2-9.4-9.8-1.3-8.9-3.3-15.4-14.7-14.5-5.4.4-12-3-12.6-8.6-.7-7.7 7-7 12.2-7.7 7.6-1 12.8-4 13.4-12.5.2-4.2.8-10 6.4-9.1 5.1.7 12 2.5 12 9.5-.1 9 3.6 11.5 12.2 11.6 9.1.1 9.5 7.7 9.9 15.3-2.3.7-4.3 1.9-6.2 1.8-10.8-.7-17.6 2.2-15.5 14.9.8 5-1.7 8-7.7 9.1ZM1283.8 554.4c3.1 6.4-.4 9.7-4.9 9.6-15.5-.5-25.6 3.9-20.6 22.4-10.2.3-16-3.3-16.7-10.9-.8-8.3-4.9-11.3-12.1-11.5-10-.3-10.6-6.3-9.5-13.7 2.8-2.8 6.3-3 9.7-3.1 7.2-.2 10-4.2 9-10.8-1.5-10.4 6.1-13.2 13-13.1 7.8 0 6.1 8 6 13-.2 8.3 2 13.4 11.5 12.3 5.5-.6 9.8 2 14.6 5.8ZM381 540.8c2.9 1.3 5.7 3 8.3 4.8 6.4 5 4 8.5-2 11-2.5.8-5 1.2-7.6 1-11.6-1-16.8 3.7-14.6 15.6.3 1.5-.5 3.2-.8 5.4-8.7.3-14.3-2.7-15.4-11.5-.8-7-5-9.4-11.4-9-7.8.4-10.4-3.9-10.7-11-.4-8 5.3-7.7 10.3-7.7 8.5 0 11.6-4 10.5-12-1-8.3 3.8-12 11-12.4 8.2-.4 6.4 6.9 6 11.3-1.2 12.1 3.8 16.6 16.3 14.5ZM90.2 409.2c-2.4-13 7.3-11.7 12.9-14.1 3.4 1.2 4.1 3.3 4.3 5.4 1.2 12.4 3.2 23.4 20.3 21.2 3.5-.5 8.6 3 8.2 8.2-.5 5.3-5.3 6.7-9.5 6.6-11.3-.3-18.1 3.3-17 16 .3 3.2-1.4 6.3-5.1 6-5.6-.3-11-3.7-11.1-8.7-.5-11-6.8-13.5-15.7-14.3-5.6-.5-6.4-4.8-6.7-9.2-.5-5.4 3.5-6.2 7.4-6.7 6-.7 12.5-.4 12-10.4ZM550.4 294c-.5-10.2 7-11.6 13-11.5 7 0 6 7.2 5.9 12-.4 8.7 1.9 14.1 12 13.1 4-.4 7.2 2.2 10.6 3.9 2.8 1.3 5.4 3 5 6.6a6 6 0 0 1-6.4 5.3c-15.3-.7-25.5 3.8-20.8 22.2-9.4 0-15.4-2.7-16.5-9.7-1.4-8.6-5.7-12-13.6-12-6.8 0-9-4-9.2-9.7-.1-6.5 4.6-7.7 9.6-7.4 8.8.6 13.2-2.3 10.4-12.8ZM1045.4 303.2c9.9.8 15.2-2.3 14-12.1-1-7.6 3.7-11.6 10-12.1 8.4-.7 6.8 6.8 7 11.9.2 8.8 3.5 13.9 13 12.7 4.3-.5 7.2 1.7 10.2 4 2.4 1.9 5.5 3.2 4.8 6.9-.9 4-4.4 5.4-7.8 5.2-12-1-20 2-18.4 16.4.3 3-1.8 6.3-5.3 5.9-5.6-.7-11.9-3-12.3-9-.8-9.9-5.4-13.4-14.6-13.3-5.5.1-6.4-4.6-7.5-8.8-1.3-5.1 1.5-6.9 7-7.7ZM92 555.3c-5.2-10.6-1.7-15.5 8.7-15.5 9 0 12.1-3.5 9.6-12.7s5.7-10.7 11.5-11.7c6.7-1.2 7.2 5.2 7 9.6-.5 10.6 2 17.1 14.6 16.7 4.4-.2 10.6 3 10.7 9 .1 7.4-6.7 6.3-11.5 7-10.7 1.3-10.8 1.2-14.5 20.8-6.3 2.2-13.7-1.6-13.7-5.4-.2-15.7-11.9-14.7-22.3-17.8ZM872.2 273.3c3.8-4.7 8.5-5.1 14-6.2.7.9 1.3 1.8 1.8 2.9 6.2 16.7 6.3 16.5 21.2 24.5 3.4 1.8 9.2 3 8 8.5-1.1 6-6.7 5.7-11.4 5.6-8.2-.1-15.9-.2-14.6 11.7.4 4 1.3 9.8-4.6 10.2-5 .3-11.4-2.4-11.9-7.7-1-11.2-7.3-14-17-14.5-5.5-.2-6-5.3-6.5-9.6-.5-5 3-7.2 7.2-6.7 15.3 2 13.7-8.3 13.8-18.7ZM939 415.5c5.5-6.1.5-15.5 8.9-20.4 6.3 3 14 4.9 13.4 15-.4 7.2 4.9 8.3 10.4 8 7.1-.5 10.3 3.6 10.8 9.8.6 8-6 6.9-10.7 6.9-7.5 0-11.5 3.1-10.4 10.7 1.4 10.2-5.3 11.9-12.3 13.5a10.2 10.2 0 0 1-4.5-8c-1-10.5-3-19.1-17.3-17.6-4.3.4-10.4-3.8-10-9.6.3-6.2 6.4-5.2 11-5.8a64 64 0 0 0 10.6-2.5ZM415.2 216c-6.9-.7-12.4-3.8-12.3-9.7.1-7.3 7.5-6.7 12.7-7.5 6.8-1 12.5-2.6 12.3-11.4-.1-4 .2-9.4 6.1-9.2 5.2.2 10.6 2.3 10.2 9-.4 8.7 4.4 11.2 11.7 11 10.4 0 12.7 6.4 12.7 15-6.3 6.5-15.3-.2-21.6 4.5-2.6 4.3-.3 8.5 0 12.6.5 7-4.2 8.7-9.4 9.7-7 1.3-7.7-4.1-7.6-8.8.2-9.7-1.3-17.3-14.8-15.1ZM710.2 395.5c8.1 2.3 13.8 5.7 13.2 15-.4 7.3 5.4 7.8 10.8 7.5 7.4-.4 11.6 3.3 11.7 10.3.2 8-6.6 6.5-11.3 6.5-8 0-12.2 3-11.2 11.4 1.3 9.4-4.5 11.6-11.6 12.3a7 7 0 0 1-4-6.6c-.5-10.9-2.8-19.1-16.9-18.2-4.5.3-10.6-3.8-10.6-9.3 0-7.1 6.7-6.6 11.7-6.3 9.9.6 14.2-3.7 13.6-13.6-.3-3.4.2-6.9 4.6-9ZM491 435.8c-3.2 2-4.2 4.5-3.6 7 2.2 10.3-2.6 15-12.2 16.3-.8-.4-2-.6-2.2-1.2a66.4 66.4 0 0 0-22.9-25.6c-3-2-7.1-3.8-6.7-8.5a5.6 5.6 0 0 1 6.1-5.3c15 2 20.7-5.3 20.9-19.1 0-1 1.4-2 2.3-3.2 7.2.6 12.4 3.3 12.3 11.4-.1 7.2 4 10.2 10.3 10.1 8-.1 14.1 2.6 13.5 11.1-.7 9-9.1 4.9-14.3 6.2-.8.3-1.6.3-3.4.8ZM267.3 434.4c-11.7-.4-19.5 1.5-17.8 15.3 1.1 8.4-5.7 9-11.6 9.7-4.1-3.2-4.1-7.8-4.4-11.9-.6-9.2-4-14-14.3-13.4-6 .2-12.5-3.7-12.6-10.1 0-7 7.2-6 12-6 7.8 0 12-2.8 12.5-11 .2-4.4-.3-10.8 6.4-10.5 5.2.2 9.7 4 9.4 10.1-.5 10.3 5.4 12.1 13.9 11.5 4.4-.3 8.6.4 10.3 5.5 1.4 4.2 3 8.4-3.8 10.8ZM346.7 323.6c-3.7-3.5-7.7-3.6-11.5-3.6-7.1 0-8-5-8.3-10.4-.4-6.3 4.1-6.9 8.5-6.7 9 .5 13.8-2.6 12.3-12.5-1.2-8 4.8-11 10.6-11.5 8.2-1 6.6 6.5 6.3 11-.7 11 1.6 17.1 14.9 14.5 5.9-1.2 12.6 3.1 12.8 9.6.3 7.2-7 5.7-11.8 6-12.2.6-12.2.5-17.4 22-11.4-.3-14.3-8.4-16.4-18.4ZM1210.6 434.8c-8.9-.4-14.6 1.6-13.8 11.2.5 7.3-4.2 10.5-10.3 12.8-1-.7-2.8-1.4-2.8-2.2-1.1-13.5-4.2-24.6-21.6-24.2-3.2 0-9.5-3.8-7.9-9.8 1.4-5 6.7-4.9 10.8-4.5 9.8.7 15.8-1.9 14.7-13.2-.4-3.9.3-8.7 5.2-8.6 5.2 0 11.2 2.8 11.2 8.2.2 11 5.2 14.3 15 13.7 6.4-.4 7.6 4.4 8.4 9.2 1 6.2-3.5 6.8-9 7.4ZM270 185.2c3.7 8.8.7 12.5-7.4 11.9-9.8-.7-14.2 3.3-13 13.3 1.1 9.4-5.1 11.2-14 12-1.5-13.8-10.7-28.7 2.6-40 8.8-7.6 21.2-3.7 31.9 2.8ZM15.8 662.3c2.6-7.6 8.2-6.6 12.8-5.5 5.9 1.4 5.2 6.7 4.7 12-7 1.7-14.4 6-17.5-6.5ZM154.2 314c-3.2 8-8.5 5.7-13.5 5-2-5.7.4-8.8 4.7-10.2 3.8-1.3 7.4-.5 8.8 5.2Z" fill="#000"/><path d="M1307 698c-9.4-38.5-16.9-77.2-25.6-115.7-6.3-27.8-14-55-22.4-82.1-9.5-30.7-19.5-61.1-33-90.5-9.6-20.7-19.4-41.1-29.5-61.5a673 673 0 0 0-57.7-92.4 470.2 470.2 0 0 0-60.5-70 342.9 342.9 0 0 0-83-57.4c-3-1.5-6.6-2.3-9.2-4.3-17-12.7-33.7-6.3-44.8 12.9-30.8 53.2-78.6 77.6-137.2 85.4a19 19 0 0 1-6.4 0c-5.6-1.2-13.6-1.2-13-9.1.7-6.9 8-4.5 12.7-5.1 43.7-5.8 84-19.6 113.4-54.3 12.4-14.8 21.6-32.4 31.3-49.3 10.2-17.9 2.4-45-23.7-50.5-11.8-2.5-19.5-6.3-16.2-21.4 2-9.6-4.8-18.9-13.2-23-10.4-5-21.7-9.1-34.5-5.6-11.7 3.3-24.2 4.1-36.3 6-7.1 1-12.2 5.8-18 9.4-4.4 2.8-4.4 6.4-2.5 11 7 17.4 1 39.8-13.9 51-14.7 11.2-30.4 20.2-50 18.4-4.9-.5-8.9 1.2-12.8 4.4-14 11.8-30.4 14.5-48.7 14.3-38.8-.4-74.2-12.6-109.2-27.3-7.8-3.3-13.6-12.5-26.5-7.5 27 34.9 67 48.4 105.6 67.6a26 26 0 0 1-24.8 3c-51.4-17.5-91.9-47.6-117.2-97-8.4-16.5-14.9-33-18.1-51-2.3-12.6-5.7-13.8-17.6-8.4-13.2 6-24.9 14.3-35.7 23.6-12.5 10.8-20 24-18.1 41.5 1 8.4 0 17 .2 25.6a47.3 47.3 0 0 0 35.2 46 37 37 0 0 1 18.4 10.8c-14.6 6.6-40.5-1.2-53-15.9C377.8 90 391.1 21 437.3-3.2l5-2.8a39.9 39.9 0 0 0-54 19A80.5 80.5 0 0 1 349 56c-15.3 7.7-19.8 28.7-7.8 39.4 23.4 20.8 43 45.8 69.9 62.6 15.4 9.6 30.1 21 46.7 28 15.8 6.5 33.6 8.4 50.6 11.8 5 1 10.2.8 13.3 5.6.3 3.4-1.7 5.6-4.4 5.5-32.1-1.5-63.4-4.4-92-23a437.5 437.5 0 0 1-69-54.1c-11-11-23.1-6.1-34 0-39 22-72.5 50.9-102.9 83.7a615.2 615.2 0 0 0-87.4 123 870.6 870.6 0 0 0-50.5 108A1198.4 1198.4 0 0 0 47 548.6a558.2 558.2 0 0 0-20.6 102.1c-1.3 15.2-7.3 29.7-7.9 46.2-5.5 1-10.8 1-17.1 1 4.6-32.9 9.9-66 16.2-98.8 3.7-19.1 9.2-37.9 13.7-56.8 5.6-23.6 13.4-46.5 21.2-69.4a831.5 831.5 0 0 1 84-179c16.9-27 36-52.4 57-76 36.7-41.1 76.3-78 126-103 6.4-3.3 9.3-7 4.1-15.1C314.4 85 317.8 54 339 44.4c16.6-7.6 26.6-22 34.3-37.8a56.1 56.1 0 0 1 51.4-33.3c19.6-.5 39.2-.7 58.8-1 9 0 14.1 1.6 10.1 12.7C491.1-8 492-.5 499 4.5a8.7 8.7 0 0 1 4 6.1c4.4 31 27.1 45.6 52.1 57.7 19.8 9.6 39.6 20.3 60.5 26.3 21.8 6.3 44.5 12.1 67.7 10.5a46 46 0 0 0 26.9-10.8c6.3-5.4 14.2-4.9 21.6-6.4 17-3.4 32.5-9.8 45-22 11.2-11.2 12-22 3.3-35.3-7.8-12-3.3-34 8.5-40.9 3.5-2 8.7-2.8 9.8 1.6 3 11.4 9.8 6.6 15.9 4.8a159 159 0 0 1 55.3-8.2A58 58 0 0 1 906 3.5c7.8 6.9 9.7 15.6 9.8 25.3 0 7.6 2.4 11.9 11 13.9 24.7 5.7 33.8 17.7 34.2 43.1 0 5.3 1.4 8.3 6.3 11 34.6 18.7 70.4 35.4 101.6 60 29.3 23 53 51.1 75.5 80.4A719.4 719.4 0 0 1 1245 414c18.2 46.5 33.7 94 46.4 142.4 12 46 16 93.5 27.1 140.6-3.2.9-6.7.9-11.4.9Z" fill="#000"/><path d="M1122.7 698c-9.3-36.4-12.3-73.8-22.2-110-7.8-28.4-14-57.4-24.2-85-7.2-19.4-14-39-23.5-57.7-12.7-25-23.3-51.2-34.7-77-1.4-3-2.8-6.3 1.4-8.8 4.4-2.7 7.6-.6 9.9 2.7 5 7.3 10.2 14.6 14.2 22.5 16 31.2 32 62.7 43 96 7.5 22.8 15.6 45.5 21.2 69 3.9 16.5 8.2 33 12 49.4 7 32.2 11.9 65 14.5 97.9-3.4 1-7 1-11.6 1ZM219 698a451 451 0 0 1 4.4-86.5c3.7-29 4.4-58.3 11-87 3.9-17 9-33.6 13-50.4 7.4-32.1 18.1-63.5 34.6-92.4 2.4-4 4.8-8 7.4-12 2.3-3.3 4.1-8.7 9.5-6.2 5.7 2.8 3.2 8.2 1.8 12.5a320 320 0 0 1-10 26c-18 40-33 81.2-40.6 124-7.3 42-15.8 84.3-14 127.6.7 14-1.6 28-2.6 43.2-4.5 1.2-9 1.2-14.4 1.2ZM629.3 367.8c-1.5-9.8 2.8-16.7 6.6-23.8 11.4-21.4 8.4-30-11.6-42.7-17.7-11.3-35.3-23-44.2-44-5.8-14-4.4-28.3-6.2-42.4-1-7.2 2.4-16 12.3-16.7 9.4-.6 20.9-3.5 25.6 8.4 3.4 8.6 2.1 17-6.2 24-15 12.8-13.9 19.7 3.7 29.1 13.8 7.4 28.5 13.3 40.5 23.9 23.8 21 26 56 4.5 79.2-6.8 7.3-7.8 15.3-6 24.6.9 4.3 2.7 10.2-3.1 12.3-5.3 2-6.5-4-9.2-7-6.3-6.8-7.1-15-6.7-24.9ZM804.3 405.5c1.2 3.4 4.6 5.2 3 8.6-20.6.3-34.9-24.4-26-44 5-11.2 13.4-20.6 15.8-33.3 3-16.5 0-25.2-15-32.3-27-12.9-39.8-33-35.3-63.4 1.4-9.3 1.4-17.6-11.8-20.7-9-2.2-11.2-12.2-9.2-21 2-8.5 8.8-13.9 17-12.5 7.6 1.2 17.4 3.4 16.7 15.3-.2 3-.4 6.1 2 8.4 11 11 8.6 24.1 6 37.1-2.2 11.1 0 20.3 9.8 26.8 6.4 4.2 12.5 8.9 19.2 12.6a49 49 0 0 1 13 78.4c-14.3 16-15.7 25.7-5.2 40ZM851 92c16.8-7 17.8-16.8 17.5-33.6 0-5-2.4-10 .8-14.8 11.1 2.3 17.6 16.3 14 29.9a48 48 0 0 1-48.7 35.4 41.9 41.9 0 0 0-31.2 13c-7.7 7-16.5 10.5-27 4.4 18.8-9.4 31.1-30.8 55.7-28.2 6.8.7 12-3.5 18.8-6Z" fill="#000"/></g><g transform="translate(266 207)"><path d="M395.3 584.5c-15.6 22-15.7-16.2-23.7-50.6-8.4-36-18.1-44.8-38.3-44.8-20 0-43 8.6-49.8 23.4-6.8 14.8-24.1-12.1-16.7-44 7.5-31.7 36.6-95.8 52.8-112.1 16.2-16.3 21.2-31 36.6-1.3 15.4 29.7 39.5 30.6 63.6 44.4 24.1 13.8 33.7 11.3 29 34.3-4.5 23-21 52.5-31 72.6-10 20-16.8 70-22.5 78.1Z" fill="#fff"/><path fill-rule="evenodd" clip-rule="evenodd" d="M649.2 119a351.5 351.5 0 0 0 47.5-45.2 34.2 34.2 0 0 1 27-13.8c48.4-.7 85.8 28.2 94.7 82.2.2 1.6.6 3.3 1 4.9.7 3 1.5 6 1.4 8.9-.2 8.4 3 13.7 10.1 18.6 22.7 15.7 23.5 39.2 20.8 63.6l-.3 2.6c-.3 3.6-.6 7.5-2.5 9.6-11.1 12.2-4.9 20 3.8 30.6a77.4 77.4 0 0 1 16.8 46c1.1 30.6.9 61-6.2 91.5-2 8.4-4.2 16.9-6.5 25.3-2.9 10.7-5.8 21.5-8 32.4-2 9.7-9.4 16.5-16.8 22.6-5.3-3.6-4.7-8.2-3.8-12.2 5.8-27-.3-52.3-10-77-3.3-8.5-6-17.1-5.8-26a43.8 43.8 0 0 0-18.2-36.8 23.7 23.7 0 0 1-6.5-7c-8.4-16.9-20.4-15.3-35.5-10.1-20 6.9-40.2 3.3-60.3-.4l-13.6-2.3c-29-4.4-57-1.3-84.8 8.5-24.7 8.7-48 21-69 36.7a296 296 0 0 0-81.2 92.6c-15.9 27.7-25 57.8-34 87.9l-4.7 15.2c-1 3-1 6.3-1 9.6v4.4c-.4 6-2.4 10.8-9.2 11.8-6.7 1.1-11.6-1.2-14.7-7.3-1.6-3.2-2.2-6.6-2.8-10l-.6-3.5-2-10.7c-3.6-20-7.2-40.2-23.4-54.5-24.4-21.6-47.6-15.7-64.3 10.5-9.7 15.2-16 32.8-11.7 52.1.9 4-.2 8.4-5.5 11.4a93 93 0 0 1-6.7-35.7c-1.4-37.8-2-76 10-112.3a273.4 273.4 0 0 1 75-114.6c33.1-31 69.9-57.3 109.1-79.8 28-16 56.9-30.7 85.7-45.4l2.5-1.3a370.2 370.2 0 0 0 52-34.2c8-6 16.1-12 24.5-17.8 7.2-4.9 14-10.4 21-16.2l6.7-5.4ZM423 456.3c1 6 2.2 11.8 3.2 17.4 10.3-9.5 16.2-20.2 13.7-33.9a36.7 36.7 0 0 0-21.2-28.4c13.4 9.5 14.3 23 13.1 37.4-.5 6-2.2 9-8.5 4.3 3.2-23-5.5-32.8-27.9-36-19.8-2.8-40.2-5.8-54.2-23.6-7.8-9.8-10.4-21.4-13.1-33.8l-1-4.1c-4.4 4.1-5.5 8-5.2 12.4 1.3 16.4 17 47.1 42 50.2 25.3 3.2 49 9.2 59.1 38.1Zm-108.8-35.6 2.5 4.2a62.2 62.2 0 0 0 40.3 20.4c26 4 35.5 13 39.1 43.4-9.2-17.9-21.6-27-36.7-32.2-4.5-1.5-9-2.7-13.6-3.9a173 173 0 0 1-14.2-4.2c-19.5-6.9-28.7-22.8-33.5-40.3-2.3-8.5 3.1-16 8.6-23.6 1.7-2.4 3.4-4.7 4.9-7.1a53 53 0 0 1 8.3 15.2c1.9 4.6 3.7 9 6.8 12.9 11 13.8 24.7 19.6 41.8 22.9 24.4 4.6 39.5 8 44.8 41 3.2 19.9 3.6 37-7.6 56.7a98.6 98.6 0 0 0-10.4-31.8c11.2 2 11-3.3 10.6-11a48.3 48.3 0 0 0-31.3-45.3c-3.8-1.7-7.7-1.8-11.7-1.9-3.2 0-6.4 0-9.6-1-16.5-4.8-30.1-13.1-37.8-29.2-1.6-3.3-3.7-6.9-7.5-4.8-4.5 2.4-2.4 5.7-.4 8.7l.6 1 6 9.9Zm74.7 155 .6 1 2.1 3.2c10.9-24 11.3-31.3 3.9-53.3-.5-1.4-.6-3-.8-4.5-.1-1-.2-2-.5-3-5.8-27.6-16.3-50-48.3-56.2-24.5-4.8-47.4-14.7-53.2-43.7-7.2 2.2-7 7.2-6.3 11.7 2.7 15 22 31.2 38 33.7 12.7 2 26.2 4.2 36.6 11.8 15.9 11.6 21.8 29 27.6 46.5 2.2 6.3 4.3 12.6 7 18.7.9 2.1-.6 5-4 5.3-2 .2-3-1.4-3.8-3-.8-1.7-1.7-3.4-4-3.6l.5 3.6 4.6 31.7Zm-76.5-98.1c-1.9-1-3.7-1.9-5.6-2.6-20.1-4.5-31-19.1-26.3-35.4 8.4 23 25.6 30.9 47.2 35 20 3.9 39.5 11.4 46.6 34.3l1.9 6c.1.8-.1 1.6-.3 2.5l-.3 1.3c-4-.3-5.4-2.8-6.8-5.5l-1.1-1.8c-10.2-16-20.7-31-43.2-30-4 .2-8-1.8-12-3.8ZM299.8 492l14.2-3.8-6.6-1.9c-11.6-3.2-22.8-6.3-30-18-4.7 6.8-3.2 11.1 2.7 14.3 6 3.1 12 6 19.7 9.4Zm-7.8 5.6c-9.2 6-14 4.6-17.5-5.3 7-1.3 11.7 1.7 16.4 4.6l1 .7Z" fill="#000"/></g><g transform="translate(791 871)"><path d="M197.7 98.9c-6-3.3-11.2-6-16.2-8.9a25 25 0 0 0-24-2 158.4 158.4 0 0 1-49 12.9c-12.6.8-25.3-8.2-25.7-18.7-.2-3-.8-6.2 3-7.4 2.8-1 5.2-.8 8 1.7 15.6 14.3 17.8 14.5 36.2 4.6 7.1-3.7 14-7.5 22-9.8 16.9-4.9 31.4-2 44.3 10 4.6 4.2 9.9 6.4 16.2 2.5 2.9-1.8 6.8-2.9 9.2.5 3 4.2-.7 7-3.4 9.7-5.5 5.6-11.2 10.7-20.6 4.9Z" fill="#000"/></g><g transform="translate(653 805)"></g><g transform="translate(901 668)"><path d="M71.5 185c5-15.6-6-26.3-10.4-38.5-8.6-23.7-16.2-47.4-15-73 .2-4.6-.7-10.7 6-10.6 5.1.2 7.9 5.2 8 10 1.6 35.5 14.5 67.7 29 99.3 2.7 6 2.1 11.1-1.1 16.9-8.5 15.1-22.3 20-38.2 20.5-8.7.3-15-4.5-18.2-15.2 14-1.8 29.4 4.8 39.9-9.4Z" fill="#000"/></g><g transform="translate(610 680)"><path d="M409.2 75.7c13.1.3 25.4 1 37.7 2.5 3 .3 4.9 3.3 5 6.6 0 3.4-1.8 5.7-4.8 7-11.1 4.9-22 8.3-33.7.2-6.5-4.4-8.9-8.6-4.2-16.3ZM254.7 78.4c6.2 3.3 5.2 7 2.1 10.8-6.5 8-28.2 10-36.4 3.5-4.7-3.8-7.3-8.6-4.4-14.4 3-6 8.2-5 13-2.5 8 4 16.4 3 25.7 2.6Z" fill="#000"/></g><g transform="translate(610 680)"></g><g transform="translate(774 657)"><path d="M57.5 41.8C51.3 41.3 46 41 41 41c-5.7-.2-8.5-3.4-9-8.8-.5-5.3 3-7 7.5-8.5 8.6-3 17.1-.5 25.2.7 15.4 2.1 31.5-.6 46.4 6.3 5 2.3 8.3 4.7 6.4 10.3-1.8 5.2-6.1 5.2-10.6 4.1-16-3.7-32.4.9-49.4-3.3ZM251.8 32c17.2.9 33.1-5 49.3-1.2 4 1 9 .7 8.8 7 0 6.2-4.7 7.4-9.5 8-19 2.2-38 4-56.9 6.4-5.7.7-11 .1-12.6-5.6-1.7-5.7 4-7.8 8-10 3.5-2.1 7.8-3.1 12.9-4.7Z" fill="#000"/></g><g transform="translate(0 559)"><path d="m1724 1191.5-235.9 2.6s-64.3-75.3-31.2-274.1c4.8-28.8-15.4-210.2-16-224-1.9-36.3-15-106-32.4-133.5-78-124-65.6-142.6-69.3-170.7-3.9-29.7-10.5-81.2-15.3-101-2.2-9.2-18.2-74.1-.3-76 85.2-9.2 56.6 151.8 89.4 138.7 50.2-20 64-83.6 64-83.6s75.1-171.2 109.4-171.2c14 0-7.3 88.5-7.3 88.5s77.8-91.2 94.5-90.2c16.7 1-12.2 70.5-12.2 70.5s36.5-28.2 49.8-18c17.6 13.6-76 151.2-62.2 152 10.5.5 30.8-34 44-39.8 22-10 29.9-11.8 30.7 8.3 1 21.3-47.7 85.6-70.3 121.8-11.7 18.7-80.9 127.4-96 157.3-19.2 37.7 18.5 101 33.8 131.5 15.2 30.5 74.1 207.2 94.9 239.3 20.7 32.2 40.8 83.9 47.7 138.7 7.5 60.7-9.7 132.9-9.7 132.9Z" fill="#fff"/><path fill-rule="evenodd" clip-rule="evenodd" d="M1429.3 663a867 867 0 0 0 3 22l-3-27.6c-3.5-31.3-7-62.1 8.3 70.8 1.2 10.1 2 20.3 3 30.5 3.3 40.3 4.2 80.7 5 121.1.2 4.6 1.2 9.3 2.2 13.9a47.1 47.1 0 0 1 1.7 18.7c-2 10.7-3.1 21.5-4.2 32.3-1.5 15.8-3 31.6-7.8 47-2.2 7-2.4 14.1-2.4 21.4.1 41.7 4 82.8 17.2 122.8 7 21.2 15.6 41 30.9 58.2h11.7c-3.2-10.7-8.5-20.3-13.7-30-3.7-6.6-7.3-13.2-10.3-20.2-8.1-19.4-13.4-40-15.6-61v-.7c-2.2-19.5-4.4-39.2-3.6-59 .6-12.4 1.8-24.3 10-35.4 2.9 9.4 5.6 18.7 8.3 28 18.1 62.7 36.1 125 79.4 177.5 5.6.8 11.3.8 16.9 0a321.4 321.4 0 0 1-64.3-119.8l-4.7-15.1c-11-36-22.2-72.3-26.7-110-1.2-9.8-2.9-19.5-4.6-29.2-2.4-14.2-5-28.4-5.7-42.7l-1.8-32.4c-3.2-58.3-6.4-116.7-13.9-174.8-5.7-45-18.6-88.8-38.2-129.7-8.4-17.4-18.1-34.2-27.8-51-7-12.2-14-24.4-20.6-36.8-1.4-2.6-3-5.1-4.5-7.7-5-7.8-10-15.8-8.9-26 4-41.1-4.1-80.8-12.3-120.5l-3.7-18.1c-3.2-16.2-6-32.7-4.8-49.4.7-10.2 6.4-13.7 14.2-8.3a114.8 114.8 0 0 1 42.4 59.8c6.4 19.3 8.4 40.7 8.8 61.7.4 15.7 11.5 22.4 26.5 18 17.9-5.5 28.7-19.2 39.5-32.8l.8-1c10-12.8 16.2-27.7 22.3-42.6 2.4-5.8 4.7-11.6 7.4-17.3a1384.4 1384.4 0 0 1 65.6-126.7c8-13.6 16.3-27.9 34-34.2l-3 17.7c-7.2 42.3-14.1 83.8-30.2 123.3l6.3 3c28.1-55.9 60.3-108.7 110.5-148.6a26 26 0 0 1 1.5 18.6c-5 22.7-16.3 42.5-27.6 62.3-4 7-8 14-11.8 21.2-5.1 9.7-11 19.1-16.8 28.5a707 707 0 0 0-11.2 18.4l-.3.6c-2.6 4.6-5.7 9.8-1.5 15.1 4.2-.4 5.7-2.9 7-5.2l.4-.5a469 469 0 0 1 30.7-46.9l7.8-10.3c12.7-16.8 25.4-33.7 42.6-46.6l2-1.5c4.6-3.6 9.5-7.4 14.6-2.8 6 5.4 4 13.5.3 20-5.1 9.3-10.4 18.5-15.7 27.7-7 12-14 24.2-20.6 36.5l-7.8 14.3a2535.2 2535.2 0 0 0-33.3 62.9c-2.2 4.2-3.7 8.7 2.9 13.4a186 186 0 0 0 32-30.2c13.4-14.8 26.9-29.8 46.1-38.3 6.1 8.5 7.7 16 .8 26.2a1436.3 1436.3 0 0 0-30.4 47c-6.6 10.7-13.3 21.3-20.2 31.8-6.2 9.5-11.6 19.5-17 29.4-7.4 13.5-14.8 27-24 39.3a682.4 682.4 0 0 0-59.4 97.2c-15.5 30.3-12.6 60.4-2.5 90 12 35.4 28 69.5 44.5 103.3a598.8 598.8 0 0 1 30.2 81.4 3786.8 3786.8 0 0 0 5 16c8.2 25.4 16.4 51 22.7 77.2l4.6 18.7a557.3 557.3 0 0 1 13.9 67c4.1 33.3 3.7 66.8 0 100.4l-1.5 13c-3.6 34-7.1 67.7-27.2 96.9h34.6c46.8-83.9 30.3-168.9 3.2-254a103.9 103.9 0 0 1 22.2 45.1 625.3 625.3 0 0 1 13.8 67.3 342 342 0 0 1-6.1 137c-.5 1-1 2.1-1 3.7 3.9.9 8 .9 11.8 0l.7-1.3a70.5 70.5 0 0 0 7.8-21c3.8-25.2 6.5-50.6 6.5-76 0-38.4-9.2-75.7-18.5-112.8-.6-2.2-1-4.6-1.5-6.9-1.1-5.5-2.2-11-5-16.2-11.3-22-22.4-44.3-33.4-66.5l-20.5-41.2a572.8 572.8 0 0 1-29.8-76.5 705.2 705.2 0 0 0-23.6-63.5 873.1 873.1 0 0 1-15.8-38.8c-6.8-17.3-13.6-34.6-21.7-51.2-12.6-25.6-15.6-50.6-6-77 8.3-23.3 22-43.5 35.7-63.7 4.6-6.8 9.2-13.5 13.6-20.4 5-7.7 10.2-15.3 15.5-23a430.3 430.3 0 0 0 24.8-38.6c11.7-21.3 24.8-41.8 37.8-62.2a1737.1 1737.1 0 0 0 21-33.3c7-11.5 14.2-23.2 12.7-37.6-1.9-18-12.2-23.2-28.5-15.5-6.9 3.3-12.8 7.8-18.8 12.4-4.5 3.4-9 6.8-13.8 9.7a45.6 45.6 0 0 0 8.9-16c1.4-3.4 2.7-7 4.6-10.1a1100 1100 0 0 0 38-70.4 26.6 26.6 0 0 0-4.7-31c-7.2-7.2-16.9-6.1-25.7-.3a38.7 38.7 0 0 1-8 3.6l-3.7 1.5a56.7 56.7 0 0 0 8.7-38c-.2-6.8-.4-13.6-7.5-17a20.7 20.7 0 0 0-22.7 2.8 318.2 318.2 0 0 0-44.7 44.3l-1.7 1.8c-3 3.5-5.9 7.2-8.7 11-4.9 6.4-9.8 13-16.2 18.3 6.6-19 9.4-38.5 12.3-57.9a101.8 101.8 0 0 1 .8-5c1-5.7 2.1-11-4.1-15-6.8-4.4-13.2-1.4-19.2 2.2-17.1 10.5-28.3 26.5-38.2 43.3a939.6 939.6 0 0 0-41 80.1c-3.5 7.6-7.3 15-11 22.5a486 486 0 0 0-22.5 50.1 108 108 0 0 1-41.1 52.6c-10 6.8-17.8 3.3-19-7.6l-1-9.3c-2.5-23.6-4.9-47-15.7-69.7-8.8-18.7-19-34.5-35.7-46-14.7-10.3-30.5-7.4-35 6.2a55.8 55.8 0 0 0-3 20c1 22.1 5.8 43.5 10.5 65a751 751 0 0 1 7 33.8c.7 4.3 1.6 8.7 2.6 13 2.9 13.8 5.8 27.5 3.3 42.3a100.1 100.1 0 0 0 0 35.5c4 20.8 14.4 38.7 24.7 56.5 6.2 10.7 12.4 21.4 17.2 32.8a522.4 522.4 0 0 0 22.5 44.5l10.4 19.4c13.5 26 17 53.5 20.5 81.1Zm269.3 396.4.1 2.4c2.2 30.8-4.6 58.3-12 85.7 5.1-20.3 6.2-41.1 7.3-62 .5-10.8 1-21.5 2.2-32.3 2.5 1.6 2.4 4 2.4 6.2Z" fill="#000"/><path d="M1511.1 397.6c-2.9 24-8.6 45.7-22.8 65.2-6-5.5-5.1-9.9-3.5-13.7 15.6-36.6 14.3-75.6 17-114l.2-6.4c0-4.1.4-8 6-7.9 5.4.1 6 4.6 6 8.2 0 14.4.5 29-1.2 43.3-.9 8-1.4 16-1.7 25.3ZM1530.8 532.9c4.8-2.8 9.2-4.3 11.6.8 1.8 3.5-1.7 5.7-4 8.3a91.9 91.9 0 0 1-28.1 23 26.3 26.3 0 0 1-24.3-.3c-3-1.4-4.5-3.8-4-7.2.5-4 3.6-4.1 6.6-4 17.3.5 30-8.5 42.2-20.6ZM1557.1 391c5.7-2 10.6-3 14.8 1-6.3 10.5-29.9 22.2-40.7 20.2 3.3-13.3 16.3-14.6 26-21.3Z" fill="#000"/></g></g>
    </g>
  </g>
  <g clip-path="url(#clip_group_4_2)">
    <g transform="translate(33.6,22.9) scale(0.0305)">
      <metadata xmlns:rdf="http://www.w3.org/1999/02/22-rdf-syntax-ns#" xmlns:xsi="http://www.w3.org/2001/XMLSchema-instance" xmlns:dc="http://purl.org/dc/elements/1.1/" xmlns:dcterms="http://purl.org/dc/terms/"><rdf:RDF><rdf:Description><dc:title>Notionists</dc:title><dc:creator>Zoish</dc:creator><dc:source xsi:type="dcterms:URI">https://heyzoish.gumroad.com/l/notionists</dc:source><dcterms:license xsi:type="dcterms:URI">https://creativecommons.org/publicdomain/zero/1.0/</dcterms:license><dc:rights>Remix of „Notionists” (https://heyzoish.gumroad.com/l/notionists) by „Zoish”, licensed under „CC0 1.0” (https://creativecommons.org/publicdomain/zero/1.0/)</dc:rights></rdf:Description></rdf:RDF></metadata><mask id="mixed4_2_viewboxMask"><rect width="1744" height="1744" rx="0" ry="0" x="0" y="0" fill="#fff" /></mask><g mask="url(#mixed4_2_viewboxMask)"><g transform="translate(531 487)"><path d="M554 727.7c-99.2 297-363.8 388.6-503.7 19.8-19.3-50.7 31-69.5 66.2-91.9 24.1-15.3 36.8-28.5 35.3-42.2-7-64.4-36.9-243.8-36.9-243.8l-3-5.8s.7-1.6-2.2 1.2c-3 3-9.9 34.2-37 34.2-24.5 0-49.2-10.9-61-86.3C7.2 285.6 9.6 214 40 201c12.5-5.3 24-7.2 35.2-.8 11.3 6.4-13-22 112-126C268.4 6.4 396.7-3.5 448.5 8 500.3 19.5 552 44.8 574.9 98.5c27.8 65-25.9 114.3-14 262.5-2.2 53.6.8 171.2-146.6 210.6-28 7.5-19.3 48.4 22.7 58.4 67 21 117 72.3 117 97.9" fill="#fff"/><path fill-rule="evenodd" clip-rule="evenodd" d="m554 266.2.1-1.4c4.1-36.4 8.2-71.7 27.1-103.4 6.5 4.4 5.7 10 3.7 15.2-19.9 51.2-18 104.4-16.2 157.6l.4 14c2.1 66.4-14.5 126.8-58.7 177.5-15.4 17.6-35.8 29.8-56.5 40.3-21.4 11-25.9 20.1-19.2 43.6l.8 2.6c1.4 3.9 2.8 7.9-1 11.8-4.5 4.6-9.5 3.3-14.8 1.8l-.6-.1a406.4 406.4 0 0 1-137-68.3c-6-4.4-10.8-10.3-15.5-16.1l-.3-.4c-2.5-3-3-7.8.5-10.4 3.3-2.5 5.8-.5 8.7 1.8l1 .9a145.5 145.5 0 0 0 76.3 31.7c13.4 1.4 26.6.9 40 .4 7.4-.3 14.8-.6 22.3-.5 10.2 0 18.7-4.7 26.7-9.2l2.8-1.6c27.8-15.5 54.3-32.8 72.2-60.7 16.1-25 25.9-52.2 31.6-80.9 7.2-36.1 6.6-72.7 6-109.8-.3-12-.5-24.2-.5-36.4ZM50.6 190.8c21.9-1.7 34 11.2 44.3 26.3a140.4 140.4 0 0 1 22.4 61.5c.5 3.7 1 7.6-1.2 11.3-4.5.6-4.9-3-5-5.6-.5-20.7-9.7-38.7-18.9-56.1-6.6-12.5-16.2-24.6-31.4-27.6-17.2-3.5-33 12-40.8 32.2-14.5 37.6-12 74.6 1.4 111 5.8 15.9 13.1 32.1 27.8 43.2 14.8 11.3 32.7 9.3 43.6-5.7l2-2.5c2-2.6 4-5.1 5-8 2.1-5.8 5.4-11.2 11.3-10.4 6.8 1 8 8.3 8.7 14a3661 3661 0 0 0 22 156.7l5.9 38.8c2.6 17.1 5.6 41.7 3.6 52.1a28 28 0 0 0-.3 2.2c-.4 2.8-.6 5-4.2 5.5-4.9.8-7-2-7.7-6.4-2.3-17-3-23.6-4-49.6-.9-25.2-5.6-50-10.4-74.9l-5-27c-5.2-30.8-10.3-62-10.8-97l-2 3c-7.6 11.3-13.7 20.5-24.5 24a40.5 40.5 0 0 1-46.1-12.5 127.8 127.8 0 0 1-28.8-55.8c-8.4-34-9.9-67.1.9-100.6 5.2-16.1 23.7-44.7 42.2-42Zm34.6 127.5c4.4 3.2 8.4 6 12-5.4-1.1-42.2-14.7-69.2-35.8-70.3 11.2 14.6 22 28.8 23 48.5a32.3 32.3 0 0 1-10.7-8.8c-2-2.2-4-4.4-6.5-6l-3-2.4c-4.8-3.6-9.7-7.4-17.8-4.5 3.8 5.8 9 10 14.3 14 6 4.7 12 9.3 15.6 16.5-10.6 7.7-15.2 17.7-9.7 29.9 4.8 10.5 11.9 19.2 25.9 19.8-.6-6.3-4.7-10.9-8.8-15.4-5-5.4-9.7-10.6-7.5-18.6 3.2-1.5 6.2.7 9 2.7Z" fill="#000"/></g><g transform="translate(178 1057)"><path d="M1314.4 694.4 10.7 691.1S44 481.4 106.9 362.2c73-138.7 176.8-250.5 390.4-316.9C516 39.5 669.8 114 669.8 114l108.7-70s175 48.2 241.2 85.5c84.2 47.3 179.3 187 223.1 296 46.6 115.8 71.6 269 71.6 269Z" fill="#fff"/><path fill-rule="evenodd" clip-rule="evenodd" d="M1290.7 617.2a2582 2582 0 0 0 17.3 77.2c4.7 0 8.2 0 11.4-.9a482.5 482.5 0 0 1-11.7-60.7c-2-13-4-26.1-6.6-39-6.2-30.4-13.2-60.5-22-90-10-33.6-21.5-66.9-35.3-99.3a743.8 743.8 0 0 0-48.2-97.7 685.2 685.2 0 0 0-64.4-91.1v-.2c-20.5-23.6-40.8-47-66.5-65.8-12.5-9.1-25.9-16.7-39.2-24.2-9-5.1-18.1-10.2-26.9-15.8-27.4-17.6-57.8-27-88.2-36.2-14.4-4.4-28.8-8.9-43-14.2a192.7 192.7 0 0 0-31.6-8c-18.4-3.5-37-7-53.2-19.4-2 8.4-7.7 9.7-13.5 11-3.1.7-6.2 1.4-8.8 3.2a1810.6 1810.6 0 0 1-54.4 36 3387.4 3387.4 0 0 0-30.4 20c-2.2 1.4-4.1 2.8-6.7 1.3-10.3-6-21.5-10.1-32.7-14.2-5.9-2.1-11.7-4.2-17.5-6.7l-17-6.9c-13.5-5.4-27.1-11-40-17.5-7-3.5-14.2-6-21.5-8.3-12.4-4-24.8-8.1-34.9-17.5-3.5-3.4-9.7-3.3-13.5 2-5.7 8.3-14.6 11.2-23.6 14.2l-15.8 5A426.6 426.6 0 0 0 410.4 68a1350.1 1350.1 0 0 0-82.1 39 403.3 403.3 0 0 0-88.4 61 601.8 601.8 0 0 0-102.2 122.5A768.3 768.3 0 0 0 84.5 390a897.7 897.7 0 0 0-32 82.8 714 714 0 0 0-20 65.8C30.7 545.8 29 553 27 560c-3 11.9-6 23.7-8.4 35.6-6.3 32.9-11.6 66-16.2 99 6.3 0 11.6 0 17.1-1.1 1-18.1 4.4-35.3 7.7-52.2l2.5-13a785.6 785.6 0 0 1 25.4-106.1l4-12C71.9 472 84.5 434 101.5 397.4c22.8-49.3 49-96.5 81.7-140.2a540.3 540.3 0 0 1 79.7-86.4c27.7-23.9 59-41.7 91.8-58.2 11.5-5.8 23.3-11 35-16.3A604.5 604.5 0 0 0 435 74.7c9.6-5.3 15.4-5 19.7 7.3a218.6 218.6 0 0 0 40.4 68.5 249 249 0 0 0 140.7 85.6c56 12 105.3-.3 146-40.4 22.1-21.6 43.2-44.9 54.9-74.4 4.5-11.5 8.6-23.3 12.7-35.3l6-17 34 10.8c10.7 3.5 21.5 7 32.4 10.3 45.7 14 86.6 38.4 125.6 65.4 43.3 30 75.4 71.4 105.2 114.2a769.7 769.7 0 0 1 56.5 97.6 766.7 766.7 0 0 1 42.5 102.7c11.7 35.3 22.3 71 30.5 107.6l8.6 39.6ZM615 98.2c8.3 3.9 16.7 7.8 26 9l4.5 2.2a52 52 0 0 0 17 6.2c-3 4.3-6 8.3-9 12.2-6.4 8.1-12.4 16-16 25.4l-2.3 5.9c-2.2 5.5-4.4 11-5.2 17-1.1 9.1-5.9 11.4-15.2 9.6a127 127 0 0 1-42.5-19.3c-10.1-6.3-20-12.9-30-19.4-13.3-8.8-26.7-17.6-40.5-25.8-17.4-10.5-25.2-27.1-32.4-44.3-3.1-7.6 3.4-12.6 9-16.4 10-7 21.4-7.2 32.9-4.2 19.4 5 37.5 13.2 55.7 21.4 11.6 5.2 23.1 10.4 35 14.8 4.4 1.6 8.7 3.6 13 5.6Zm130.6 92.4c-3.2 5-6.6 10-13.7 8-5.9-1.4-7.3-6.5-8.7-11.5l-.7-2.4a130 130 0 0 0-43.4-64c-22.6 17.1-30.8 41.4-37 66.8 0 .7-.3 1.4-.4 2.1-1.4 6.4-2.8 12.7-12 12-22.1-2-43.4-6.8-62-20.6-13.8-10.3-27.9-20.2-42-30a4158 4158 0 0 1-18.5-13c2 8 6.4 15.1 12.5 20.7a281.2 281.2 0 0 0 73.4 49.3 180 180 0 0 0 110.5 13.2c37.7-6.6 67.1-28.5 90.5-58.3l3.8-4.7c6.6-7.9 13.5-16.2 15-29.5-4.2 4.2-8.1 8.5-12 12.7-10.2 11.2-19.6 21.5-32.3 28.2a60.7 60.7 0 0 0-22 19.5l-1 1.5Zm83.8-93.5a18 18 0 0 1-7.1 8.8c-27 25.5-56 49-86.5 70.3a145.5 145.5 0 0 0-46.4-65L711 97c21.5-14 42.7-27.8 63.7-41.8 4-2.7 6.2-1 8.8.9l1.1.8a45 45 0 0 0 27.3 9.3c20.8-1 26.7 10.8 17.4 31Z" fill="#000"/><path d="M217.5 694.4c1.2-22.7 3.4-45.5 5.8-68.3 2.7-26.1 5.4-52.2 9.6-78.3 4-24.3 8.7-48.4 14.2-72.3 9-39.3 22.1-77.4 44.7-111.5 3-4.6 6-9 12-4.9 5.3 3.6 2.4 7.4.6 12.1-9.5 24-18.4 48-27.3 72.2A637.5 637.5 0 0 0 249.8 553c-5.9 33.8-8.2 68.2-12 102.3-1.3 12.3-2 24.6-3.2 38-5.5 1.1-10.7 1.1-17 1.1ZM1123.7 694.4c-9.2-36.8-12.3-74.6-22.4-111-7.7-28.1-14-56.8-24-84-7.1-19.3-14-39-23.4-57.6-12.7-25-23.3-51.2-34.6-77-1.3-2.9-3-6.3 1.2-8.9 4.5-2.6 7.5-.4 10 2.7 3.8 5 7.8 10.2 10.6 15.9 10 20.4 19.6 41 29.5 61.6a603.2 603.2 0 0 1 34.2 95.5 618.8 618.8 0 0 1 21.7 96.5c2.7 21.4 7.2 42.7 8.8 65.3-3.4 1-7 1-11.6 1ZM612.5 167c-8.2 2-11.1-2.7-12.5-8.4-1.5-6.2.8-11.7 6-15.5 3.3-2.4 7-2.4 10.9-.6 4.8 2.3 4.6 6.6 4.7 10.8.3 6.3-3.1 10.3-9 13.7ZM758.4 135.5c1.7 5.9 3 11.4-1.7 14.9-4.2 3-9.7 6.7-14.8 2-5.5-4.8-3.8-11.3-.2-16 4.2-5.4 10-8 16.7-1Z" fill="#000"/></g><g transform="translate(266 207)"><path d="M319.4 447.9c-5.2-33.5 7.2-101.6 19.9-129C352 291.7 387 229.5 411 213.5c24-15.9 77.8-40 96-50.3 18.2-10.3 60.4-19.7 89-18.5a312 312 0 0 1 95.3 19.8c30.3 12 73.4 32.5 95.2 57.3 21.9 24.7 25.4 22.7 43.8 52.8 18.4 30.1 21.2 48.8 28.4 59.8 7.3 11 31.8 25.5 51.4 50.6 19.7 25 28.5 28.9 34.7 51.8 6.3 23 7.3 29 2.5 37.3-4.7 8.2-14.9 21.3-27.1 21.3-12.3 0-28 2-46-11.7-18-13.8-34.5-17.2-47.7-33.9-13.2-16.7-26.7-14.6-42.2-30-15.5-15.6-27.7-12-56.4-21.4-28.8-9.4-36 9.6-63.2-3.4-27.1-13-32.6-1.6-51.8 10.5-19.2 12.1-38 24.7-58.5 31.8-20.5 7-67.3 20.9-87 18.4-19.6-2.5-44.3-13-65.6 1.2-21.4 14.2-28.9 18.8-37.2 21.8-8.4 2.9-7.6 2.2-15.5-5-7.9-7-6.1-7.5-13.7-10-7.5-2.6-16-15.7-16-15.7Z" fill="#fff"/><path fill-rule="evenodd" clip-rule="evenodd" d="m353.3 506.3-2.7-7.4a64 64 0 0 0-5.7-13.4c-6.9-11-2.4-17 7.1-22.5 5.8-3.4 11.3-7.3 16.8-11.2l3.3-2.3c19.6-13.8 39.7-17 62.2-6 21.3 10.6 43.7 7.2 66.2 2.4 47.7-10.2 90.2-31.4 131.2-57.1a296.8 296.8 0 0 1 86.3-37c32.8-8 66.5-6.5 99.5 4 23.3 7.5 46.2 15.5 65.1 31 23.2 19.2 45.4 39.7 54.9 69.8l.5 1.6c1.5 4.4 3.4 9.8-2.8 11.5-4.5 1.2-5.7-2.7-6.9-6.4-.3-1.2-.7-2.3-1.1-3.2a165.9 165.9 0 0 0-77-79 195.5 195.5 0 0 0-123.9-18.7c-12.5 2-24 7-36.1 12.3-7.5 3.2-15 6.5-23.3 9.2 6.3 3.4 11.5 3.9 16.5 4.4.6 0 1.3 0 2 .2 47.8 5 93.8 15.8 133.5 45a215 215 0 0 1 17.8 15.1c5.1 4.7 10.3 9.5 15.8 13.7l1.5 1.2c15 11.5 30 23 49.4 26.7 28.4 5.3 47.2-13.8 39.8-41.6-8.3-30.9-29.7-53.1-52-74a258.5 258.5 0 0 0-89.5-54.4c-41.9-15.3-85-17.5-128.3-13.6-43.2 4-86 12.4-126.6 28.2-20.5 8-40.4 17.7-60.2 27.4a4282 4282 0 0 1-8 4c-39.8 19.3-74.3 46.5-108.8 73.6l-16.3 12.8c-2.1 1.7-3.7 4-5.3 6.4-2.9 4.3-5.8 8.8-12.6 9.4-1.7-11 5.8-17.7 12-23.2l1.5-1.3c23.1-20.5 46.5-41 72.8-57.5 7-4.4 9-10 9.6-18a371 371 0 0 1 37.9-140.2l7-14.5c6.8-14.7 13.7-29.4 23.4-42.9-58.2 21.7-101.9 60-134 113.2-32.3 53.4-40.2 111.8-37.5 174.8-8.8-5-9.2-10.7-9.6-16.6a285 285 0 0 1 19.6-130 270 270 0 0 1 77-106c26.4-21.7 55-39.5 88-49.4 6.3-1.9 8.4-6.7 10.6-12l.5-1c6-14 9.5-14.8 20.5-4.9 5.5 5 10.7 6.4 18.5 5 32.1-6.1 64.1-4.7 96.3 1.6 71 14.1 127.8 51.1 172 107.4a223.4 223.4 0 0 1 39.2 75.2c2.7 9 8.4 17 16.2 22.3 29.9 21.3 54 47.6 70.1 80.9 7.3 15 10 31.5 1.9 45.2a42.4 42.4 0 0 1-47.2 22c-18-3.2-32.8-10.7-46.6-21.6l-14.7-12c-20.3-16.6-40.6-33.3-65.5-43.6a299.6 299.6 0 0 0-125.6-23c-13.6.5-25.1 7.9-36.4 15.1l-8.2 5.2c-40.5 24.2-85.4 34.8-131.1 42.8-9.7 1.7-19.7.2-29.1-2.6-7.5-2.3-11.1.7-14 7-10.2 22-18 44.7-18.3 69.6 0 7.5-.8 15-1.5 22.6-.4 4-.8 7.8-1 11.7-.5 6.1-3.6 9.6-9.7 9.7l-4.5.2c-6.1.2-12.4.5-19-1.5-3.2-15-8.5-29.4-13.9-44-3.3-9.2-6.6-18.3-9.5-27.8ZM676 175a274.3 274.3 0 0 0-107.7-22.3c-34.8-1-58.8 17.8-72.8 48.1l-7.9 16.8a523 523 0 0 0-32.1 79.2c-6.5 23-10 46-13.7 71.8l-.6 4.6c110.7-63.6 226-93.4 351.7-69.7-11.2-31.4-32.2-54-52.8-76.3l-1.7-1.9A225.9 225.9 0 0 0 676 175Zm30.9 3.7a143.6 143.6 0 0 1 45.8 24.7c46 32.5 76.4 74.6 96.3 125-10.5-3.3-20-8-29.3-12.8L811 311c-4.6-2.2-7.4-8.6-10-14.5l-2-4.3a317.8 317.8 0 0 0-89.7-109.1 6.4 6.4 0 0 1-2.4-4.6Z" fill="#000"/></g><g transform="translate(791 871)"><path d="M176 65c-3.3-2.8-6.4-5.1-11.4-2.8-7.9 3.6-16.1 6.5-24.3 9.8 8.5 11.3 17.4 21.9 23.8 34.4 4.2 8.3 11.8 14.4 22 10.5 9.4-3.5 9.3-12.6 8.4-20.7A42.6 42.6 0 0 0 176 65Z" fill="#fff"/><path fill-rule="evenodd" clip-rule="evenodd" d="M209 98v-4.9c1-6.4-.6-11.9-2-16.6l-1.3-5.2c3-5.6 7-3.3 10.7-1.1 4 2.3 7.5 4.3 9.2-2.9 1.8-7.2-2-15.5-10.5-20.3-7.8 8.7-16.3 7.7-25.4 2.7C183.2 46 176 44 169 47.3c-11 5-22.8 6.5-34.6 8.1L123 57l-2.5.4c-11.3 2-22.5 3.9-32.7-4.6-3.4-2.8-7.4-1-10.4 1.9-3 3-4 6.6-2.1 10.4 1.6 3.2 4 4.7 8.1 4.8 23.3.2 42.8 8.8 57.4 27.2 3 3.7 5.5 7.6 8 11.5 1.7 2.5 3.3 5 5 7.3 14 19.7 40.7 23.2 52.3-.4C209 110 209 104.3 209 98Zm-44.4-35.8c5-2.3 8.1 0 11.4 2.9a42.6 42.6 0 0 1 18.5 31c.9 8.2 1 17.3-8.4 20.8-10.2 4-17.8-2.2-22-10.5A185.7 185.7 0 0 0 144.9 78l-4.6-6 7.3-2.9a281 281 0 0 0 17-7Z" fill="#000"/></g><g transform="translate(653 805)"></g><g transform="translate(901 668)"><path d="M82 57.5c4.9-6 9.2-11.2 13.8-16.2 2.5-2.8 6-4 9-1.2 3.5 3 1.3 5.8-.8 8.8C96 60.4 86 70.1 80.5 83.4c-4 9.8-5.3 19-2.3 29.6 5.8 19.9 10.5 40 15.1 60.2 3.3 14.4-2.3 23.8-16 29-4 1.6-7.9 3.2-11.7 5-16.4 8-30.4 1.5-44.4-8.6 3.8-8 9.6-10.7 18.5-5.7 8.7 5 32.7.6 39.6-6.8 4.5-5 1.4-9.7 0-14.4-5.8-19.7-14-38.7-15.6-59.8a68.6 68.6 0 0 1 18.4-54.4Z" fill="#000"/></g><g transform="translate(610 680)"><path d="M409.2 75.7c13.1.3 25.4 1 37.7 2.5 3 .3 4.9 3.3 5 6.6 0 3.4-1.8 5.7-4.8 7-11.1 4.9-22 8.3-33.7.2-6.5-4.4-8.9-8.6-4.2-16.3ZM254.7 78.4c6.2 3.3 5.2 7 2.1 10.8-6.5 8-28.2 10-36.4 3.5-4.7-3.8-7.3-8.6-4.4-14.4 3-6 8.2-5 13-2.5 8 4 16.4 3 25.7 2.6Z" fill="#000"/></g><g transform="translate(610 680)"></g><g transform="translate(774 657)"><path d="M53.5 37.6a79.2 79.2 0 0 0 27.3-19.8c2.7-3 6.1-5.7 9.9-5 6.7 1.1 16.2-1 18.8 7.5 2.1 7-5.2 10.5-10.3 14.4-13.8 10.5-28.2 19-46.6 16.7-4.6-.5-9.7.2-11-6.2 1.6-5.5 7.3-4.9 11.9-7.6ZM251.4 15c8.5-1.7 12.6 4.1 17.1 8.2 8.1 7.4 14.7 16.4 26 19.8 3.3 1 5.7 4 4 8-1.5 3.5-4 5.7-8 4.6-14.3-3.8-29.2-5.9-40.6-16.8-10-9.6-10.2-14 1.5-23.7Z" fill="#000"/></g><g transform="translate(0 559)"></g></g>
    </g>
  </g>
</svg>
