<?xml version="1.0" encoding="UTF-8"?>
<svg xmlns="http://www.w3.org/2000/svg" viewBox="0 0 96 96" fill="none">
  <circle cx="48" cy="48" r="40" fill="#DDE8FF" stroke="#FFFFFF" stroke-width="2"/>
  <defs>
    <clipPath id="clip_group_5_0"><circle cx="48" cy="29.5" r="27.8" /></clipPath>
    <clipPath id="clip_group_5_1"><circle cx="34.8" cy="51.5" r="25.5" /></clipPath>
    <clipPath id="clip_group_5_2"><circle cx="61.2" cy="51.5" r="25.5" /></clipPath>
  </defs>
  <g clip-path="url(#clip_group_5_0)">
    <g transform="translate(18.4,2.4) scale(0.033)">
      <metadata xmlns:rdf="http://www.w3.org/1999/02/22-rdf-syntax-ns#" xmlns:xsi="http://www.w3.org/2001/XMLSchema-instance" xmlns:dc="http://purl.org/dc/elements/1.1/" xmlns:dcterms="http://purl.org/dc/terms/"><rdf:RDF><rdf:Description><dc:title>Notionists</dc:title><dc:creator>Zoish</dc:creator><dc:source xsi:type="dcterms:URI">https://heyzoish.gumroad.com/l/notionists</dc:source><dcterms:license xsi:type="dcterms:URI">https://creativecommons.org/publicdomain/zero/1.0/</dcterms:license><dc:rights>Remix of „Notionists” (https://heyzoish.gumroad.com/l/notionists) by „Zoish”, licensed under „CC0 1.0” (https://creativecommons.org/publicdomain/zero/1.0/)</dc:rights></rdf:Description></rdf:RDF></metadata><mask id="mixed5_0_viewboxMask"><rect width="1744" height="1744" rx="0" ry="0" x="0" y="0" fill="#fff" /></mask><g mask="url(#mixed5_0_viewboxMask)"><g transform="translate(531 487)"><path d="M554 727.7c-99.2 297-363.8 388.6-503.7 19.8-19.3-50.7 31-69.5 66.2-91.9 24.1-15.3 36.8-28.5 35.3-42.2-7-64.4-36.9-243.8-36.9-243.8l-3-5.8s.7-1.6-2.2 1.2c-3 3-9.9 34.2-37 34.2-24.5 0-49.2-10.9-61-86.3C7.2 285.6 9.6 214 40 201c12.5-5.3 24-7.2 35.2-.8 11.3 6.4-13-22 112-126C268.4 6.4 396.7-3.5 448.5 8 500.3 19.5 552 44.8 574.9 98.5c27.8 65-25.9 114.3-14 262.5-2.2 53.6.8 171.2-146.6 210.6-28 7.5-19.3 48.4 22.7 58.4 67 21 117 72.3 117 97.9" fill="#fff"/><path fill-rule="evenodd" clip-rule="evenodd" d="m554 266.2.1-1.4c4.1-36.4 8.2-71.7 27.1-103.4 6.5 4.4 5.7 10 3.7 15.2-19.9 51.2-18 104.4-16.2 157.6l.4 14c2.1 66.4-14.5 126.8-58.7 177.5-15.4 17.6-35.8 29.8-56.5 40.3-21.4 11-25.9 20.1-19.2 43.6l.8 2.6c1.4 3.9 2.8 7.9-1 11.8-4.5 4.6-9.5 3.3-14.8 1.8l-.6-.1a406.4 406.4 0 0 1-137-68.3c-6-4.4-10.8-10.3-15.5-16.1l-.3-.4c-2.5-3-3-7.8.5-10.4 3.3-2.5 5.8-.5 8.7 1.8l1 .9a145.5 145.5 0 0 0 76.3 31.7c13.4 1.4 26.6.9 40 .4 7.4-.3 14.8-.6 22.3-.5 10.2 0 18.7-4.7 26.7-9.2l2.8-1.6c27.8-15.5 54.3-32.8 72.2-60.7 16.1-25 25.9-52.2 31.6-80.9 7.2-36.1 6.6-72.7 6-109.8-.3-12-.5-24.2-.5-36.4ZM50.6 190.8c21.9-1.7 34 11.2 44.3 26.3a140.4 140.4 0 0 1 22.4 61.5c.5 3.7 1 7.6-1.2 11.3-4.5.6-4.9-3-5-5.6-.5-20.7-9.7-38.7-18.9-56.1-6.6-12.5-16.2-24.6-31.4-27.6-17.2-3.5-33 12-40.8 32.2-14.5 37.6-12 74.6 1.4 111 5.8 15.9 13.1 32.1 27.8 43.2 14.8 11.3 32.7 9.3 43.6-5.7l2-2.5c2-2.6 4-5.1 5-8 2.1-5.8 5.4-11.2 11.3-10.4 6.8 1 8 8.3 8.7 14a3661 3661 0 0 0 22 156.7l5.9 38.8c2.6 17.1 5.6 41.7 3.6 52.1a28 28 0 0 0-.3 2.2c-.4 2.8-.6 5-4.2 5.5-4.9.8-7-2-7.7-6.4-2.3-17-3-23.6-4-49.6-.9-25.2-5.6-50-10.4-74.9l-5-27c-5.2-30.8-10.3-62-10.8-97l-2 3c-7.6 11.3-13.7 20.5-24.5 24a40.5 40.5 0 0 1-46.1-12.5 127.8 127.8 0 0 1-28.8-55.8c-8.4-34-9.9-67.1.9-100.6 5.2-16.1 23.7-44.7 42.2-42Zm34.6 127.5c4.4 3.2 8.4 6 12-5.4-1.1-42.2-14.7-69.2-35.8-70.3 11.2 14.6 22 28.8 23 48.5a32.3 32.3 0 0 1-10.7-8.8c-2-2.2-4-4.4-6.5-6l-3-2.4c-4.8-3.6-9.7-7.4-17.8-4.5 3.8 5.8 9 10 14.3 14 6 4.7 12 9.3 15.6 16.5-10.6 7.7-15.2 17.7-9.7 29.9 4.8 10.5 11.9 19.2 25.9 19.8-.6-6.3-4.7-10.9-8.8-15.4-5-5.4-9.7-10.6-7.5-18.6 3.2-1.5 6.2.7 9 2.7Z" fill="#000"/></g><g transform="translate(178 1057)"><path d="m1315.2 701.4-1308.5.9S79.6 422 99 389.8c19.5-32.1 97.6-140.4 96.7-158.8-.9-18.4 1.5-83.8 14.7-109.6 13.2-26 55.2-61.3 71.6-64 16.4-2.5 71.7-5 106.2-13.7 34.5-8.6 66.4-19.3 101.5-19.3 5.7 0 .2 12.5.2 12.5s1.8 122.3 164.8 130c121.5 5.7 161.7-117.6 161.7-117.6s-26.7-23.8-18.6-24.4c95.6-8.2 145.7 13.2 174.7 18.8 26.8 5.2 49.2 5.2 76 24.2 30.7 21.7 46.5 71 80.9 146.5 39.3 86.6 194.1 349.3 185.8 487.6" fill="#000"/><g fill-rule="evenodd" clip-rule="evenodd" fill="#fff"><path d="M1003.5 704.5c-.8-17-1.1-34-1.5-50.9-.8-37.1-1.6-74.3-6.4-111.5-4.4-34-9.5-68-15-101.9A2951.8 2951.8 0 0 0 947 274.4c-4.2-18.9-11.5-37.4-19.3-55.3-5.7-13-10.4-26.4-15.2-39.8-5.5-15.3-11-30.6-17.8-45.4-1.2-2.6-2.7-5-4.2-7.4-3-4.5-6-9.3-7.5-16.4-47.5 93.4-120.4 141.8-223.2 142.3-101.2.4-176-46.2-230.6-130.3-8.6 7-12.5 17-16 26l-1.4 3.3c-18.6 45.9-36 92-41.5 142.2-3.1 29-7.6 58-12 86.8l-1.8 11.4c-6.9 45.2-13 90.7-16.2 136.4-4.3 58-8.8 116-13.4 175.2-4.7 1.1-9.1 1.1-14.6 1.1a688 688 0 0 0 5.2-74.8c1.6-49.7 7.3-99 13-148.2L335 441c3-28 7-56 11.1-83.8 4-27.5 8-55 11-82.7 4.9-44 21.9-85.2 40-125.6l.8-2c10.4-23.3 20.8-46.7 37.5-66.5 12.9-15.3 27.5-28.9 44.8-39 13.9-8.1 18.4-6.4 23.1 9 9.6 31.5 26.3 58.5 53.3 76.9 42.8 29 89 42.2 141.3 26.9 36.5-10.7 66.6-29.1 88.3-60.2 8.4-12 16-25 18.5-40a205.3 205.3 0 0 1-18.2-7v-.1c-3-1.4-6.7-3-5.1-7.5 1.2-3.4 4-5.9 7.8-5.3 33.1 4.5 64.5 11.7 86.4 41.1a347 347 0 0 1 47.4 89.2l7.5 20.4c12.6 33.7 25.1 67.4 34.4 102.2 3.6 13.8 6.4 27.7 9.1 41.7l3.6 17.9 5.2 23.7c4 18.2 8 36.3 10.9 54.7 2 12.6 4 25.2 6.2 37.8 6 35.9 12.2 71.7 13.8 108.2.8 18 2 36 3.4 54 1.1 15 2.2 30.1 3 45.3.4 8.2-.4 16.5-1.3 25l-.8 8.6c-4.8.6-9.7.9-14.6.7ZM818.4 64c-8 18.5-15.8 37-29.3 52.4-34.3 39.1-78.7 57-129.4 58.5-34 1-67.5-6-97-25-28.5-18.4-53-40.7-65-74l-1.2-3.8c-2-5.8-4-11.8-8.6-16-13.2 3-16.7 11.3-14.6 23l.9 5.8c.5 4 1 8 2.4 11.7 12.5 35.4 37 61.4 68.3 80.4 24.6 15 51.4 24.8 80.8 28.5C686 213 742.2 205 792 167.7a128.3 128.3 0 0 0 53.4-90.4c1.7-15-7.2-22-24.7-18.7l-2.3 5.4ZM457.2 79.8c20 82 77 121.4 153.7 138.6 39 9.8 76 8.2 113.1-1.5 41.3-10.7 77.6-29.3 104.8-63 16.6-20.8 28.9-43.7 29.3-71.6 15 7.8 16.5 13.2 6.5 32A229 229 0 0 1 768 212c-46.4 24-96.4 30.4-148.6 22.5-54.2-8.1-98.7-33.7-137.7-70.4a245.5 245.5 0 0 1-35.2-45.3l-6.8-10.3c-2.7-4-1-7.2 1.7-10.3a4082.7 4082.7 0 0 1 15.8-18.5Z"/><path d="M215 704.5c4.6-15.4 6.3-31.3 8-47.3.8-8 1.7-16 2.9-24l2.7-18c3.5-24.2 7-48.4 12.4-72.4l4.9-20.6c3.1-13.3 6.3-26.6 8.7-40.1 4-23 10.8-45.5 20.4-66.9a251 251 0 0 0 22.2-102 470 470 0 0 1 4.7-52.5c1.7-13 3.3-26 4.1-39 1.6-24.7.4-49-1-75.6-3.8 3-7.5 6-11 9a714 714 0 0 1-22 17.6c-43 32.4-76.4 73.2-105 118a613.1 613.1 0 0 0-29.8 54.7c-3.8 7.5-7.5 15-11.4 22.4A833.1 833.1 0 0 0 85.5 462c-2 5.8-4.3 11.5-6.4 17.2-17.9 47-35.8 94.2-42.8 144.4-2 14.4-6 28.2-9.9 42.1-3.5 12.4-7 24.8-9.3 37.9-5.5 1-10.8 1-17.1 1l2.8-9.8c8.4-29.5 17-59.1 21.3-90 2.1-15.6 6.6-31 11.1-46.2l3-10.5c4.5-15.5 10.3-30.5 16-45.5 5-13 10-26 14.2-39.5 4.9-15.8 11.5-31.2 18-46.5 2.5-5.7 5-11.3 7.3-17 16.6-40.3 37.4-78.6 59-116.3l.3-.5c7.4-12.9 15-26.1 26-36.7 8.7-8.3 9.2-19 9.7-29.7a105 105 0 0 1 2.4-20.1c5-31.7 10.1-63.6 26.2-91.8 16.8-29.4 44.6-45.7 77-53.6 23.6-5.8 47.6-9.4 71.8-11 10-.5 19.8-3.7 29.6-6.9 5.2-1.7 10.5-3.4 15.8-4.7 5-1.2 10-2.6 15-4C445.8 19.2 464.9 14 485 15h1c4 .2 8.3.3 9 5.5.6 5.1-3 5.8-6.6 6.5l-2 .4-42 9.9C418 43.5 391.7 49.8 365 55.6c-11.5 2.5-23.5 3.2-35.4 4l-8.8.6c-8.6.6-16.7 1.7-23.8 6.3 25.8 16.1 41 37.8 40.6 68.8-.3 18.3.5 36.5 1.2 54.8 1 24.1 2 48.2.6 72.3-1.7 31.5-5.2 62.6-9.9 93.8-2.7 18.1-4.7 36.4-6.8 54.6-2 17.2-4 34.4-6.4 51.5-2.5 17-4.1 34.2-5.8 51.3-1.5 15.8-3 31.6-5.2 47.4-2.6 18.5-4.4 37-6.3 55.6-1.6 16-3.2 32.2-5.3 48.2-.5 4-.7 8.2-1 12.3-.5 8.7-1 17.5-4 26.5-5.7 1-11.4 1-17 0a770 770 0 0 0 16.7-101l.4-3.8c2-16.5 3.4-33 4.9-49.6 2.3-27 4.7-54 9.3-80.8a345 345 0 0 0 3.5-32.5c1.1-14.1 2.2-28.2 5.5-42.1a595 595 0 0 0 13-106c2.8-52.3 3.5-104.8.3-157-1-16.7-4.6-33.5-19.5-47 1.6 5 3.3 9.7 5 14.3 3.7 9.8 7.2 19 8 28.5a779 779 0 0 1 2.2 82.7c-.5 32.2-4 64.2-7.6 96.2l-3.5 33.1C306.3 375 301.2 411 296 447l-6.7 48.1c-2 14.5-3.4 29.1-5 43.7-1.7 17.5-3.5 35-6.1 52.4-1.6 11-2.6 22.2-3.6 33.3-1.7 18.5-3.3 37-8 55.1-.2 1.2-.6 2.5-1 3.7-1.9 6.8-4 14-.5 21.3a100 100 0 0 1-16.7-1c.8-7.8 2-15.3 3.2-22.7 1-6.5 2.1-13 2.8-19.6 1.4-13.7 3-27.3 4.5-40.9l5-45.1c3-29 6.8-57.9 10.7-86.8l5-37c-2 8.2-4.4 16.2-6.8 24.1-3.5 11.5-7 22.9-8.8 34.6-2.6 16.8-6 33.3-9.6 50-4.5 21.5-9 43-11.6 65l-3.1 22.7a361 361 0 0 0-5.3 56.7H215Zm60.3-554.3a93.8 93.8 0 0 1 20.5-17c6.7-3.8 8.6-10 6.2-16.3-1.2-3-1.6-6.5-2.1-9.9-1.1-7.8-2.2-15.7-11.6-19.7-5-2.2-9.8-.3-13.3 2.2a70.8 70.8 0 0 0-17.4 16.6c-17.2 26-26.7 55.2-35.7 88.3 11-11 22.2-19.5 33.3-28.1 6.8-5.2 13.5-10.4 20.1-16Zm-37.6-40c-9.8 23.6-19.7 47-22 73a56.4 56.4 0 0 1-11.4 31.2l3.7-18c6.8-33.4 13.6-66.9 33.8-96l-4 9.8ZM1276.5 559.3c15.8 47 24.1 96 31.6 145.2 5.5 0 10 0 14.6-1-4-39.4-12.7-76.7-21.4-114l-.2-.6c-4-17.6-9.8-34.7-15.6-51.8l-5-15a1501 1501 0 0 0-43.6-120.6 660.7 660.7 0 0 0-30.5-60c-4.7-8.5-9-17-13.3-25.7a333 333 0 0 0-35.9-59.7c-5.8-7.4-11.8-14.9-14.5-23.3a2262.2 2262.2 0 0 0-37.2-102.7 155.7 155.7 0 0 0-32.7-54c-20.4-21-48-28.5-75.1-35-23-5.4-46.1-10-69.2-14.5L888 18.4a354 354 0 0 0-103.9-6c-5.5.5-10 1.8-12 10.6 14.6 1.7 29.2 2 43.7 2.4 24.2.7 48.4 1.3 72.4 7.9 25.2 6.8 51 12.3 77.4 17.9 12.5 2.6 25 5.2 37.9 8.1-9.2 9.7-9.5 19.4-9.8 29l-.1 4.5c-.8 14 1.4 27.7 3.5 41.4 1.5 9.4 3 18.8 3.5 28.2 2.4 44.8 9.6 89 16.8 133l1.3 8.4c3.5 21.3 6 42.7 8.5 64 2.3 19 4.5 38.1 7.5 57 4.7 31 6.4 62.4 8.1 93.7 1.2 21.3 2.4 42.6 4.5 63.9 2 21 3.6 42.1 5.1 63.3 1.4 19.6 2.8 39.2 4.7 58.8h11.8c-.6-49.1-4.2-98-7.9-147-1.8-25.2-3.7-50.3-5.2-75.4a769.2 769.2 0 0 0-7-62.6c-1.6-10.8-3-21.5-4.4-32.2-3.7-31.7-8.7-63.2-13.7-94.7-4.3-27.2-8.6-54.3-12-81.6-1.8-13.2-4-26.2-6-39.3-4.6-27.2-9-54.3-9.4-82-.1-11 3.4-19.7 12.5-27-14.6 30.1-8.2 59.2-1.8 88 1.7 7.7 3.3 15.2 4.6 22.8 1.2 6.7 2.5 13.3 4 20 2.7 13.3 5.5 26.7 6.2 40.2.6 11.2 2.8 22 4.8 32.7 1.5 7.5 3 15 4 22.7 2.4 19.7 5.6 39.3 8.8 59 5 30.6 10 61.2 12.2 92.3 1.8 26.5 7 52.9 12 79l.7 4c2.5 12.8 3 25.8 3.4 38.4l.1 2.1a972 972 0 0 0 4.2 55.3c2.2 24 4.5 47.9 4.5 72l-.3 4.4c-.1 2.4-.3 5-.1 8a47 47 0 0 0 11.4 1c2.7-45.3-.4-90.4-4.4-138 14 40 21 79.4 28 119.4l3 17.4c5.4 1 11 1.2 16.5.3-4-8.8-4.6-17.9-5.2-26.8-.5-5.6-.9-11.1-2-16.5l-3.4-14.6c-7.8-35-15.6-70-30-103.5l-3.1-6.9a74 74 0 0 1-8.3-25.2c-1.1-15-4.1-29.7-7-44.2l-2.5-12.3a723.9 723.9 0 0 1-7.8-56c-2.2-19.1-4.4-38.3-8.1-57.3-3.7-18.8-7-37.7-10.1-56.6-5-29.5-10-59-17-88.3l-2-8.4a204.3 204.3 0 0 1-6.7-36.9c1.6.7 3.1 1.1 4.4 1.6 2.4.8 4.2 1.4 5.7 2.5l1 .8c31.2 24 62.6 48.2 87.1 79.5a488.4 488.4 0 0 1 56 87.2c5.8 12 12 24 18 35.9a951.4 951.4 0 0 1 37.1 78c11.8 28.9 21.4 58.5 31 88 3.8 12 7.7 23.8 11.7 35.6Zm-243.6-422.8c-6.1-3.5-10.4-8.2-11.4-15.4a65 65 0 0 1-2.9-33.4c2.2-15.3 12.7-19.6 26.5-13 19.9 9.3 28.6 27.5 37.1 45.2 1 1.8 1.8 3.7 2.7 5.5 8.2 16.9 15 34.5 22.2 53.2l10 26-11.4-10.8a453.4 453.4 0 0 0-55.4-46.7c-5.6-3.8-11.5-7.2-17.4-10.6Z"/></g><g transform="translate(396 278)" style="mix-blend-mode:difference"><path d="M204.9 175.7s150.1 43.7 172 42.1c9.5-.6 13.6-7 11.8-16.2a28 28 0 0 0-5.5-12c-2.9-4-186-225.6-203.5-184.5a16 16 0 0 0 .5 12.5c4.3 8 10.8 14.4 16.3 21.3 21.4 24.8 41.6 50.6 63.1 75.3 12.7 14.9 30.5 34.2 37.9 47.7-5.4-.5-15.1-3.5-21.1-4.9-13.5-3.4-27-7-40.5-10.3a313.1 313.1 0 0 0-60.2-9.7c-9.2-.1-20.4-.4-27 7.1-5.2 6.5-6 15.8-2.8 23.3 4 8.3 10.7 15 16.6 22a855 855 0 0 0 29.6 30.9c18.8 18.5 37.3 37.2 56.2 55.5 22 21 43.5 42.3 65 63.7 15.9 15.5 32 30.7 47.9 46.2 4.8 4.7 9.6 9.4 14.8 13.7l5.3 4.2c1.2.8 2.4 1.7 3.9 1.8 2.5-.4 3.3-3.5 3.6-5.7.9-5.8-2.8-10.7-5.6-15.3C358.6 345.7 205 175.7 205 175.7Z" fill="#fff"/></g></g><g transform="translate(266 207)"><path fill-rule="evenodd" clip-rule="evenodd" d="m765.1 235.9-.5-.7c-32.5-40.3-71.6-67.2-123.5-75a296 296 0 0 0-183.2 28 246.7 246.7 0 0 0-92.3 78.2l-.4.5c-10.1 14.4-20 28.4-40.2 30.4-10.5 1-19 8-27.4 14.6l-1.3 1c-26.3 21-44.3 48-56.2 78.9-7.6 19.8-14.1 40-19.6 60.4-3.2 12.1-6 24.5-8.7 36.8-3.9 17.5-7.7 35-13.1 52-11 34.6-23.7 68.6-36.5 102.6a11512.9 11512.9 0 0 0-7.9 21c-5.6 15-11.2 30.2-19.7 43.5-14.3 22.7-28 45.4-35.8 71.3-6.4 21.2-2 38.8 16.4 51.8a530.3 530.3 0 0 0 80.2 46.5 558 558 0 0 0 114 39.2c29 6.6 59.4 9.8 86.3-4.2 14.4-7.5 28.7-9.6 43.4-11.8l3.5-.5a18.6 18.6 0 0 0 16.4-13.8c11.3-34.1 18-69.1 16-105.1-.5-9.7-2-19.3-3.6-29-1.3-8.4-2.6-16.9-3.3-25.4-3.7-46.5-21.4-88.7-40.8-130-13.6-29.4-25.4-58.2-21.2-91.6 3.2-26.3 24.9-53.9 44-58 9-2 18-3.8 27.1-5.7 18.4-3.8 36.7-7.6 55-12 43.3-10.2 82.2-29 117.7-55.4 3-2.2 5.6-4.8 8.2-7.3 4.2-4.2 8.4-8.3 13.8-10.7l1.4 1c.6.5 1 .8 1.3 1.3 20.2 42 51 74.4 90.1 99.4 12.8 8.2 25.6 16.4 38.2 25 13.7 9.2 23 20.2 21.9 38.8-.7 12-.5 24.2-.3 36.4.3 13.4.5 26.9-.5 40.3-.7 10.6.6 21 2 31.3 1.8 14.9 3.7 29.8-.4 45.5-1.5 5.6-2.8 11.2-4.1 16.8a282 282 0 0 1-13 43.8 163.6 163.6 0 0 1-54.4 69.7l-4.8 3.5c-13.8 10.4-28 21-45 27-.1 0-.3 0-.5.2-4.8 1.6-10.5 3.6-8.8 11.6 8.8 2.4 16.6-.4 24-4.7a94 94 0 0 1 10.1-5l16-6.7c17.4-7.2 35-14.4 51.2-23.7a393.8 393.8 0 0 0 58.5-39.8c33.6-28.2 63.4-58.3 73.3-103.5 6.7-30 .7-55.4-21.3-77a30 30 0 0 0-2-1.6c-1.9-1.6-3.8-3.2-4-5.8 25.3-44.4 41-90.9 33.2-142.5-6.8-46.2-25.6-86.9-59.9-119.4a209.6 209.6 0 0 0-82.7-46.4c-5-1.6-8-4-9.8-8.8-3.4-10-9.7-18.3-16.5-27.2ZM379.3 587.4c0 .9.3 1.7.5 2.5 2.8 15.4 4.8 28.8 7.2 44.2v.2c-11.4-7.4-15 .4-18.9 8.4l-.1.3a65.5 65.5 0 0 1-14.6 20.4c-16.9 15.7-45.2 3.5-57-22.4a221.2 221.2 0 0 1-22.4-89.5l-.1-4.8c-.3-18.8-.6-38.5 13-54.9 6.6-7.9 15-14 24.5-17.9 10.5-4.2 20.5-3.5 28 7.7 21.5 32.2 37.2 66.5 39.9 105.8Z" fill="#000"/></g><g transform="translate(791 871)"><path d="M80.7 65.4c-1.1-4.6-2.8-8.8 2-10.8C86.7 53 90 55 93 58a76 76 0 0 0 34.4 21c27 6.7 51-.5 71.2-19.9 3.4-3.2 6.7-6.5 10.2-9.5 2.4-2 5.1-3.2 8-.7 3 2.7 1.5 5.4-.1 8-13.6 21.4-31.7 35.8-58.1 37-8 .3-16.1 1-24.1.8-22.4-.6-38-14.3-53.8-29.3ZM49.3 54.5c.4-15.5 8-25.4 19.7-33 4.7-3 9.4-4 14.5-2.7 3.3 1 6.5 2.7 7 6.6.7 4.3-2.4 5.6-6 6.8a30.5 30.5 0 0 0-21.4 22.9c-1 4.3-2 9-7 9.4-5.9.6-5.2-5.4-6.8-10ZM230.4 35c0-8.8 5.4-7.4 9.7-6 7.2 2.3 16 18.6 14.7 26.5-.4 2.5-.4 5.3-3.3 6.4-3.4 1.3-5.8-.4-7.5-3.1a710 710 0 0 1-13.6-23.9Z" fill="#000"/></g><g transform="translate(653 805)"></g><g transform="translate(901 668)"><path d="M59.8 81.5c4.5-7.8 8-15.1 12.7-21.7 3-4.2 8-7.4 13-3.1 4.9 4 0 7.2-2 10.7a227.9 227.9 0 0 0-31.3 82.3c13-2 25-1.4 30.4 11 5.6 12.7-2.5 23.2-10.6 31.8-7.3 7.7-16.6 13.5-29 7.7C42.8 184 69.6 185 65.6 167c-2.6-2.6-4.5-1.7-6.6-1.2-19.7 4.3-22.8 2.4-20.3-18.2a214.6 214.6 0 0 1 21.1-66Z" fill="#000"/></g><g transform="translate(610 680)"><path d="M407.4 122.5c13 .3 25.4 1.1 37.6 2.5 3 .4 5 3.3 5 6.7 0 3.3-1.7 5.6-4.7 7-11.2 4.8-22 8.2-33.7.2-6.5-4.5-9-8.7-4.2-16.4ZM251.2 124c6.4 2.8 5.6 6.6 3 10.6-5.9 8.6-27.3 12.5-36 6.6-5-3.4-8-8-5.6-14 2.5-6.2 7.7-5.6 12.8-3.6 8.3 3.3 16.5 1.7 25.8.4ZM419.6 111c-4.2-9.5-9.9-15.2-19.8-15.7-6-.3-7-5.1-8.9-9.8 2-1.5 3.5-3.7 5.3-3.8 21.1-1.7 42.4-1.8 63.5-.1 6 .4 9.3 8 3.2 10.4-10 4-12.5 13.2-18.5 19.8-8.2 9-15.2 9.1-24.8-.8ZM229.6 81.1c12.2.7 23.1 1 34 2 3.6.3 8 1.8 8 6.7 0 5.6-4.6 5.2-8.3 5.1-6.3 0-9.7 2.7-12.5 8.6-3.4 7.4-6.9 15.3-18 14.8-10.5-.6-15.1-7.2-18.2-15.2-2-5.7-4.9-8.4-10.9-8.2-3.4.1-7.1-.2-7.5-4.9-.4-5 3-6 7-7.2a67.7 67.7 0 0 1 26.4-1.7Z" fill="#000"/></g><g transform="translate(610 680)"></g><g transform="translate(774 657)"><path d="M98.9 41.8c6.6-.8 12-1.8 17.5-2.3 4.7-.5 8.2 1.8 10.3 6 1.9 4-1.5 6-3.4 8.8-14.9 21.7-37 16.6-56.8 13-14-2.6-30.4-5.1-37.1-22.7-3.5-9-2.8-12 7.1-13 5.7-.5 11 1.3 16.2 3 14.8 5.1 30.5 7.5 46.2 7.2ZM229.4 42.2c5.6-4 10.8-3 16.4-1.8 17.1 3.5 34.3 5.8 50.2-4.7 4.3-2.9 9.2-3.5 12.7.7 3.2 3.9.3 7.8-1.9 11.6-7 12.4-18.9 16.4-31.4 19.6-10 2.6-20.4 2-30.5 1.4-15.9-1-21.8-11-15.5-26.8Z" fill="#000"/></g><g transform="translate(0 559)"></g></g>
    </g>
  </g>
  <g clip-path="url(#clip_group_5_1)">
    <g transform="translate(11.7,22.9) scale(0.0305)">
      <metadata xmlns:rdf="http://www.w3.org/1999/02/22-rdf-syntax-ns#" xmlns:xsi="http://www.w3.org/2001/XMLSchema-instance" xmlns:dc="http://purl.org/dc/elements/1.1/" xmlns:dcterms="http://purl.org/dc/terms/"><rdf:RDF><rdf:Description><dc:title>Notionists</dc:title><dc:creator>Zoish</dc:creator><dc:source xsi:type="dcterms:URI">https://heyzoish.gumroad.com/l/notionists</dc:source><dcterms:license xsi:type="dcterms:URI">https://creativecommons.org/publicdomain/zero/1.0/</dcterms:license><dc:rights>Remix of „Notionists” (https://heyzoish.gumroad.com/l/notionists) by „Zoish”, licensed under „CC0 1.0” (https://creativecommons.org/publicdomain/zero/1.0/)</dc:rights></rdf:Description></rdf:RDF></metadata><mask id="mixed5_1_viewboxMask"><rect width="1744" height="1744" rx="0" ry="0" x="0" y="0" fill="#fff" /></mask><g mask="url(#mixed5_1_viewboxMask)"><g transform="translate(531 487)"><path d="M554 727.7c-99.2 297-363.8 388.6-503.7 19.8-19.3-50.7 31-69.5 66.2-91.9 24.1-15.3 36.8-28.5 35.3-42.2-7-64.4-36.9-243.8-36.9-243.8l-3-5.8s.7-1.6-2.2 1.2c-3 3-9.9 34.2-37 34.2-24.5 0-49.2-10.9-61-86.3C7.2 285.6 9.6 214 40 201c12.5-5.3 24-7.2 35.2-.8 11.3 6.4-13-22 112-126C268.4 6.4 396.7-3.5 448.5 8 500.3 19.5 552 44.8 574.9 98.5c27.8 65-25.9 114.3-14 262.5-2.2 53.6.8 171.2-146.6 210.6-28 7.5-19.3 48.4 22.7 58.4 67 21 117 72.3 117 97.9" fill="#fff"/><path fill-rule="evenodd" clip-rule="evenodd" d="m554 266.2.1-1.4c4.1-36.4 8.2-71.7 27.1-103.4 6.5 4.4 5.7 10 3.7 15.2-19.9 51.2-18 104.4-16.2 157.6l.4 14c2.1 66.4-14.5 126.8-58.7 177.5-15.4 17.6-35.8 29.8-56.5 40.3-21.4 11-25.9 20.1-19.2 43.6l.8 2.6c1.4 3.9 2.8 7.9-1 11.8-4.5 4.6-9.5 3.3-14.8 1.8l-.6-.1a406.4 406.4 0 0 1-137-68.3c-6-4.4-10.8-10.3-15.5-16.1l-.3-.4c-2.5-3-3-7.8.5-10.4 3.3-2.5 5.8-.5 8.7 1.8l1 .9a145.5 145.5 0 0 0 76.3 31.7c13.4 1.4 26.6.9 40 .4 7.4-.3 14.8-.6 22.3-.5 10.2 0 18.7-4.7 26.7-9.2l2.8-1.6c27.8-15.5 54.3-32.8 72.2-60.7 16.1-25 25.9-52.2 31.6-80.9 7.2-36.1 6.6-72.7 6-109.8-.3-12-.5-24.2-.5-36.4ZM50.6 190.8c21.9-1.7 34 11.2 44.3 26.3a140.4 140.4 0 0 1 22.4 61.5c.5 3.7 1 7.6-1.2 11.3-4.5.6-4.9-3-5-5.6-.5-20.7-9.7-38.7-18.9-56.1-6.6-12.5-16.2-24.6-31.4-27.6-17.2-3.5-33 12-40.8 32.2-14.5 37.6-12 74.6 1.4 111 5.8 15.9 13.1 32.1 27.8 43.2 14.8 11.3 32.7 9.3 43.6-5.7l2-2.5c2-2.6 4-5.1 5-8 2.1-5.8 5.4-11.2 11.3-10.4 6.8 1 8 8.3 8.7 14a3661 3661 0 0 0 22 156.7l5.9 38.8c2.6 17.1 5.6 41.7 3.6 52.1a28 28 0 0 0-.3 2.2c-.4 2.8-.6 5-4.2 5.5-4.9.8-7-2-7.7-6.4-2.3-17-3-23.6-4-49.6-.9-25.2-5.6-50-10.4-74.9l-5-27c-5.2-30.8-10.3-62-10.8-97l-2 3c-7.6 11.3-13.7 20.5-24.5 24a40.5 40.5 0 0 1-46.1-12.5 127.8 127.8 0 0 1-28.8-55.8c-8.4-34-9.9-67.1.9-100.6 5.2-16.1 23.7-44.7 42.2-42Zm34.6 127.5c4.4 3.2 8.4 6 12-5.4-1.1-42.2-14.7-69.2-35.8-70.3 11.2 14.6 22 28.8 23 48.5a32.3 32.3 0 0 1-10.7-8.8c-2-2.2-4-4.4-6.5-6l-3-2.4c-4.8-3.6-9.7-7.4-17.8-4.5 3.8 5.8 9 10 14.3 14 6 4.7 12 9.3 15.6 16.5-10.6 7.7-15.2 17.7-9.7 29.9 4.8 10.5 11.9 19.2 25.9 19.8-.6-6.3-4.7-10.9-8.8-15.4-5-5.4-9.7-10.6-7.5-18.6 3.2-1.5 6.2.7 9 2.7Z" fill="#000"/></g><g transform="translate(178 1057)"><path d="M1314.4 694.4 10.7 691.1S44 481.4 106.9 362.2c73-138.7 176.8-250.5 390.4-316.9C516 39.5 669.8 114 669.8 114l108.7-70s175 48.2 241.2 85.5c84.2 47.3 179.3 187 223.1 296 46.6 115.8 71.6 269 71.6 269Z" fill="#fff"/><path fill-rule="evenodd" clip-rule="evenodd" d="M1290.7 617.2a2582 2582 0 0 0 17.3 77.2c4.7 0 8.2 0 11.4-.9a482.5 482.5 0 0 1-11.7-60.7c-2-13-4-26.1-6.6-39-6.2-30.4-13.2-60.5-22-90-10-33.6-21.5-66.9-35.3-99.3a743.8 743.8 0 0 0-48.2-97.7 685.2 685.2 0 0 0-64.4-91.1v-.2c-20.5-23.6-40.8-47-66.5-65.8-12.5-9.1-25.9-16.7-39.2-24.2-9-5.1-18.1-10.2-26.9-15.8-27.4-17.6-57.8-27-88.2-36.2-14.4-4.4-28.8-8.9-43-14.2a192.7 192.7 0 0 0-31.6-8c-18.4-3.5-37-7-53.2-19.4-2 8.4-7.7 9.7-13.5 11-3.1.7-6.2 1.4-8.8 3.2a1810.6 1810.6 0 0 1-54.4 36 3387.4 3387.4 0 0 0-30.4 20c-2.2 1.4-4.1 2.8-6.7 1.3-10.3-6-21.5-10.1-32.7-14.2-5.9-2.1-11.7-4.2-17.5-6.7l-17-6.9c-13.5-5.4-27.1-11-40-17.5-7-3.5-14.2-6-21.5-8.3-12.4-4-24.8-8.1-34.9-17.5-3.5-3.4-9.7-3.3-13.5 2-5.7 8.3-14.6 11.2-23.6 14.2l-15.8 5A426.6 426.6 0 0 0 410.4 68a1350.1 1350.1 0 0 0-82.1 39 403.3 403.3 0 0 0-88.4 61 601.8 601.8 0 0 0-102.2 122.5A768.3 768.3 0 0 0 84.5 390a897.7 897.7 0 0 0-32 82.8 714 714 0 0 0-20 65.8C30.7 545.8 29 553 27 560c-3 11.9-6 23.7-8.4 35.6-6.3 32.9-11.6 66-16.2 99 6.3 0 11.6 0 17.1-1.1 1-18.1 4.4-35.3 7.7-52.2l2.5-13a785.6 785.6 0 0 1 25.4-106.1l4-12C71.9 472 84.5 434 101.5 397.4c22.8-49.3 49-96.5 81.7-140.2a540.3 540.3 0 0 1 79.7-86.4c27.7-23.9 59-41.7 91.8-58.2 11.5-5.8 23.3-11 35-16.3A604.5 604.5 0 0 0 435 74.7c9.6-5.3 15.4-5 19.7 7.3a218.6 218.6 0 0 0 40.4 68.5 249 249 0 0 0 140.7 85.6c56 12 105.3-.3 146-40.4 22.1-21.6 43.2-44.9 54.9-74.4 4.5-11.5 8.6-23.3 12.7-35.3l6-17 34 10.8c10.7 3.5 21.5 7 32.4 10.3 45.7 14 86.6 38.4 125.6 65.4 43.3 30 75.4 71.4 105.2 114.2a769.7 769.7 0 0 1 56.5 97.6 766.7 766.7 0 0 1 42.5 102.7c11.7 35.3 22.3 71 30.5 107.6l8.6 39.6ZM615 98.2c8.3 3.9 16.7 7.8 26 9l4.5 2.2a52 52 0 0 0 17 6.2c-3 4.3-6 8.3-9 12.2-6.4 8.1-12.4 16-16 25.4l-2.3 5.9c-2.2 5.5-4.4 11-5.2 17-1.1 9.1-5.9 11.4-15.2 9.6a127 127 0 0 1-42.5-19.3c-10.1-6.3-20-12.9-30-19.4-13.3-8.8-26.7-17.6-40.5-25.8-17.4-10.5-25.2-27.1-32.4-44.3-3.1-7.6 3.4-12.6 9-16.4 10-7 21.4-7.2 32.9-4.2 19.4 5 37.5 13.2 55.7 21.4 11.6 5.2 23.1 10.4 35 14.8 4.4 1.6 8.7 3.6 13 5.6Zm130.6 92.4c-3.2 5-6.6 10-13.7 8-5.9-1.4-7.3-6.5-8.7-11.5l-.7-2.4a130 130 0 0 0-43.4-64c-22.6 17.1-30.8 41.4-37 66.8 0 .7-.3 1.4-.4 2.1-1.4 6.4-2.8 12.7-12 12-22.1-2-43.4-6.8-62-20.6-13.8-10.3-27.9-20.2-42-30a4158 4158 0 0 1-18.5-13c2 8 6.4 15.1 12.5 20.7a281.2 281.2 0 0 0 73.4 49.3 180 180 0 0 0 110.5 13.2c37.7-6.6 67.1-28.5 90.5-58.3l3.8-4.7c6.6-7.9 13.5-16.2 15-29.5-4.2 4.2-8.1 8.5-12 12.7-10.2 11.2-19.6 21.5-32.3 28.2a60.7 60.7 0 0 0-22 19.5l-1 1.5Zm83.8-93.5a18 18 0 0 1-7.1 8.8c-27 25.5-56 49-86.5 70.3a145.5 145.5 0 0 0-46.4-65L711 97c21.5-14 42.7-27.8 63.7-41.8 4-2.7 6.2-1 8.8.9l1.1.8a45 45 0 0 0 27.3 9.3c20.8-1 26.7 10.8 17.4 31Z" fill="#000"/><path d="M217.5 694.4c1.2-22.7 3.4-45.5 5.8-68.3 2.7-26.1 5.4-52.2 9.6-78.3 4-24.3 8.7-48.4 14.2-72.3 9-39.3 22.1-77.4 44.7-111.5 3-4.6 6-9 12-4.9 5.3 3.6 2.4 7.4.6 12.1-9.5 24-18.4 48-27.3 72.2A637.5 637.5 0 0 0 249.8 553c-5.9 33.8-8.2 68.2-12 102.3-1.3 12.3-2 24.6-3.2 38-5.5 1.1-10.7 1.1-17 1.1ZM1123.7 694.4c-9.2-36.8-12.3-74.6-22.4-111-7.7-28.1-14-56.8-24-84-7.1-19.3-14-39-23.4-57.6-12.7-25-23.3-51.2-34.6-77-1.3-2.9-3-6.3 1.2-8.9 4.5-2.6 7.5-.4 10 2.7 3.8 5 7.8 10.2 10.6 15.9 10 20.4 19.6 41 29.5 61.6a603.2 603.2 0 0 1 34.2 95.5 618.8 618.8 0 0 1 21.7 96.5c2.7 21.4 7.2 42.7 8.8 65.3-3.4 1-7 1-11.6 1ZM612.5 167c-8.2 2-11.1-2.7-12.5-8.4-1.5-6.2.8-11.7 6-15.5 3.3-2.4 7-2.4 10.9-.6 4.8 2.3 4.6 6.6 4.7 10.8.3 6.3-3.1 10.3-9 13.7ZM758.4 135.5c1.7 5.9 3 11.4-1.7 14.9-4.2 3-9.7 6.7-14.8 2-5.5-4.8-3.8-11.3-.2-16 4.2-5.4 10-8 16.7-1Z" fill="#000"/></g><g transform="translate(266 207)"><path d="M879.9 432.4c-70.1 14-182-53.7-265.8-105.6-4.9-3-11.3-3.2-13.7 4-12 36.1-42.4 55.2-70.3 76.6-11.3 8.7-23 17.3-35 25-29.7 19.1-39.7 50.9-53 80.6-10.5 23.8-26.3 42.2-51.3 51.4-11.7 4.4-14.3 2.7-14.2-10.1.1-22-6-43-18.8-60-20.4-27-38.8-31.2-67.5-11.4-6.5 4.5-9.1 14.7-14 22.9-9.7-3.4-13.6-12.8-18.2-19.9-24.7-37.9-35.1-80.4-37.6-125.1-1.1-21.3 6.1-41.3 11.8-61a192.4 192.4 0 0 1 51.5-89c23.8-22.6 52.3-34.5 84.1-41.2 26.6-5.5 53-6.5 79.7-4.4 8 .7 13.1-3.4 17.5-8.5a246 246 0 0 1 109.3-76.3c119.3-40.5 209.2 122.2 216.2 130.8 3 3.8 5.6 6.2 10.6 4.1 38.1-16.3 78.4-18.7 118.8-15 32.7 2.8 71.1 9.2 83.3 41.8 29.4 78.6-60 177.6-123.4 190.3Z" fill="#000"/></g><g transform="translate(791 871)"><path d="M80.7 65.4c-1.1-4.6-2.8-8.8 2-10.8C86.7 53 90 55 93 58a76 76 0 0 0 34.4 21c27 6.7 51-.5 71.2-19.9 3.4-3.2 6.7-6.5 10.2-9.5 2.4-2 5.1-3.2 8-.7 3 2.7 1.5 5.4-.1 8-13.6 21.4-31.7 35.8-58.1 37-8 .3-16.1 1-24.1.8-22.4-.6-38-14.3-53.8-29.3ZM49.3 54.5c.4-15.5 8-25.4 19.7-33 4.7-3 9.4-4 14.5-2.7 3.3 1 6.5 2.7 7 6.6.7 4.3-2.4 5.6-6 6.8a30.5 30.5 0 0 0-21.4 22.9c-1 4.3-2 9-7 9.4-5.9.6-5.2-5.4-6.8-10ZM230.4 35c0-8.8 5.4-7.4 9.7-6 7.2 2.3 16 18.6 14.7 26.5-.4 2.5-.4 5.3-3.3 6.4-3.4 1.3-5.8-.4-7.5-3.1a710 710 0 0 1-13.6-23.9Z" fill="#000"/></g><g transform="translate(653 805)"></g><g transform="translate(901 668)"><path d="M99.8 182.6c-8.7 16.5-33.4 25.7-48.5 18.9-4.3-2-6.2-5.8-7-10-.5-2.7.9-5.3 3.3-6.5 4.6-2 5.8 2.3 8.6 4.8 7 6 13 .7 19-3.4 5.8-4 9.1-8.5 4.3-14.7-10.5-13.1-14.8-29.2-21.8-44-3.1-6.5-5-13.5-3.8-21 .5-3.3 1.9-5.5 5.6-5.6 2.8 0 5 .8 5.9 3.8 7.5 26.3 23.3 48.6 34.6 73.1.5 1 0 2.5-.2 4.6Z" fill="#000"/></g><g transform="translate(610 680)"><path d="M407.4 122.5c13 .3 25.4 1.1 37.6 2.5 3 .4 5 3.3 5 6.7 0 3.3-1.7 5.6-4.7 7-11.2 4.8-22 8.2-33.7.2-6.5-4.5-9-8.7-4.2-16.4ZM247.6 117c7 0 7.8 3.8 7 8.5-2 10.2-20 22.4-30.4 20.5-5.9-1-10.5-4-10.7-10.5-.2-6.7 4.8-8.2 10.3-8.4 9-.3 15.8-5.2 23.8-10ZM215.1 76.6c5-12 9-29.4 24.1-22.5 20.7 9.4 13.9 30.7 9.7 47.4-1.6 6.3-14.5 15.9-18.3 14.3-16.3-6.8-19.2-21.7-15.5-39.2ZM442 113.4c-8.6 7.5-17 7.6-22.2-1.5-9-16-8.6-32.8 3.3-47.2 2.5-3 13.8-3.6 16.3-1 14 15 14.6 31.8 2.6 49.7Z" fill="#000"/></g><g transform="translate(610 680)"><g fill="#000"><path fill-rule="evenodd" clip-rule="evenodd" d="m326 14.3 154.5 1c4.7.2 9.4.6 14 1.3 7.1.9 10.4 4.2 12 12a181 181 0 0 1-6.3 90.4c-5.4 17.7-20 28.1-37.5 33.6-23 7.1-46.5 12.4-69.8 3.9-20.8-7.6-37.2-20-42.9-44-.7-3-1.6-5.9-2.5-8.8-2.5-8.3-5-16.5-3.2-25.7.7-4-3.1-5.9-6-7.4h-.1c-15-7.6-29.7-.2-32.4 16.5-3 18.3-9 35.8-19.4 50.8-16.5 23.9-41.6 29.4-69 26.1a97.2 97.2 0 0 1-56.2-26.6 58 58 0 0 1-20-48.8c.8-11.2-5.5-16.3-13.8-17.7-14.3-2.4-27.6-7.8-40.8-13.2-4.7-2-9.4-3.9-14.2-5.6-7.2-2.7-14.5-5-21.8-7.3a384.7 384.7 0 0 1-25-8.5c-3.8-1.4-7-2.6-6.4-8.5 5.7-2.6 11-1 16.4.8C39 29.8 42.8 31 46.8 31c-2.7-9-8.3-12.4-17.3-12.8A35.3 35.3 0 0 1 2 5C6.7.4 11 .7 15 1.8c21.4 5.8 43.2 9.1 65 12.4 18 2.7 36 5.4 53.8 9.6 10.3 2.3 21.4 2.4 31-6.5 6.3-5.6 15.5-5.5 24-5.3h3.1c25.3.3 50.5.9 76.2 1.4l32.3.7 25.6.2ZM150.5 80c3.3 41.7 26.7 63 62.7 71 23.6 5.2 52.3.1 66.8-26.8a203.8 203.8 0 0 0 17-47.6c4-15.2 14.3-20 35.7-18.3 14.3 1.2 20.9 7.9 22.8 22.5 1.4 11 3 22 5 32.8 2.5 13.7 19.5 30.3 33.3 33a117 117 0 0 0 64-4.6c12-4.3 22.9-10.4 28.7-23 10-22 13-45.3 12.7-69.2-.2-22-1.6-23.4-24.3-23.5h-42.2c-19.6 0-39.1 0-58.6-.2l-75-.8c-29-.4-58-.8-87.1-1-3.5 0-7.1-.3-10.7-.7-10.8-1-21.7-2-30.3 5.1-9 7.4-17.8 7.4-27.4 7.4h-3.4c-2.5 0-5-.5-7.5-1-4.2-.9-8.5-1.8-13.1-.1 1.3 14.8 4.7 27.7 21.9 31.2 6.3 1.2 9.7 4.8 9 13.8ZM74.5 26.6c8.9-1.2 17-2.2 20 10.5a195 195 0 0 0 4 11.4c-13-2.7-23.2-7.7-28.1-21.4l4.1-.5Z"/><path d="M287 44.8c-.8-6 3-7.4 7-7.4 19 0 38 0 57.1.5 4.4 0 8.5 2 11.1 5.5-6.9 8.1-53.6 9.4-75.3 1.4Z"/></g></g><g transform="translate(774 657)"><path d="M104.9 38.7C82.4 47 60.2 43 38.3 43c-3 0-6.3-2.2-9.2-4-2.7-1.5-4.4-4-3-7.4 1.5-3.7 4-5 8-4.5 27.2 3.7 53.7.8 79.9-7 5-1.6 13.3-8 16.2 1.6 3 10.2-6.8 10.8-13.4 13l-12 3.9ZM260.5 33.1c-7.2 2.7-13.5 5.3-19.9 7.6-2.4.8-5.1.9-6.8-1.8-1.6-2.4-1-4.4.5-7 13.4-22 56.2-24.9 71-4.4 1.9 2.4 3.3 5 4.2 7.8 1.3 4.1 2.4 9.2-2.2 11.5-4.3 2.2-7.7-1.1-10.7-4.5-14-15.5-17-16.3-36-9.2Z" fill="#000"/></g><g transform="translate(0 559)"></g></g>
    </g>
  </g>
  <g clip-path="url(#clip_group_5_2)">
    <g transform="translate(33.6,22.9) scale(0.0305)">
      <metadata xmlns:rdf="http://www.w3.org/1999/02/22-rdf-syntax-ns#" xmlns:xsi="http://www.w3.org/2001/XMLSchema-instance" xmlns:dc="http://purl.org/dc/elements/1.1/" xmlns:dcterms="http://purl.org/dc/terms/"><rdf:RDF><rdf:Description><dc:title>Notionists</dc:title><dc:creator>Zoish</dc:creator><dc:source xsi:type="dcterms:URI">https://heyzoish.gumroad.com/l/notionists</dc:source><dcterms:license xsi:type="dcterms:URI">https://creativecommons.org/publicdomain/zero/1.0/</dcterms:license><dc:rights>Remix of „Notionists” (https://heyzoish.gumroad.com/l/notionists) by „Zoish”, licensed under „CC0 1.0” (https://creativecommons.org/publicdomain/zero/1.0/)</dc:rights></rdf:Description></rdf:RDF></metadata><mask id="mixed5_2_viewboxMask"><rect width="1744" height="1744" rx="0" ry="0" x="0" y="0" fill="#fff" /></mask><g mask="url(#mixed5_2_viewboxMask)"><g transform="translate(531 487)"><path d="M554 727.7c-99.2 297-363.8 388.6-503.7 19.8-19.3-50.7 31-69.5 66.2-91.9 24.1-15.3 36.8-28.5 35.3-42.2-7-64.4-36.9-243.8-36.9-243.8l-3-5.8s.7-1.6-2.2 1.2c-3 3-9.9 34.2-37 34.2-24.5 0-49.2-10.9-61-86.3C7.2 285.6 9.6 214 40 201c12.5-5.3 24-7.2 35.2-.8 11.3 6.4-13-22 112-126C268.4 6.4 396.7-3.5 448.5 8 500.3 19.5 552 44.8 574.9 98.5c27.8 65-25.9 114.3-14 262.5-2.2 53.6.8 171.2-146.6 210.6-28 7.5-19.3 48.4 22.7 58.4 67 21 117 72.3 117 97.9" fill="#fff"/><path fill-rule="evenodd" clip-rule="evenodd" d="m554 266.2.1-1.4c4.1-36.4 8.2-71.7 27.1-103.4 6.5 4.4 5.7 10 3.7 15.2-19.9 51.2-18 104.4-16.2 157.6l.4 14c2.1 66.4-14.5 126.8-58.7 177.5-15.4 17.6-35.8 29.8-56.5 40.3-21.4 11-25.9 20.1-19.2 43.6l.8 2.6c1.4 3.9 2.8 7.9-1 11.8-4.5 4.6-9.5 3.3-14.8 1.8l-.6-.1a406.4 406.4 0 0 1-137-68.3c-6-4.4-10.8-10.3-15.5-16.1l-.3-.4c-2.5-3-3-7.8.5-10.4 3.3-2.5 5.8-.5 8.7 1.8l1 .9a145.5 145.5 0 0 0 76.3 31.7c13.4 1.4 26.6.9 40 .4 7.4-.3 14.8-.6 22.3-.5 10.2 0 18.7-4.7 26.7-9.2l2.8-1.6c27.8-15.5 54.3-32.8 72.2-60.7 16.1-25 25.9-52.2 31.6-80.9 7.2-36.1 6.6-72.7 6-109.8-.3-12-.5-24.2-.5-36.4ZM50.6 190.8c21.9-1.7 34 11.2 44.3 26.3a140.4 140.4 0 0 1 22.4 61.5c.5 3.7 1 7.6-1.2 11.3-4.5.6-4.9-3-5-5.6-.5-20.7-9.7-38.7-18.9-56.1-6.6-12.5-16.2-24.6-31.4-27.6-17.2-3.5-33 12-40.8 32.2-14.5 37.6-12 74.6 1.4 111 5.8 15.9 13.1 32.1 27.8 43.2 14.8 11.3 32.7 9.3 43.6-5.7l2-2.5c2-2.6 4-5.1 5-8 2.1-5.8 5.4-11.2 11.3-10.4 6.8 1 8 8.3 8.7 14a3661 3661 0 0 0 22 156.7l5.9 38.8c2.6 17.1 5.6 41.7 3.6 52.1a28 28 0 0 0-.3 2.2c-.4 2.8-.6 5-4.2 5.5-4.9.8-7-2-7.7-6.4-2.3-17-3-23.6-4-49.6-.9-25.2-5.6-50-10.4-74.9l-5-27c-5.2-30.8-10.3-62-10.8-97l-2 3c-7.6 11.3-13.7 20.5-24.5 24a40.5 40.5 0 0 1-46.1-12.5 127.8 127.8 0 0 1-28.8-55.8c-8.4-34-9.9-67.1.9-100.6 5.2-16.1 23.7-44.7 42.2-42Zm34.6 127.5c4.4 3.2 8.4 6 12-5.4-1.1-42.2-14.7-69.2-35.8-70.3 11.2 14.6 22 28.8 23 48.5a32.3 32.3 0 0 1-10.7-8.8c-2-2.2-4-4.4-6.5-6l-3-2.4c-4.8-3.6-9.7-7.4-17.8-4.5 3.8 5.8 9 10 14.3 14 6 4.7 12 9.3 15.6 16.5-10.6 7.7-15.2 17.7-9.7 29.9 4.8 10.5 11.9 19.2 25.9 19.8-.6-6.3-4.7-10.9-8.8-15.4-5-5.4-9.7-10.6-7.5-18.6 3.2-1.5 6.2.7 9 2.7Z" fill="#000"/></g><g transform="translate(178 1057)"><path d="M1291.6 689H83.2l8.6-63.3S14.2 599.3 6.5 584c-7.8-15.3 84.1-214.2 96.7-245.6 12.7-31.5 77-142.8 115.1-164C260.7 150.6 400 87.5 408 81.1c26.1-21 82.7-42.8 82.7-42.8V69l171.4 281 10.3 37.8S776 107 785.7 50C793.9 2 905.5 60.2 905.5 60.2s114.1 70.6 143 93.3c58.4 46.2 140 138.6 180.7 239.2 23.2 57 72.5 168.2 80.6 181.3 8.1 13-27 36-27 36l8.8 79.1Z" fill="#fff"/><path fill-rule="evenodd" clip-rule="evenodd" d="M1044.5 160c-24.1-19.9-48.3-39.8-75-55.2-4-2.2-7.8-4.6-11.7-7-13.2-7.8-26.4-15.8-41.4-20.6-1.8 10.2-1.4 20-.5 29.6A699 699 0 0 1 916 248c-1.4 11.5-1.1 23.3-.8 35l.2 12.3c0 6.8-1 13.6-2.7 20-2.4 9.2-6.7 13.3-16 14-8.3.6-16.6 1.9-24.8 3.2a187.8 187.8 0 0 1-40.3 3.4c-2.8-.2-5.6-.1-7.3 0H823l3.5 4.4c3.2 4 7 8.7 10.4 13.6 5.5 7.7 6.7 14.4 1.5 24.9-26 52.4-61 97.3-98.6 138.3-12 13.1-23.4 27.2-34.7 41.2-18.7 23.3-37.4 46.6-59.8 65.8-11.3 9.7-21.5 20.8-31.8 32a403.9 403.9 0 0 1-31.7 32.1c-13.3.7-26.2.7-40.2.7 6.4-12.8 11.6-26.5 16.8-40.2a497 497 0 0 1 15-36.4 858.8 858.8 0 0 0 26.7-64.4c6-16 6.3-32.2-4.2-46.8l-11.4-16c-20.4-28.5-40.9-57-64.2-82.7-10.6-11.6-13-30-6.3-47 1.7-4.2 3.2-8.5 4.8-12.9l2.1-5.8c-14-6-28-6.3-42.1-6.7-6.7 0-13.3-.2-19.8-1l-1.4-.2c-21.6-2.4-22-2.5-29.6-26.2a699.8 699.8 0 0 1-31.6-157 134.6 134.6 0 0 0-9.9-43.4c-22.8 9.3-44.6 19.8-66.3 30.3l-1 .4c-24.7 12-49.2 24.9-73.5 38.1-36 19.8-64.1 49.8-87 86.6l-.5.8c-16.7 26.8-33.3 53.6-46.4 83L88 394.4l-13.3 29.3-10.5 23.1c-9.2 20.2-18.4 40.3-27 60.7a795.9 795.9 0 0 0-20.4 52.4c-4 11.7-.1 17 8.3 20l15 6a206 206 0 0 0 43.3 13.8c20 3.2 38 11.5 56 19.8l1.3.6 1.4.6c30.3 14 60 29.3 89.8 44.7a360.8 360.8 0 0 1 36.6 22.7c-9.6.8-19.2 1-28.8.3a620 620 0 0 0-80.9-37.3c-19.4-7.8-38.8-15.6-58-25a565 565 0 0 1-4.6 21.6C93 662 90 675.2 89.6 689H77c-2.2-7.2-.6-14 .9-20.8l1.2-5.5c2-11.3 1.2-19.7-11.4-22.1-18.5-3.7-34-14.8-49.6-25.9a1279 1279 0 0 0-5-3.5c-12-8.5-15.8-26.2-11.2-47 5.2-23.5 14.4-45 23.7-66.5l1.3-3c16.3-38 33.2-75.5 50.2-113l13.4-29.8c25.7-57.1 55.5-112 97.5-156.4 21-22.2 45-38.9 71.7-51.8 7.8-3.7 15.6-7.6 23.4-11.5 20-10 40-20 60.5-28.2 19.3-7.6 28-17 36.4-26.3 9-9.7 17.8-19.3 38.6-26.2l13.9-4.8c16.8-6 33.6-11.8 51.4-13.5h1c1.3-.1 2.6-.2 3.4-1l.3-.3c4-4 8.3-8 13-1.6a17.5 17.5 0 0 1 1 19.2c-7 10.8-3.2 21 .3 30.4l.3.9c8.4 22 60.2 109.5 78.7 134.6l6 7.9c21 28 72.4 96.4 87.9 143.7 6.2-12.1 10.6-25 14.9-37.7l5.2-15a2199 2199 0 0 0 29.2-86.7c3.7-11.5 7-23 10.2-34.7 2.7-9.4 5.3-18.8 8.2-28 4.3-14.2 8.8-28.2 13.3-42.2l9-28.2 5.9-19.2 6.5-21.5c8.3-25.8 10.4-30.5 34-29.7 29.2 1 63.6 11.3 83.6 19.7 96 40.4 248.5 140.6 319.7 290.2a2276 2276 0 0 1 59.5 140.3c17.5 44 31.2 78.6 42.6 95 9.6 14 8.5 22-4 32.1a92.1 92.1 0 0 0-4.7 4.1c-4 3.7-8 7.4-13.2 9-5.6 1.7-7.3 6.5-6.5 13a2842 2842 0 0 1 6.5 60.4c-4.1 1-8 1-13.3.1-4-9.2-3.8-18-3.6-26.5v-1c.5-15.5-3.5-29.7-7.7-44.6l-3-10.9c-3.3 1.4-6.6 2.7-10 3.9-7 2.6-13.7 5.1-20 8.8a252.2 252.2 0 0 1-76 30.5c-20.9 4.4-30.5 17.1-27.6 40.8-5 .1-10.1-.3-15.1-1.2-2-41.7 23.2-51.6 55.8-64.4l11.7-4.7c47.4-19.5 108-47.2 108-47.2s-61.1-143.9-82.6-198.2c-42-106.6-147.6-196.7-151.1-199.5l-16.7-13.7ZM729.3 261.3a2651.4 2651.4 0 0 1-51.6 140.5c-14 35.6-29.2 70.6-44.4 105.5l-1.5 3.6c-5.5 12.4-10.6 25-15.7 37.5-7.5 18.2-15 36.5-23.2 54.3-6.7 14.4-12.5 29.3-18.3 44.3l-8 20.4-.5 1.2c-1.2 2.7-2.4 5.4.4 8 2.1 2 4.4.5 6.2-1 2.4-2 4.8-4.1 7-6.4l13-13.5 18.4-19 19.5-19.6c10.6-10.6 21.2-21.1 31.6-32 7.5-7.8 14-16.7 20.5-25.6 7-9.5 14-19 22-27a560 560 0 0 0 58.8-68c6.2-8.5 12.7-16.8 19.2-25.1 14.3-18.5 28.6-37 40.1-58.1 5.2-9.5 6.4-16.1-2.4-23.8-6.7-6-12.3-13.6-17.8-21l-.7-1-.4-.5c-3-4.2-6.6-9-3.2-15.7 7.4-1 14.9-1.3 22.4-1.2 21 0 42-.8 63-1.6l3.7-.1c7.2-.3 11.9-4.4 12.2-13.4a1433.4 1433.4 0 0 1 1.8-34.5l1.5-25c1.8-28.5 3.6-57 2.5-85.5-1-24.3-1.4-48.7-.1-73 .7-12-3.3-17.6-11.7-22.9-23.6-14.8-49.5-18.3-75.4-21.9l-11.6-1.6c-6.6-1-8.8 3.4-10.5 8.8-1.6 5.2-3.5 10.4-5.3 15.6-2.8 7.7-5.6 15.5-7.6 23.6-3.3 13.4-8 26.2-12.7 39-2.8 7.6-5.6 15.3-8.1 23-4.6 14.4-8.7 29-12.8 43.8-5.9 21-11.8 42.5-19.6 63.9a28 28 0 0 1-.7 5Zm-240.7-172 .5 1.2C505.6 127.3 585.3 247.1 617 291l4.5 6.2c16.5 22.3 46.3 62.7 38 95.6a486 486 0 0 1-34 96c-.9 1.9-1.5 4-2.2 6.1a23.7 23.7 0 0 1-6.3 11.8c-13-22-28.3-42-43.6-61.9-6.9-9-13.8-18-20.5-27.2-4.8-6.6-10.2-12.6-15.5-18.7-4.5-5-9-10-13.1-15.4-5.1-6.6-4.6-10.9-1.4-16.3 3.5-5.9 5.7-12.4 8-18.9l1.8-5.4c4.7-13 1.5-19.8-10.8-23.7-8.5-2.6-17.2-2.7-25.9-2.7-5.6 0-11.2 0-16.7-.8-.6 0-1.3 0-2 .2l-1.4.2c-27.8.5-30.2-2-39.1-30.8A625.2 625.2 0 0 1 412 162.6c-1-8.8-2.6-17.4-4.2-26-1.5-7.6-3-15.1-3.9-22.8-2-15.8.5-21.5 13.3-27 14.6-6.3 19.1-12.7 23.2-18.5 4.6-6.5 8.7-12.3 25.8-16.6h.2c13.3-3.4 14.2-3.7 14.8 12.4.3 9.3 4 17.5 7.4 25.1Z" fill="#000"/></g><g transform="translate(266 207)"><path d="M401.3 246.7c8.1-5.9 18.5-6.8 20.8-19.3 1.3-7.2 9.5.4 14.5-1.3-8.3-22.8-3.5-31.4 17.3-31.1 11.8-21 14.1-22 30.3-10.7 5.3-8.2 2.6-17.4 3-26 .6-8.9 0-18 1-26.7.8-5.4 3.5-11 10-12.1 6-1 10 2.1 13.9 6.8 7.3 9 18.6 14 23.4 29.2 8-24.7-7.1-49.2 14.3-67.2l32.8 25c3.6-7.3 1.2-15 1.7-22.1.4-6.8 0-13.7.4-20.5.2-4.3 1.2-9 6-10.3 4-1.1 5.5 3.1 8 5.4 15 14 29.5 28.6 39.4 47.7V86c-.2-5.1 1-10.2 3.2-14.8 4-8 8.6-9.6 15.7-3.2 13 11.9 24.8 24.5 29.3 42.2.7 3.8 3.2 6.9 6.8 8.4 3.7-14.4-2.2-26.8-6.2-39.4-3.3-10.5-4.7-20.4 2.6-30.3 5.1-6.9 10-7.3 13.7-.4 9 16.6 31.4 17 40 33.7 20.7 1.5 29.8 16.7 38.6 32.3 3 5.2 4.5 11.2 4 17.2-.6 8.2 2 15.8 5.1 23.6 3-10.1 12.8-17.8 6.3-31.7 10.1 3.2 14.7 7.6 16.7 14.2 2.7 9 10.2 15.7 12 25.2a7 7 0 0 0 4.1 4.5c31.4 9 36.5 35 40.3 62 3.4 24.4-7.1 45.8-14 68-1.3 4.4-3 8.7-5.4 16 7-4.4 12.3-6.6 16.2-10.4 7-6.9 12-4.3 16.6 2.4 7.6 11.3 5 24 3.4 36-1 8.1 17.1 49.6-14.4 89.5-8.9 11.2-19 17-25.8 28-2.8 4.6-7.8 2.2-9.7-2.6-1.9-4.7-4.2-9.8-4.2-14.7.5-37-15.6-66-43.3-89.4-1-.8-2.7-1.4-2.9-2.4-3.5-19-18.4-14.1-31-15.6-18.4-2.1-37-5.2-50.1-20.6-3.3-3.8-7-4-11.2-4.8-23.3-4.2-46.4 27.3-62.4 9.4C616.8 301 599 300.1 579 303c-23.2 3.2-41.8 16.8-60.8 28.3-19.1 11.6-104 41.6-114.4 124.4a62 62 0 0 0 4 31c4.3 10.5 4.7 21.6 8.5 32 4.3 11.7.2 23.2-6.7 32.6-6 8.4-10 17.7-14.8 26.6-2.2 4.4-4.5 9.3-9.6 8.8-6-.6-7.5-6-8-11.5-2-24.2-6.5-47.8-20.2-68.7-4.1-6.3-7.6-13.4-12.9-18.7-11.4-11.5-13.9-26-15.3-40.8-3.5-36.1 7.2-69 19.6-102.6 13-35 35-64.5 53-97.6Z" fill="#000"/></g><g transform="translate(791 871)"><g fill-rule="evenodd" clip-rule="evenodd"><path d="M104.5 69.3c5.8 1.4 12 3 10 11.7-4 1.5-6.9-.3-9.8-2.1-3.5-2.1-7-4.2-12.2-1.2 1.5-8.5 5.9-10 11.2-8.6.3 0 .5 0 .8.2Zm93.3 5.8c3.4 3.2 1.2 7-1.4 10-1.3.5-2.5 1.1-3.6 1.7-3.5 1.9-6.4 3.4-10 1.6-3-5.4-2.7-10.4 3-13.7 3.8-2 8.6-2.6 12 .4Zm-24.2 13.2c1.2-7.3-1.2-11.4-9.3-10.4-4.9.7-9.6 1.9-8.8 8.2.7 6.6 5 6.2 9.1 5.8l3.6-.2c1.5.1 3-1.1 5.4-3.4ZM126.3 106l1.5-.3c1.5-.2 3-.5 3.2-3-16.9-.8-30.7-8.7-44.4-20.5a40.8 40.8 0 0 0 39.7 23.8Zm.2-20c2.4 6.8 7.8 6.8 13.3 5 3.8-1.4 3.5-5.4 3.3-8.7-.4-5-3.8-6-8-6.3-6.1-.5-8.2 2.8-8.6 10Z" fill="#fff"/><path d="M186.9 60.6a76.9 76.9 0 0 1-41 4.6c-13.1-.8-24.3-4.5-35.4-9C99.3 52 83.6 58.4 76 69.5c-6.7 10-6 20 3.5 30 10.8 11.5 24.3 20.7 40 19.6 9-.7 18-1.6 27-2.6 20.7-2.1 41.3-4.3 62.4-3 17.5 1 26.1-15.5 21.2-32.7-5.7-19.4-22.6-27.3-43.3-20.1Zm-22.6 17.3c8-1 10.5 3 9.3 10.4-2.4 2.3-4 3.5-5.4 3.4-1 0-2.3 0-3.6.2-4 .4-8.4.8-9.1-5.8-.8-6.3 4-7.5 8.8-8.2Zm-38 28 1.5-.3c1.5-.2 3-.5 3.2-3-16.9-.8-30.7-8.7-44.4-20.5a40.8 40.8 0 0 0 39.7 23.8Zm71.5-30.8c3.4 3.2 1.2 7-1.4 10-1.3.5-2.5 1.1-3.6 1.7-3.5 1.9-6.4 3.4-10 1.6-3-5.4-2.7-10.4 3-13.7 3.8-2 8.6-2.6 12 .4Zm-71.3 10.7c2.4 7 7.8 7 13.3 5 3.8-1.3 3.5-5.3 3.3-8.6-.4-5-3.8-6-8-6.3-6.1-.5-8.2 2.8-8.6 10Zm-22-16.5c5.8 1.4 12 3 10 11.7-4 1.5-6.9-.3-9.8-2.1-3.5-2.1-7-4.2-12.2-1.2 1.5-8.5 5.9-10 11.2-8.6.3 0 .5 0 .8.2Z" fill="#000"/></g></g><g transform="translate(653 805)"></g><g transform="translate(901 668)"><path d="M41.2 197.6c-5.4-4.8-10.2-9.4-5.5-15.8 5-6.7 9.8.1 14.7 1.4 3.2.9 5.6 4.4 9.3 3.3 6.5-1.8 14-2.5 15-11.4.8-8.5-6-10.5-11.7-13.1-4.4-2-13 1-11.3-8 1.5-8.3 9.1-7.7 15.6-7.1a25 25 0 0 1 24 25c.5 16.2-8.4 28.5-23.3 30-8.7 1-18 2-26.8-4.3Z" fill="#000"/></g><g transform="translate(610 680)"><path d="M407.4 122.5c13 .3 25.4 1.1 37.6 2.5 3 .4 5 3.3 5 6.7 0 3.3-1.7 5.6-4.7 7-11.2 4.8-22 8.2-33.7.2-6.5-4.5-9-8.7-4.2-16.4ZM247.6 117c7 0 7.8 3.8 7 8.5-2 10.2-20 22.4-30.4 20.5-5.9-1-10.5-4-10.7-10.5-.2-6.7 4.8-8.2 10.3-8.4 9-.3 15.8-5.2 23.8-10ZM215.1 76.6c5-12 9-29.4 24.1-22.5 20.7 9.4 13.9 30.7 9.7 47.4-1.6 6.3-14.5 15.9-18.3 14.3-16.3-6.8-19.2-21.7-15.5-39.2ZM442 113.4c-8.6 7.5-17 7.6-22.2-1.5-9-16-8.6-32.8 3.3-47.2 2.5-3 13.8-3.6 16.3-1 14 15 14.6 31.8 2.6 49.7Z" fill="#000"/></g><g transform="translate(610 680)"></g><g transform="translate(774 657)"><path d="M53.5 37.6a79.2 79.2 0 0 0 27.3-19.8c2.7-3 6.1-5.7 9.9-5 6.7 1.1 16.2-1 18.8 7.5 2.1 7-5.2 10.5-10.3 14.4-13.8 10.5-28.2 19-46.6 16.7-4.6-.5-9.7.2-11-6.2 1.6-5.5 7.3-4.9 11.9-7.6ZM251.4 15c8.5-1.7 12.6 4.1 17.1 8.2 8.1 7.4 14.7 16.4 26 19.8 3.3 1 5.7 4 4 8-1.5 3.5-4 5.7-8 4.6-14.3-3.8-29.2-5.9-40.6-16.8-10-9.6-10.2-14 1.5-23.7Z" fill="#000"/></g><g transform="translate(0 559)"></g></g>
    </g>
  </g>
</svg>
