<?xml version="1.0" encoding="UTF-8"?>
<svg xmlns="http://www.w3.org/2000/svg" viewBox="0 0 96 96" fill="none">
  <circle cx="48" cy="48" r="40" fill="#DDE8FF" stroke="#FFFFFF" stroke-width="2"/>
  <defs>
    <clipPath id="clip_group_7_0"><circle cx="48" cy="29.5" r="27.8" /></clipPath>
    <clipPath id="clip_group_7_1"><circle cx="34.8" cy="51.5" r="25.5" /></clipPath>
    <clipPath id="clip_group_7_2"><circle cx="61.2" cy="51.5" r="25.5" /></clipPath>
  </defs>
  <g clip-path="url(#clip_group_7_0)">
    <g transform="translate(18.4,2.4) scale(0.033)">
      <metadata xmlns:rdf="http://www.w3.org/1999/02/22-rdf-syntax-ns#" xmlns:xsi="http://www.w3.org/2001/XMLSchema-instance" xmlns:dc="http://purl.org/dc/elements/1.1/" xmlns:dcterms="http://purl.org/dc/terms/"><rdf:RDF><rdf:Description><dc:title>Notionists</dc:title><dc:creator>Zoish</dc:creator><dc:source xsi:type="dcterms:URI">https://heyzoish.gumroad.com/l/notionists</dc:source><dcterms:license xsi:type="dcterms:URI">https://creativecommons.org/publicdomain/zero/1.0/</dcterms:license><dc:rights>Remix of „Notionists” (https://heyzoish.gumroad.com/l/notionists) by „Zoish”, licensed under „CC0 1.0” (https://creativecommons.org/publicdomain/zero/1.0/)</dc:rights></rdf:Description></rdf:RDF></metadata><mask id="mixed7_0_viewboxMask"><rect width="1744" height="1744" rx="0" ry="0" x="0" y="0" fill="#fff" /></mask><g mask="url(#mixed7_0_viewboxMask)"><g transform="translate(531 487)"><path d="M554 727.7c-99.2 297-363.8 388.6-503.7 19.8-19.3-50.7 31-69.5 66.2-91.9 24.1-15.3 36.8-28.5 35.3-42.2-7-64.4-36.9-243.8-36.9-243.8l-3-5.8s.7-1.6-2.2 1.2c-3 3-9.9 34.2-37 34.2-24.5 0-49.2-10.9-61-86.3C7.2 285.6 9.6 214 40 201c12.5-5.3 24-7.2 35.2-.8 11.3 6.4-13-22 112-126C268.4 6.4 396.7-3.5 448.5 8 500.3 19.5 552 44.8 574.9 98.5c27.8 65-25.9 114.3-14 262.5-2.2 53.6.8 171.2-146.6 210.6-28 7.5-19.3 48.4 22.7 58.4 67 21 117 72.3 117 97.9" fill="#fff"/><path fill-rule="evenodd" clip-rule="evenodd" d="m554 266.2.1-1.4c4.1-36.4 8.2-71.7 27.1-103.4 6.5 4.4 5.7 10 3.7 15.2-19.9 51.2-18 104.4-16.2 157.6l.4 14c2.1 66.4-14.5 126.8-58.7 177.5-15.4 17.6-35.8 29.8-56.5 40.3-21.4 11-25.9 20.1-19.2 43.6l.8 2.6c1.4 3.9 2.8 7.9-1 11.8-4.5 4.6-9.5 3.3-14.8 1.8l-.6-.1a406.4 406.4 0 0 1-137-68.3c-6-4.4-10.8-10.3-15.5-16.1l-.3-.4c-2.5-3-3-7.8.5-10.4 3.3-2.5 5.8-.5 8.7 1.8l1 .9a145.5 145.5 0 0 0 76.3 31.7c13.4 1.4 26.6.9 40 .4 7.4-.3 14.8-.6 22.3-.5 10.2 0 18.7-4.7 26.7-9.2l2.8-1.6c27.8-15.5 54.3-32.8 72.2-60.7 16.1-25 25.9-52.2 31.6-80.9 7.2-36.1 6.6-72.7 6-109.8-.3-12-.5-24.2-.5-36.4ZM50.6 190.8c21.9-1.7 34 11.2 44.3 26.3a140.4 140.4 0 0 1 22.4 61.5c.5 3.7 1 7.6-1.2 11.3-4.5.6-4.9-3-5-5.6-.5-20.7-9.7-38.7-18.9-56.1-6.6-12.5-16.2-24.6-31.4-27.6-17.2-3.5-33 12-40.8 32.2-14.5 37.6-12 74.6 1.4 111 5.8 15.9 13.1 32.1 27.8 43.2 14.8 11.3 32.7 9.3 43.6-5.7l2-2.5c2-2.6 4-5.1 5-8 2.1-5.8 5.4-11.2 11.3-10.4 6.8 1 8 8.3 8.7 14a3661 3661 0 0 0 22 156.7l5.9 38.8c2.6 17.1 5.6 41.7 3.6 52.1a28 28 0 0 0-.3 2.2c-.4 2.8-.6 5-4.2 5.5-4.9.8-7-2-7.7-6.4-2.3-17-3-23.6-4-49.6-.9-25.2-5.6-50-10.4-74.9l-5-27c-5.2-30.8-10.3-62-10.8-97l-2 3c-7.6 11.3-13.7 20.5-24.5 24a40.5 40.5 0 0 1-46.1-12.5 127.8 127.8 0 0 1-28.8-55.8c-8.4-34-9.9-67.1.9-100.6 5.2-16.1 23.7-44.7 42.2-42Zm34.6 127.5c4.4 3.2 8.4 6 12-5.4-1.1-42.2-14.7-69.2-35.8-70.3 11.2 14.6 22 28.8 23 48.5a32.3 32.3 0 0 1-10.7-8.8c-2-2.2-4-4.4-6.5-6l-3-2.4c-4.8-3.6-9.7-7.4-17.8-4.5 3.8 5.8 9 10 14.3 14 6 4.7 12 9.3 15.6 16.5-10.6 7.7-15.2 17.7-9.7 29.9 4.8 10.5 11.9 19.2 25.9 19.8-.6-6.3-4.7-10.9-8.8-15.4-5-5.4-9.7-10.6-7.5-18.6 3.2-1.5 6.2.7 9 2.7Z" fill="#000"/></g><g transform="translate(178 1057)"><path d="M1294.6 717H83.4l8.6-63.2S14.3 627.3 6.5 612c-7.8-15.3 84.3-214 97-245.4 12.6-31.5 76.6-148 135.7-174 39.7-17.3 137.8-75.2 175-91.5C419 99 431 81 438.6 68c7.6-13.2 15.7 13.4 42-28.5 6.7-10.6 34.7 7 50.7 17.3 13.6 9 36.7 44.5 142.6 37.8C817.5 85.7 837 19.3 853.6 29c24 14 53.8 56.5 53.8 56.5s109.8 69 138.7 91.6c59.5 46.4 123.1 81.9 180.6 251.6 19.9 58.6 78 160.2 86 173.2 8.2 13.1-27 36-27 36l8.9 79.1Z" fill="#fff"/><path d="M1063.5 198.7c-30.2-25.3-60-47-93.8-66.2-2.3-1.3-4.7-3.4-7.4-1.2-3.7 3.2-2.5 7.6-1.5 11.7 6.1 24.7.6 46.4-15.4 63.8a85.1 85.1 0 0 1-36 22.7c-9.3 3-12.6 8-9.8 19.7 5.4 21.8 11.7 43.1 11.2 66.9-.7 29-12.8 49.6-29.5 68.8-23 26.6-53.7 35.9-83.7 46.8a383.3 383.3 0 0 0-90.2 45.3c-15.2 10.7-23 30-30.6 48a292.5 292.5 0 0 0-18.6 77.1c-2.5 18.7 6 34.8 9.7 52 5 23.3 14.4 44.4 30.3 62-3.9.9-7.7.9-12.6.9a182.8 182.8 0 0 1-36-137.3c5.3-39.8 18.7-76.8 45.6-105.2 16-17 36.4-26.8 56.3-37 28.7-14.6 60-22.2 88.5-37 29-15.2 51.2-39.3 55.6-79a164 164 0 0 0-6.6-61c-5-19-.5-31.3 16.5-42 9.4-6 19.7-9.4 28.3-18a53 53 0 0 0 17.3-32.9c2.8-27.8-2-51.7-22.2-66.3-11.7-8.4-16-8-25.6 3.3-3.8 4.4-7.2 9-13.4 5.7-1.7-2.1-.3-4 .5-5.8 2.8-5.6 10.7-8.8 8.2-17-3.2-10.7-6.4-22-15.4-28.9-6.4-4.8-13-6.4-20-1.7-3.3 2.2-6.5 4.5-10 6-1.4.6-3 .6-4.5 0-1.4-.7-2.5-2-3.1-3.6-1.6-3.6.6-5.3 2.8-7.2 3.6-3 7-6.2 11-10-6.4-8-12.1-5.6-18-.9-10.3 8.4-20 18.1-31 24.8a211.2 211.2 0 0 1-100 31.7c-33.9 1.4-67.8 3.2-101.6.8C587 96.9 567.2 87 547.3 78c-16.4-7.4-31-18.4-46.8-27.1-13.5-7.4-20.5-4.6-28 10-9.5 18.5-7 33.2 8.6 49.4 3.6 3.8 11.3 7.6 7.2 13.5-5 7-10.2-1.5-14.1-4.9-10.8-9.4-20-20.4-21.1-37-.3-4-.5-8-5.2-8.5-3.6-.4-6 .9-8.5 4.5-8.2 12.4-8 18.6 3 36.7 2.5 4.3 5.8 8 2.2 14.2-11-4.8-14.8-17.1-20.7-27.2-6.6 5.5-4.4 11-2.9 16a147.9 147.9 0 0 0 62.4 81.8c13.7 9 27.5 18 42.7 22.9 36.4 11.6 72.3 26.3 111.4 23.3 25.9-2 52.2 3 77.7-6.3 6.7-2.4 9.2 2.5 8.5 9.1-2.5 26.3-7.4 51.7-21.2 74-22.7 36.6-55.2 59.4-88.8 80.6-25.8 16.3-54.8 25.3-79 45.5a190.8 190.8 0 0 0-46.5 54.3C465.5 544 462 588.6 471.9 635c5.2 24.8 19.8 43.2 34.4 61.4 5.3 6.6 11.2 12.7 17 19.8-3.8.9-7.7.9-12.5.9-24.9-24.6-46.3-51-53.4-88.3a217 217 0 0 1 .3-77.2c7.8-46 30.5-81.7 62.1-110.1 14.8-13.2 31-24 48.4-32.2 43.2-20.5 83.2-46.6 115.5-85.8a105 105 0 0 0 23.8-63.6H632c-27.8 0-54.3-7-80.8-15.8a296 296 0 0 1-70.4-33 163 163 0 0 1-66.8-82.4c-3.2-9-6.4-10.2-13.3-5.7-27.6 17.7-57.8 28.4-86.6 42.9-49.3 24.8-101.5 44.3-137.1 94.5a789 789 0 0 0-45.2 71.5C103.4 382.6 82.1 437.6 58 491c-13 28.6-26.3 57-37.6 86.5-9 23.4-7.5 27.2 14.7 34 13.4 4 26.3 11.1 40 13.5 36.2 6.4 68.5 24.7 101.7 40.3a530 530 0 0 1 77.1 41.6c4.9 3.4 11.4 2.2 15 9.2-9.6.8-19.2 1-28.8.3-45.3-26-93-39.7-138.8-62-5 23-10.7 42.1-11.6 62.6H77.1c-2.8-9.2.5-17.6 2.1-26.3 2.1-11.3 1.2-19.6-11.4-22-20.5-4-37.4-17.3-54.6-29.4-12.1-8.4-16-26.2-11.3-47 5.5-25 15.6-47.6 25.5-70.5 20.5-47.5 42-94.5 63.2-141.6 25.8-57 55.5-112 97.7-156.2 21-22 45.2-38.4 71.6-51.9 22.8-11.7 45.6-23.8 69-33.8 20-8.7 39-19.6 58.7-29 14.6-6.9 28.3-14.7 36-32.2 6.1-13.8 15.5-24.6 31.5-20.1 4.2 1.2 6-1.6 8.1-5 16-24.3 28-26.8 51.8-11.2 6.6 4.3 42.5 24.2 53 29.5 23.8 12 49.6 18 75.7 17.8 26.4-.2 52.8-2.6 79.1-4.5C753.8 81.4 782 68 809 52c9.8-5.8 18.4-14.6 27.8-21.6 11.3-8.4 23.5-6.9 33.5 3.9 4 4 8.3 7.3 13.2 9.7 13.1 7 17.5 24.3 27.8 32 10.4 7.7 25.2 7.9 34.6 20.6 6.3 8.6 16.4 11.6 25 17 248.7 157.4 198.5 193.2 296.6 375.9 17.1 31.9 29.5 66.4 46.1 98.5.2.3.3.7.6 1 16.3 27 13.1 39.2-14 52.2-7.1 3.4-10.8 6.6-9 16.9 3.3 18.7 4.7 37.8 6.7 57.8-4 1-8 1-13.1 0-4.2-10.9-3.7-21.1-3.7-31.3-.2-17.7-5.8-33.8-10.4-51.4-10.2 4-20 6.2-28.4 11.1-27 15.8-55 27.2-85 33-15.1 3-21.7 13.5-21.7 30.9.2 3 .5 5.9 1 8.8-5.1.1-10.2-.3-15.2-1.2-2.6-76 172-113.3 172-113.3s-32.1-68.2-55.2-126.2c-26.7-67.2-42.4-95.4-57.5-133.3-23.2-58.5-113.7-141.4-117.1-144.3Z" fill="#000"/><path d="M523.3 613.7c-10.3-30-7.6-58 5.5-85.1l5.3-11.2c2-4.7 5.2-8 9.8-5.6 4.4 2.2 3 6.6 1.7 11-3.4 12-9.4 22.8-12.7 35-7.8 29.1.5 53 16 75 6.4 9 14.9 16.3 16.1 29.2a88.3 88.3 0 0 1-41.7-48.3ZM829.8 163c16.4-22.2 34-33.7 45.2-29a35 35 0 0 1-11.2 12 133.7 133.7 0 0 0-38 39.3c-15.3 22.7-15.8 46.3-2.4 70.6a97.5 97.5 0 0 1 11.5 40.8c1.2 16.6-5.4 28.5-19.8 35.3-.5-.7-1.3-1.7-1.2-2 15.4-21.9 9-44.4 1.6-67-11.5-35.8-8.3-69.3 14.3-100Z" fill="#000"/></g><g transform="translate(266 207)"><path d="M873.7 286.9c-3 3.5-7.7 4.1-8.3 9.7 12.2 7.6 24 16.3 29.7 30.8 7.3 18.3 1.5 35.4-4.7 52-10.2 27.1-25.4 51.8-39.4 77-4.5 8-6.2 17.5-13.6 26-3.8-9-1.8-16.6-1.3-24.4 3-49-2-96-37.3-134.2a60.8 60.8 0 0 0-27.4-19.3c-7.3 12.3-11.1 26.4-21 37.3-27 30-60.6 48.1-98.6 60.5-14.3 4.6-28.8 6.7-43.4 9.2-6.2 1-11.7 3.9-15.3 8.5-6.6 8.4-15.6 13-24.7 17.6a151.3 151.3 0 0 1-87.7 15.4c-5.8-.6-8.9.6-11.7 6.6-12.6 26.4-29 49.3-57.9 61.1a37.6 37.6 0 0 0-23.8 32.5c-.4 3.6.9 7.8-3.5 10.8-8.8-1.4-5-8.8-6-13.9-5.6-27.8-15.9-52.8-39.5-70.8-20.9-15.7-50.5 1.7-55.5 18.2-7.4 24.4-13.8 48.9-7.9 75.8 5 22.9 11.4 45.2 18.2 67.5.7 1.8.2 4-1.3 5.2-11.7-5.1-16.9-16.8-22.2-26.5-15-27.5-30.2-55.4-35-86.8-4.6-31.3.3-61.3 19-88.3 13-18.7 28.7-34.5 47.9-46.6 15-9.6 21.5-25 27.2-40.3 18.7-50.4 52.7-88.5 93.8-121.6a453.5 453.5 0 0 1 95.2-61c44.5-20.4 90.3-37.6 140.3-39.5 9.3-.4 18.4-2.7 27.9-.3 24.4 6.2 36.2 19.1 35 44-.3 6.8-1.2 13.5-1.9 21.6a97 97 0 0 0 33.5-6 588.8 588.8 0 0 1 87-19.9c18.6-3.2 37 .9 52.9 10.7 25.2 15.5 25 54.2 5.7 78-7 8.7-17 14-24.4 23.4Z" fill="#000"/></g><g transform="translate(791 871)"><path d="M188.2 86.4c-26.7 11.3-52.6 12.5-78-.5-6.5-3.2-12-2.4-18.7.7-3-9.6-3.7-18 3-25.5 2-2.1 3.9-5 7.4-3.7 3.1 1 5 4 4.2 7-2 7 3.5 7.8 7.4 9.7 26.8 13.6 52.6 8.7 78.1-4.1 4-2 4-5 3.7-8.6-.3-3.7.8-7 5.3-7.2 4.5-.2 7.6 2.4 7.9 6.7.5 7.1 0 14.3 0 22.8a22 22 0 0 0-20.3 2.7Z" fill="#000"/></g><g transform="translate(653 805)"></g><g transform="translate(901 668)"><path d="M53.4 96.7c.2-5.7.5-10.4.3-15-.2-7.3 3-10.2 10.5-8.5 2.8 10.7 2 22 1.1 32.7-1.8 19.6 7.7 32 23 41.6 19.6 12.3 25.6 32.7 13.4 48.6-19.8 25.4-56.3 21.8-75-4.1-2.2-3.2-1.4-7.5 0-11.2.9-2.3 1.9-5 5-5 3.8-.2 5.2 2.2 5.6 5.5 1.8 12.3 10.8 16.9 21.2 18.8 13 2.4 24.5-.5 32.3-12.4 7-10.7 5-20.9-6-26.9-25.4-13.7-35.9-34.6-31.4-64Z" fill="#000"/></g><g transform="translate(610 680)"><path d="M419.6 111c-4.2-9.5-9.9-15.2-19.8-15.7-6-.3-7-5.1-8.9-9.8 2-1.5 3.5-3.7 5.3-3.8 21.1-1.7 42.4-1.8 63.5-.1 6 .4 9.3 8 3.2 10.4-10 4-12.5 13.2-18.5 19.8-8.2 9-15.2 9.1-24.8-.8ZM228.6 81.4c12.2.7 23.1 1 34 2 3.6.3 8 1.8 8 6.7 0 5.6-4.6 5.2-8.3 5.1-6.3 0-9.7 2.7-12.5 8.6-3.4 7.4-6.9 15.3-18 14.8-10.5-.5-15.1-7.2-18.1-15.2-2.2-5.7-5-8.4-11-8.2-3.4.1-7.1-.2-7.5-4.9-.4-5 3-6 7-7.2a67.9 67.9 0 0 1 26.4-1.7Z" fill="#000"/></g><g transform="translate(610 680)"></g><g transform="translate(774 657)"><path d="M57.5 41.8C51.3 41.3 46 41 41 41c-5.7-.2-8.5-3.4-9-8.8-.5-5.3 3-7 7.5-8.5 8.6-3 17.1-.5 25.2.7 15.4 2.1 31.5-.6 46.4 6.3 5 2.3 8.3 4.7 6.4 10.3-1.8 5.2-6.1 5.2-10.6 4.1-16-3.7-32.4.9-49.4-3.3ZM251.8 32c17.2.9 33.1-5 49.3-1.2 4 1 9 .7 8.8 7 0 6.2-4.7 7.4-9.5 8-19 2.2-38 4-56.9 6.4-5.7.7-11 .1-12.6-5.6-1.7-5.7 4-7.8 8-10 3.5-2.1 7.8-3.1 12.9-4.7Z" fill="#000"/></g><g transform="translate(0 559)"></g></g>
    </g>
  </g>
  <g clip-path="url(#clip_group_7_1)">
    <g transform="translate(11.7,22.9) scale(0.0305)">
      <metadata xmlns:rdf="http://www.w3.org/1999/02/22-rdf-syntax-ns#" xmlns:xsi="http://www.w3.org/2001/XMLSchema-instance" xmlns:dc="http://purl.org/dc/elements/1.1/" xmlns:dcterms="http://purl.org/dc/terms/"><rdf:RDF><rdf:Description><dc:title>Notionists</dc:title><dc:creator>Zoish</dc:creator><dc:source xsi:type="dcterms:URI">https://heyzoish.gumroad.com/l/notionists</dc:source><dcterms:license xsi:type="dcterms:URI">https://creativecommons.org/publicdomain/zero/1.0/</dcterms:license><dc:rights>Remix of „Notionists” (https://heyzoish.gumroad.com/l/notionists) by „Zoish”, licensed under „CC0 1.0” (https://creativecommons.org/publicdomain/zero/1.0/)</dc:rights></rdf:Description></rdf:RDF></metadata><mask id="mixed7_1_viewboxMask"><rect width="1744" height="1744" rx="0" ry="0" x="0" y="0" fill="#fff" /></mask><g mask="url(#mixed7_1_viewboxMask)"><g transform="translate(531 487)"><path d="M554 727.7c-99.2 297-363.8 388.6-503.7 19.8-19.3-50.7 31-69.5 66.2-91.9 24.1-15.3 36.8-28.5 35.3-42.2-7-64.4-36.9-243.8-36.9-243.8l-3-5.8s.7-1.6-2.2 1.2c-3 3-9.9 34.2-37 34.2-24.5 0-49.2-10.9-61-86.3C7.2 285.6 9.6 214 40 201c12.5-5.3 24-7.2 35.2-.8 11.3 6.4-13-22 112-126C268.4 6.4 396.7-3.5 448.5 8 500.3 19.5 552 44.8 574.9 98.5c27.8 65-25.9 114.3-14 262.5-2.2 53.6.8 171.2-146.6 210.6-28 7.5-19.3 48.4 22.7 58.4 67 21 117 72.3 117 97.9" fill="#fff"/><path fill-rule="evenodd" clip-rule="evenodd" d="m554 266.2.1-1.4c4.1-36.4 8.2-71.7 27.1-103.4 6.5 4.4 5.7 10 3.7 15.2-19.9 51.2-18 104.4-16.2 157.6l.4 14c2.1 66.4-14.5 126.8-58.7 177.5-15.4 17.6-35.8 29.8-56.5 40.3-21.4 11-25.9 20.1-19.2 43.6l.8 2.6c1.4 3.9 2.8 7.9-1 11.8-4.5 4.6-9.5 3.3-14.8 1.8l-.6-.1a406.4 406.4 0 0 1-137-68.3c-6-4.4-10.8-10.3-15.5-16.1l-.3-.4c-2.5-3-3-7.8.5-10.4 3.3-2.5 5.8-.5 8.7 1.8l1 .9a145.5 145.5 0 0 0 76.3 31.7c13.4 1.4 26.6.9 40 .4 7.4-.3 14.8-.6 22.3-.5 10.2 0 18.7-4.7 26.7-9.2l2.8-1.6c27.8-15.5 54.3-32.8 72.2-60.7 16.1-25 25.9-52.2 31.6-80.9 7.2-36.1 6.6-72.7 6-109.8-.3-12-.5-24.2-.5-36.4ZM50.6 190.8c21.9-1.7 34 11.2 44.3 26.3a140.4 140.4 0 0 1 22.4 61.5c.5 3.7 1 7.6-1.2 11.3-4.5.6-4.9-3-5-5.6-.5-20.7-9.7-38.7-18.9-56.1-6.6-12.5-16.2-24.6-31.4-27.6-17.2-3.5-33 12-40.8 32.2-14.5 37.6-12 74.6 1.4 111 5.8 15.9 13.1 32.1 27.8 43.2 14.8 11.3 32.7 9.3 43.6-5.7l2-2.5c2-2.6 4-5.1 5-8 2.1-5.8 5.4-11.2 11.3-10.4 6.8 1 8 8.3 8.7 14a3661 3661 0 0 0 22 156.7l5.9 38.8c2.6 17.1 5.6 41.7 3.6 52.1a28 28 0 0 0-.3 2.2c-.4 2.8-.6 5-4.2 5.5-4.9.8-7-2-7.7-6.4-2.3-17-3-23.6-4-49.6-.9-25.2-5.6-50-10.4-74.9l-5-27c-5.2-30.8-10.3-62-10.8-97l-2 3c-7.6 11.3-13.7 20.5-24.5 24a40.5 40.5 0 0 1-46.1-12.5 127.8 127.8 0 0 1-28.8-55.8c-8.4-34-9.9-67.1.9-100.6 5.2-16.1 23.7-44.7 42.2-42Zm34.6 127.5c4.4 3.2 8.4 6 12-5.4-1.1-42.2-14.7-69.2-35.8-70.3 11.2 14.6 22 28.8 23 48.5a32.3 32.3 0 0 1-10.7-8.8c-2-2.2-4-4.4-6.5-6l-3-2.4c-4.8-3.6-9.7-7.4-17.8-4.5 3.8 5.8 9 10 14.3 14 6 4.7 12 9.3 15.6 16.5-10.6 7.7-15.2 17.7-9.7 29.9 4.8 10.5 11.9 19.2 25.9 19.8-.6-6.3-4.7-10.9-8.8-15.4-5-5.4-9.7-10.6-7.5-18.6 3.2-1.5 6.2.7 9 2.7Z" fill="#000"/></g><g transform="translate(178 1057)"><path d="m1346 688-1365-3.3s11.3-97 44.2-189.1c41-115.2 106.9-232 124.6-246.1 20.8-16.8-11.6-18.2 3.4-41.2 33.4-51.1 146.5-97.5 179.3-114.1C391 64.4 496.8 46.4 496.8 46.4L524 100s63.4 21.9 138.2 24.4c40.4 1.3 134-29.5 134-29.5L784.9 37s169 34.8 252.6 85.6c48.2 29.3 108.2 75 109.7 101.2 2.1 39.8 1.7 36.7 24 51.9 53.3 36.2 98.4 122 120.8 191.2 17.5 54.2 54 221.1 54 221.1Z" fill="#fff"/><path fill-rule="evenodd" clip-rule="evenodd" d="M300.3 563.4C320.7 604 341 644.7 356 688c6.6 0 12 0 17.6-1l-4.2-11c-6.2-16.4-12.3-32.3-19.5-47.8a5867.5 5867.5 0 0 0-34.2-70.7c-9.3-19.2-18.7-38.3-27.8-57.5-3.9-8-6-16.9-1.3-25.8 6.7-12.8 12.5-26 18.3-39.2l5.2-11.8c11-24.4 24.4-47.6 37.9-70.9a972.6 972.6 0 0 0 30.5-55c8-16.3 5.5-24.5-12.1-30A48 48 0 0 0 356 265c-8.6-.7-17.2-1.2-25.8-1.7-26.3-1.5-52.7-3-78.4-10.8-7.9-2.4-16.1-3.7-24.4-5-8-1.3-16-2.6-23.7-4.9l-4.6-1.3c-14.7-4.2-29.9-8.6-41.3-20.3l1.8-2.4c1-1.3 1.8-2.5 2.7-3.5 25.4-28.7 58.7-47 92-65.1l20-11c20.1-11.5 41.2-21.4 62.2-31.4 8-3.7 15.9-7.4 23.7-11.3a391.7 391.7 0 0 1 61-24.8c10.6-3.1 21.3-5.6 32-8 7.8-1.9 15.6-3.7 23.3-5.7 20-5.3 23.7-4 28.9 15.7l9 34.2c9.6 35.4 19.1 70.8 26.7 106.6 8.7 40.7 14.4 82 17.2 123.5 1.5 23.6 4.1 47.2 6.8 70.7 3.6 32.2 7.2 64.3 8 96.7.5 20.8-.2 41.6-.9 62.4l-.8 29a434 434 0 0 1-3.3 40.2c-2 17-3.9 34-3.2 51.2 6.6 0 12.1 0 17.7-1.2l.6-16.2c.2-10.2.5-20 1.6-29.6 5.6-51 4.8-102 3.7-153-.8-33.6-3.6-67-8.4-100.2-2.5-17.6-3.5-35.2-4.5-52.8-1.3-23-2.6-46.1-7.4-69a1633 1633 0 0 1-6.6-34.2c-3.8-20.7-7.7-41.4-13-61.8-.2-1-.6-2-1-3-1.2-3-2.4-6 .6-8.9 4-3.8 9.1-2.7 14-1.4 41 11 82.7 13.9 125.1 10.6 31.5-2.4 62.6-5.8 91.5-19.5 8.6-4 15.4-1.5 17.3 9 1 5.6 1.7 11.2 2.4 16.9 1 7.9 2.1 15.8 3.8 23.4 7.8 34.8 9.9 70 12 105.2 1 16.1 2 32.2 3.4 48.3 1.2 12 2 24.2 2.8 36.3 1 14.6 2 29.1 3.6 43.7 6.3 60.7 4.7 121.5 2.7 182.3l-.7 20c-.7 18.4-1.4 36.7-1.4 55 5.7 0 10.3 0 15.3-1l.9-5.3c1-6.5 1.9-12.5 2-18.4l.3-44.7c0-28 .2-56.2 1.5-84.2 1.7-37 .7-74-3.1-111-2.7-26.2-4.5-52.4-6.3-78.7-1.7-24.1-3.4-48.3-5.7-72.4-4.5-46-10.5-92-20.4-137.3a2508 2508 0 0 1-13.8-68.7c-.5-2.4-.4-5-.4-7.4v-4c-.2-6.4 2.7-8.5 9.1-7.2a637.9 637.9 0 0 1 78.9 18.8c21 6.9 41.5 15 62 23l22 8.6a444.7 444.7 0 0 1 140.6 84.8 136 136 0 0 1 31.5 40.6c4.6 9.3-.3 19.2-9.5 21l-9.2 1.9c-22.6 4.4-45.2 9-67.3 15.7a250.5 250.5 0 0 0-92.5 50.8c-7.6 6.6-8.8 14.7-4.6 23.2 4 8 8.4 16 13.2 23.6a1769 1769 0 0 0 17.6 27.5c14.9 22.8 29.7 45.6 41.8 70 3.3 6.5 4 13-.2 18-9.4 10.8-16.8 22.9-24.2 35a360.5 360.5 0 0 1-16.9 25.7c-21 28.2-39 58.5-53.4 90.3-3.5 7.9-6.6 16-9.6 24.2-4.8 13-9.7 25.8-16.5 37.7 7.5 0 13.9 0 20.5-1a423 423 0 0 1 41.4-93c23-37.1 47.3-73.3 72-109.3 6.3-9 9.7-18.8 3.9-31-8-16.8-17.5-32.7-27-48.5l-.4-.7c-13.8-23-28.6-45.6-43.5-68-4.7-7.2-2.2-12 3-16.8a157.4 157.4 0 0 1 41.6-26.7 353.1 353.1 0 0 1 102.4-29.7c12.8-1.7 22.2.7 32 7.6 34.4 24.3 64.3 51 82.2 90.3l8.6 18.7a885 885 0 0 1 35.5 84c12.1 35.3 23.2 70.9 31.8 107.4 3.1 13.3 6 26.7 9 40 5.8 25.6 11.6 51.2 18.2 76.7 4.8 0 8.5 0 11.9-1a992 992 0 0 1-12.8-65c-4.6-27-9.3-54-16.8-80.4l-1.5-5.3c-6.6-23.2-13.2-46.4-21-69A883.4 883.4 0 0 0 1247 346c-18.1-34.7-45.6-61.4-77.4-84.9-1.5-1-3.2-1.9-5-2.8-6-3.1-12.7-6.5-9.7-16.8 5.2-17.6 1.8-33.7-13.6-46.3-3.5-3-6.5-6.3-9.6-9.7l-2.9-3.3c-41.3-45.3-95.5-72.5-151.3-97-36.3-15.9-74.3-28.1-112.2-40a328.3 328.3 0 0 0-72.7-15c-12.8-1-18 4.8-16.5 16.8.4 3 .8 6 1 9 .8 6.7 1.5 13.5 3.1 20 2.7 11.2-3.2 17.2-12 21.2a200.4 200.4 0 0 1-69.1 18.8c-52.7 3.3-105 .7-155.5-16.9-8.4-3-13.2-7.4-16.8-14.7-2.4-5-4.6-10.2-6.8-15.3-3.3-7.8-6.7-15.6-11-23-5.3-9.6-11.7-11.8-21.5-8.6-6.3 2-12.7 3.7-19.2 5C432.9 50.4 397.8 59 365 75a2335 2335 0 0 0-135.6 70.3c-30 17.2-59.8 34.8-82.3 61.3-6.2 7.3-7.5 14.5-2.6 22.2 4.3 6.5 4 11.5-2 17a139.2 139.2 0 0 0-22.6 30c-1.8 2.8-3.5 5.7-5.4 8.5-20.9 32-39.5 65.2-55.8 99.5A875.2 875.2 0 0 0 26.5 463l-1 2.8c-7.8 22-15.6 43.9-21.2 66.5-1.7 7.2-3.7 14.4-5.6 21.5a565 565 0 0 0-8.7 35.3c-6.7 32.9-12.2 66-17 98.9 6.6 0 12.1 0 18-1l7.8-46 6.3-36.6c11-63 32.5-123 56.8-182a839.1 839.1 0 0 1 90.7-160.9c4-5.6 8.9-7.2 15.6-7.8 16.3-1.5 31.5 2.9 46.6 7.2a241 241 0 0 0 23.5 6l15.6 2.8c27 5 53.8 10 81.5 11.4 2.8.2 5.7.2 8.7.2 8 0 16.4 0 25.1 3L361 298l-23.7 38.6a730.6 730.6 0 0 0-49.8 95.6c-5.9 13.2-11.7 26.3-18.1 39.1-3.8 7.6-5 14.6-1.8 22l1.3 3c6 14 11.9 27.8 18.6 41.4l12.9 25.8Zm475-452c5-2.6 10.4-5.4 11.2 3.7 1.8 10.6-5.3 14.2-11.4 17.3l-1.8 1c-17.5 9.2-36.8 14-56.6 16.2a434 434 0 0 1-144.6-5.8c-9.5-2.2-18.7-5.6-27.3-10-5.6-2.7-8-6.8-6.7-12.5 1.4-6 5.4-5 9.5-4 .7.3 1.5.5 2.3.6l19.3 3.8c16.5 3.3 33 6.6 49.7 9a291 291 0 0 0 103.5-2.9l.9-.1c18-3.8 35.8-7.5 52-16.2Z" fill="#000"/><path d="M199 688c3-35 7-69.8 11.1-104.7 3.6-29.7 4-60 17-88a38 38 0 0 1 3.8-6.7c2.3-3.1 5-6.8 9.5-5.2 5.2 1.7 3.5 6.4 2.7 9.9-7.8 32.1-13.1 64.8-17.4 97.5-4 31.5-6 63.3-9.2 96-5.6 1.2-11 1.2-17.5 1.2ZM1145.9 688c-9.8-36.3-12.8-73.7-23.3-109.7-6.2-21-9.8-42.8-17.9-63.4-1.6-4.2-.5-9 4-11.2 4.4-2.3 7.4 1.3 9.9 4.3a55.2 55.2 0 0 1 9.9 22.1c11.5 43.4 20.8 87.4 27.6 131.7 1.2 8 1.2 16 1.9 25.2-3.5 1-7.3 1-12.1 1Z" fill="#000"/></g><g transform="translate(266 207)"><path d="M372 289.7a220.2 220.2 0 0 1 53.4-51.7c-8-10-17.8-17.2-21.8-29-2.9-8.8-5.6-17.4-3-26.1 2.9-9.7-1.4-12.6-9.5-15.6-15.9-6-33.7-5-48.7-14-12.7-7.7-25.8-14.5-38.6-22-3.7-2-7.4-5-5.8-10.1 1.6-5 6.3-4 9.8-3.7 22.2 2.7 45 2 66 12.3 9.6 4.8 20.7 6.5 31.2 9.6 6-7 8.9-15 12.5-22.7 16.8-36 47-51.5 84.6-55.6 4.3-.4 8.6-.4 12.8 0 14.2.9 25.7-2.4 38.3-11.3 34-24.1 71.8-25.1 110.2-9.3a81.2 81.2 0 0 1 33.5 22c4.7 5.7 3.7 14.3 12.1 19.6 9.1-9.3 18.8-18.9 28.2-28.7a37.8 37.8 0 0 1 19-12.3c5.3-1.1 10.5-.2 14 4 4.2 4.7 1.6 9.6-1.3 14a318.8 318.8 0 0 1-36.9 43.7c-6 6.3-9 11.5-4 21 16.7 32.2 10.6 62.2-13.2 90.3 10.8 7.3 21 14.6 31.4 21.4 45.7 30 99 54.8 115.3 108.2 9.7 31.6 12.1 64.4.2 96.4-7.7 20.7-17.6 52.4-9.5 70.6 8.4 19 23 34.4 34.7 51.5a125 125 0 0 1 23 77.4c-1.1 25.5-8.5 50-29.6 68a51.5 51.5 0 0 0-8.8 69.7c4.4 6 1.6 8.8-4 9.6-8.4 1-16.1-.9-21.7-8-13.7-17.2-18.9-37.7-2.6-63.4 12-19.1 29.2-34.8 35.4-58 7.6-29.1-3.5-52.3-18.4-75.3-9.8-15.2-32.6-36.3-35.6-55.2-4-25 .8-49.4 1-55.5 1.8-62.4-9.6-89.7-60.8-116.4-27-14-65.5 2.9-112-15.4a270.5 270.5 0 0 1-78.2-51c-5.8 13-30.7 46.6-51.4 65.3a337.6 337.6 0 0 1-70.7 49.2 132.6 132.6 0 0 0-68.2 81.7c-5.5 18.3-6 37.6-4.5 56.7.4 5.6 1.4 10.8-6.4 15.9-2.4-15.1-6.8-28.1-12.2-40.7-8.2-19.2-18.6-36.8-39.2-45.3a10 10 0 0 1-6.7-10c.3-12.3-1.2-24.5 1.6-36.9 5.3-23.1 10-46.4 19.8-68.2 10.1-22.7 21-45 35.3-66.7ZM310.7 816.3c-12.1-28.6-5.1-51.7 25.3-67 4.6-2.2 9-4.8 13.1-7.7 21.7-15.9 18.8-44.6-5.5-57-4.3-2.2-8.2-4.7-10.3-11.1 9.7-6 18.6-13.2 24.9-24 5.1-9.2 10.7-6.7 16 2.8 7.6 13.5 1 28.7 6.4 42.4 2.8 7 4 14.8 5 22.4 4.1 27.8-10 45.4-33.7 56.3a48 48 0 0 0-22.2 23.5c-5.7 10.8-3 16.3 9 19.8 7.6 2.2 15.6 3 20.6 10.8 3.6 5.7 4.5 11 1.7 16.8-3.2 6.7-9.4 9.6-16.3 11-2.4.5-4-.8-5-3-2-5.6 5.4-6.2 5.5-12.7-10-8-26.6-8.8-34.5-23.3Z" fill="#000"/></g><g transform="translate(791 871)"><path d="M188.2 86.4c-26.7 11.3-52.6 12.5-78-.5-6.5-3.2-12-2.4-18.7.7-3-9.6-3.7-18 3-25.5 2-2.1 3.9-5 7.4-3.7 3.1 1 5 4 4.2 7-2 7 3.5 7.8 7.4 9.7 26.8 13.6 52.6 8.7 78.1-4.1 4-2 4-5 3.7-8.6-.3-3.7.8-7 5.3-7.2 4.5-.2 7.6 2.4 7.9 6.7.5 7.1 0 14.3 0 22.8a22 22 0 0 0-20.3 2.7Z" fill="#000"/></g><g transform="translate(653 805)"></g><g transform="translate(901 668)"><path d="M65.7 43.5c-4.3 23.6-7.3 45.8-.3 68.8A79.4 79.4 0 0 0 98 157.1c22.3 14.8 22.7 43 .4 57.5-24.6 16.2-50.8 14-77 7.5-11.8-3-17.9-14.2-21-25.4-2.7-9.6 6.5-25.2 16.6-31 3.1 3.8 2.4 7 .2 11.3-6.7 12.3 0 31.4 13.5 32.6 19.8 1.7 40.7 5.8 59.1-8 12.5-9.4 14-21.5 1.8-31.4-7.3-5.9-14.4-11.7-20.6-18.8-28-31.7-29.9-68.2-20-107 3.5-14.3 9.2-27 19-38C73 3 76-.9 80.5 2c5.9 3.9 1.2 8.4-1 12-5.6 9-10.6 18.3-13.8 29.5Z" fill="#000"/></g><g transform="translate(610 680)"><path d="M407.4 122.5c13 .3 25.4 1.1 37.6 2.5 3 .4 5 3.3 5 6.7 0 3.3-1.7 5.6-4.7 7-11.2 4.8-22 8.2-33.7.2-6.5-4.5-9-8.7-4.2-16.4ZM251.2 124c6.4 2.8 5.6 6.6 3 10.6-5.9 8.6-27.3 12.5-36 6.6-5-3.4-8-8-5.6-14 2.5-6.2 7.7-5.6 12.8-3.6 8.3 3.3 16.5 1.7 25.8.4ZM419.6 111c-4.2-9.5-9.9-15.2-19.8-15.7-6-.3-7-5.1-8.9-9.8 2-1.5 3.5-3.7 5.3-3.8 21.1-1.7 42.4-1.8 63.5-.1 6 .4 9.3 8 3.2 10.4-10 4-12.5 13.2-18.5 19.8-8.2 9-15.2 9.1-24.8-.8ZM229.6 81.1c12.2.7 23.1 1 34 2 3.6.3 8 1.8 8 6.7 0 5.6-4.6 5.2-8.3 5.1-6.3 0-9.7 2.7-12.5 8.6-3.4 7.4-6.9 15.3-18 14.8-10.5-.6-15.1-7.2-18.2-15.2-2-5.7-4.9-8.4-10.9-8.2-3.4.1-7.1-.2-7.5-4.9-.4-5 3-6 7-7.2a67.7 67.7 0 0 1 26.4-1.7Z" fill="#000"/></g><g transform="translate(610 680)"><g fill="#000"><path fill-rule="evenodd" clip-rule="evenodd" d="m264.3 14.3 78.4-.5 125.6-.8 6.2-.2c7.2-.4 14.6-.7 21 2.4 10.1 5 10.7 15 11.3 24.4a172.3 172.3 0 0 1-8.8 79.6 50.5 50.5 0 0 1-32 30.5c-23.5 7.8-48 13.5-72 4.8a65.7 65.7 0 0 1-42.1-39c-1.2-3.2-2.7-6.4-4.1-9.5a58.9 58.9 0 0 1-7-23.5c-.2-4.7-5.7-8.1-11.7-8.1-7 0-10.7 4.5-13.6 9.9a56.8 56.8 0 0 0-4.6 14.3c-.8 3.6-1.7 7.3-3 10.8-14.2 37-38.8 55.3-78.1 54.5a100.6 100.6 0 0 1-66.7-27.4A61.5 61.5 0 0 1 142.2 87a311.6 311.6 0 0 0 0-12 399 399 0 0 1-59.6-20.4C64.2 47 45.8 39.8 26.6 35c-3.3-.8-5.5-2-6.8-4.9-4-8.3-9.6-15.5-16.6-24.5L.3 2.1l18.9 3.3C32 7.7 43.9 9.8 55.9 11.7c9.8 1.6 19.7 3.4 29.5 5.2 20.1 3.7 40.2 7.4 60.7 8.9 6.6.4 12.5.3 18.2-5.9 6.2-6.8 16.3-6.3 25-6l2.8.2c23.7.8 47.3 1 72.2.2ZM96.1 51.7c2.8 1.5 5.2 1.1 5.2-2.4 0-18.9-14.5-29-34.1-23.5 4 14 14.6 20.5 28.9 26Zm16 3.6c-2-1.5-3-4.2-5.6-11.3-3.5-6-5-10.6-3.7-18a38.7 38.7 0 0 1 11.4 21c1 3.5 2 7 3.6 10.2-2.7-.6-4.4-1-5.7-2Z"/><path d="M287 44.8c-.8-6 3-7.4 7-7.4 19 0 38 0 57.1.5 4.4 0 8.5 2 11.1 5.5-6.9 8.1-53.6 9.4-75.3 1.4Z"/></g></g><g transform="translate(774 657)"><g fill="#000"><path d="M102.1 42.8c-8.7-12.1-25.2-16-38.8-12.5-12 3.2-21.7 11-33.6 14.4-4 1.1-7.5 2.7-9.7-2.1-1.9-3.9-1.5-7.4 2.2-10.3C41 18 75.8 5.4 100.9 19.4a45.7 45.7 0 0 1 15 15c3.3 4.7 4.5 11.6 0 15.1-5.9 4.6-10-1.2-13.8-6.7ZM288 48.8c-9.7-6.5-18.9-7.3-28-.8-3.2 2.3-6.7 4.8-10 .8-3.3-4.1-2.4-8.6 1.3-12.6 5.6-6.1 13.2-7.1 20.8-8a33.7 33.7 0 0 1 36.7 30c.2 4.3 0 9.1-5.2 10.3-4.7 1-8.3-1.7-10.2-5.9-1.9-4.2-3.2-8.7-5.4-13.8ZM191.6 30c5.2-6.6 8-15 14.5-20.6 2.5-2.1 4.4-5.5 8.5-3.2 3.7 2.1 4 5.9 3 9-3.1 8.6-6.7 17.1-10.7 25.4-2 4-7 5.5-11 4.2-6.6-2-5-7.9-4.4-13.9v-1Z"/><path d="M191.7 29.8c-2 4.2-3.6 8.5-5.7 12.6-1.6 3.1-4.2 5.8-8 4.6-4.6-1.4-5-5.3-4-9.3 1.2-4.1 2.5-8 4-12 2-4.7 1.5-12.4 9.3-11.3 8.4 1.3 4.4 8.4 4.4 14.4v1Z"/></g></g><g transform="translate(0 559)"></g></g>
    </g>
  </g>
  <g clip-path="url(#clip_group_7_2)">
    <g transform="translate(33.6,22.9) scale(0.0305)">
      <metadata xmlns:rdf="http://www.w3.org/1999/02/22-rdf-syntax-ns#" xmlns:xsi="http://www.w3.org/2001/XMLSchema-instance" xmlns:dc="http://purl.org/dc/elements/1.1/" xmlns:dcterms="http://purl.org/dc/terms/"><rdf:RDF><rdf:Description><dc:title>Notionists</dc:title><dc:creator>Zoish</dc:creator><dc:source xsi:type="dcterms:URI">https://heyzoish.gumroad.com/l/notionists</dc:source><dcterms:license xsi:type="dcterms:URI">https://creativecommons.org/publicdomain/zero/1.0/</dcterms:license><dc:rights>Remix of „Notionists” (https://heyzoish.gumroad.com/l/notionists) by „Zoish”, licensed under „CC0 1.0” (https://creativecommons.org/publicdomain/zero/1.0/)</dc:rights></rdf:Description></rdf:RDF></metadata><mask id="mixed7_2_viewboxMask"><rect width="1744" height="1744" rx="0" ry="0" x="0" y="0" fill="#fff" /></mask><g mask="url(#mixed7_2_viewboxMask)"><g transform="translate(531 487)"><path d="M554 727.7c-99.2 297-363.8 388.6-503.7 19.8-19.3-50.7 31-69.5 66.2-91.9 24.1-15.3 36.8-28.5 35.3-42.2-7-64.4-36.9-243.8-36.9-243.8l-3-5.8s.7-1.6-2.2 1.2c-3 3-9.9 34.2-37 34.2-24.5 0-49.2-10.9-61-86.3C7.2 285.6 9.6 214 40 201c12.5-5.3 24-7.2 35.2-.8 11.3 6.4-13-22 112-126C268.4 6.4 396.7-3.5 448.5 8 500.3 19.5 552 44.8 574.9 98.5c27.8 65-25.9 114.3-14 262.5-2.2 53.6.8 171.2-146.6 210.6-28 7.5-19.3 48.4 22.7 58.4 67 21 117 72.3 117 97.9" fill="#fff"/><path fill-rule="evenodd" clip-rule="evenodd" d="m554 266.2.1-1.4c4.1-36.4 8.2-71.7 27.1-103.4 6.5 4.4 5.7 10 3.7 15.2-19.9 51.2-18 104.4-16.2 157.6l.4 14c2.1 66.4-14.5 126.8-58.7 177.5-15.4 17.6-35.8 29.8-56.5 40.3-21.4 11-25.9 20.1-19.2 43.6l.8 2.6c1.4 3.9 2.8 7.9-1 11.8-4.5 4.6-9.5 3.3-14.8 1.8l-.6-.1a406.4 406.4 0 0 1-137-68.3c-6-4.4-10.8-10.3-15.5-16.1l-.3-.4c-2.5-3-3-7.8.5-10.4 3.3-2.5 5.8-.5 8.7 1.8l1 .9a145.5 145.5 0 0 0 76.3 31.7c13.4 1.4 26.6.9 40 .4 7.4-.3 14.8-.6 22.3-.5 10.2 0 18.7-4.7 26.7-9.2l2.8-1.6c27.8-15.5 54.3-32.8 72.2-60.7 16.1-25 25.9-52.2 31.6-80.9 7.2-36.1 6.6-72.7 6-109.8-.3-12-.5-24.2-.5-36.4ZM50.6 190.8c21.9-1.7 34 11.2 44.3 26.3a140.4 140.4 0 0 1 22.4 61.5c.5 3.7 1 7.6-1.2 11.3-4.5.6-4.9-3-5-5.6-.5-20.7-9.7-38.7-18.9-56.1-6.6-12.5-16.2-24.6-31.4-27.6-17.2-3.5-33 12-40.8 32.2-14.5 37.6-12 74.6 1.4 111 5.8 15.9 13.1 32.1 27.8 43.2 14.8 11.3 32.7 9.3 43.6-5.7l2-2.5c2-2.6 4-5.1 5-8 2.1-5.8 5.4-11.2 11.3-10.4 6.8 1 8 8.3 8.7 14a3661 3661 0 0 0 22 156.7l5.9 38.8c2.6 17.1 5.6 41.7 3.6 52.1a28 28 0 0 0-.3 2.2c-.4 2.8-.6 5-4.2 5.5-4.9.8-7-2-7.7-6.4-2.3-17-3-23.6-4-49.6-.9-25.2-5.6-50-10.4-74.9l-5-27c-5.2-30.8-10.3-62-10.8-97l-2 3c-7.6 11.3-13.7 20.5-24.5 24a40.5 40.5 0 0 1-46.1-12.5 127.8 127.8 0 0 1-28.8-55.8c-8.4-34-9.9-67.1.9-100.6 5.2-16.1 23.7-44.7 42.2-42Zm34.6 127.5c4.4 3.2 8.4 6 12-5.4-1.1-42.2-14.7-69.2-35.8-70.3 11.2 14.6 22 28.8 23 48.5a32.3 32.3 0 0 1-10.7-8.8c-2-2.2-4-4.4-6.5-6l-3-2.4c-4.8-3.6-9.7-7.4-17.8-4.5 3.8 5.8 9 10 14.3 14 6 4.7 12 9.3 15.6 16.5-10.6 7.7-15.2 17.7-9.7 29.9 4.8 10.5 11.9 19.2 25.9 19.8-.6-6.3-4.7-10.9-8.8-15.4-5-5.4-9.7-10.6-7.5-18.6 3.2-1.5 6.2.7 9 2.7Z" fill="#000"/></g><g transform="translate(178 1057)"><path d="M1303 692 16 688.7S53.5 481.5 111 360C236.9 93.7 489.4 44.3 511.3 56.7c32 18 62.3 40.7 151.4 40.7 91.1 0 148.8-39.5 148.8-39.5s135.3 32.3 200.6 69.5c83.1 47.4 177 187 220.2 295.9 46 115.6 70.7 268.7 70.7 268.7Z" fill="#fff"/><path fill-rule="evenodd" clip-rule="evenodd" d="M1296.8 692c-6.3-26-11.8-51.9-17.3-77.9l-8.4-39c-8-36.6-18.6-72.3-30-107.6a678.2 678.2 0 0 0-42.1-102.8l-7-13.7a802.4 802.4 0 0 0-27.6-50.7c-27.4-45.3-58.1-88.3-97-124a334.8 334.8 0 0 0-102.4-65c-7-2.8-13.8-6-20.7-9.1-7.9-3.7-15.8-7.3-24-10.5-10.6-4-14.4-.7-18.8 7.3-8 14.7-18 28-32.9 36-40.3 21.6-82.3 33.2-126.5 13.6a138 138 0 0 1-48.6-35.4c-6-7-12.2-8.3-20.5-9.5-22-3.3-36.7 4.7-49 23.1-16.3 24.2-42.3 33.2-69.5 35.8a146.6 146.6 0 0 1-108-31.8A203.2 203.2 0 0 1 402 86.5l-9.7 4.5c-6.9 3.1-13.6 6.2-19.8 10-9.6 6-19.7 11-29.8 16a347.3 347.3 0 0 0-34 18.9 454.4 454.4 0 0 0-85.4 73.7 604 604 0 0 0-86.3 122.8 869 869 0 0 0-50 108.1 1216.5 1216.5 0 0 0-34 102 562 562 0 0 0-20.2 102.2c-.6 6.8-2.1 13.6-3.7 20.4-1.9 8.3-3.8 16.8-4.1 25.8-5.5 1-10.6 1-16.9 1 4.5-32.9 9.7-66 16-98.8 2.3-12 5.3-23.7 8.3-35.4l5.3-21.5c5.2-22.6 12.6-44.6 20-66.6l.9-2.7a836.3 836.3 0 0 1 83-179c17-27.2 36-53 57.1-77 37.3-43 79.1-80.3 130-105.9l10.8-5.4c36-18.2 72-36.4 112-44.2 11.1-2.1 22.2-4.6 33-7.6 12.7-3.5 15.2-9.1 10.3-21.1l-1-2.2c-.7-1.6-1.4-3.3-1.7-5v-.4c-.6-3.6-1.2-7.8 3.8-8.9 4.3-1 5.5 1.6 7 5l.6 1.1c1.6 3.2 3 6.5 4.5 9.7 4.8 10.8 9.6 21.7 18.6 30.6a101 101 0 0 0 59.7 27.2l5.3.7c24.8 3.3 49.7 6.7 75 5.4 35.3-1.8 70.2-5.5 104-16.5 5.2-1.7 9.7-4.8 14-8.3 7-5.8 6.5-10.6.5-16.8-8.9-9.2-11-20.6-10.3-32.6 4-1.5 7-.5 7.6 1.8 7 30.4 29.6 36 55.8 39 33.8 3.8 66.1 14.3 98.5 25 25.4 8.5 48.3 21.6 71.2 34.6l18.6 10.5c25 13.8 47.2 32.1 66.9 53.2 22.7 24.3 43.9 50 62.4 77.6 16.1 24 31.5 48.6 45 74.5a1007.4 1007.4 0 0 1 86.5 242c5.6 25.4 9.8 51.3 14.1 77.5 2.2 13.2 4.3 26.4 6.7 39.7-3.2.9-6.7.9-11.2.9ZM573 143a83.8 83.8 0 0 0 49.7-37.7 17 17 0 0 0-9.2-3.5l-2.8-.5a470 470 0 0 0-19.9-3.9c-27-4.8-54-9.7-74-32.8-1.3-1.5-4.6-1.7-7-1.8-27.5-.5-53.4 6.9-79.4 14.3l-11.2 3.2c.8 5.6 2.6 9 5.8 12.2a224 224 0 0 0 39.6 32.5c32.9 21 67.9 30.7 108.4 18Zm224 .3c-31.6 4.3-57.1-9-81-27.6-1.6-1.7-3.3-3-4.9-4.2-3-2.4-5.7-4.5-6.9-8.4 10.1-3.8 20.6-5.8 31.1-7.9 11.2-2.1 22.4-4.3 33-8.6l5.4-1.8c4.3-1.4 8.7-2.8 11.8-5.8 16.7-16.2 36.2-15.6 56.2-10.6 13 3.3 26 7 39.5 11l19 5.6-5.6 6.5c-14.1 16.6-26.6 31.3-46.9 38.5-16.7 6-33.2 11-50.7 13.3Z" fill="#000"/><path d="M1115.6 692c-9.1-36.9-12.1-74.7-22-111.2-7.7-28.1-13.9-56.8-23.8-84-7-19.4-13.7-39-23-57.8-12.7-25-23.1-51.2-34.4-77-1.3-3-2.9-6.3 1.3-8.8 4.3-2.6 7.4-.5 9.8 2.6 3.8 5 7.8 10.2 10.6 15.9 10 20.4 19.4 41.1 29.1 61.6A612.7 612.7 0 0 1 1097 529c9 31.6 17.5 63.6 21.5 96.6 2.6 21.4 7 42.7 8.6 65.4-3.3 1-6.8 1-11.4 1ZM221.2 692c-.6-3 .4-5.8.4-8.7 0-49.6 9.6-98 16.6-146.7 5-35 13.3-69 22.5-102.9a253.5 253.5 0 0 1 31.6-69c2.3-3.6 4-10 10-6.9 6.1 3.2 3.2 9 1.4 13.6-7.2 17.6-15.9 34.7-21.8 52.7a748.3 748.3 0 0 0-31 138.7c-1 8.5-2.7 16.8-4.9 25-7.4 28.5-3.8 58.4-10.9 87-1.1 4.7.3 10.1.3 16.2-4.5 1-8.9 1-14.2 1Z" fill="#000"/><path fill-rule="evenodd" clip-rule="evenodd" d="M645.9 165.5c-9 6.6-10.5 15.7-3.6 28.3l4 2.7c2.3 1.5 4.3 3 6.5 3.6 9.5 3 17-2 21.6-9.1 4.7-7 5.5-16.9-1.9-22-7.3-5.1-16.6-10.9-26.6-3.5Zm5.4 17.4Zm0 0c3.8 2.8 7.6 3.4 10.9-.5a3.4 3.4 0 0 0-1.2-5.3c-4.4-1.6-9.2-2.6-9.7 5.8Z" fill="#000"/></g><g transform="translate(266 207)"><path d="M401.3 246.7c8.1-5.9 18.5-6.8 20.8-19.3 1.3-7.2 9.5.4 14.5-1.3-8.3-22.8-3.5-31.4 17.3-31.1 11.8-21 14.1-22 30.3-10.7 5.3-8.2 2.6-17.4 3-26 .6-8.9 0-18 1-26.7.8-5.4 3.5-11 10-12.1 6-1 10 2.1 13.9 6.8 7.3 9 18.6 14 23.4 29.2 8-24.7-7.1-49.2 14.3-67.2l32.8 25c3.6-7.3 1.2-15 1.7-22.1.4-6.8 0-13.7.4-20.5.2-4.3 1.2-9 6-10.3 4-1.1 5.5 3.1 8 5.4 15 14 29.5 28.6 39.4 47.7V86c-.2-5.1 1-10.2 3.2-14.8 4-8 8.6-9.6 15.7-3.2 13 11.9 24.8 24.5 29.3 42.2.7 3.8 3.2 6.9 6.8 8.4 3.7-14.4-2.2-26.8-6.2-39.4-3.3-10.5-4.7-20.4 2.6-30.3 5.1-6.9 10-7.3 13.7-.4 9 16.6 31.4 17 40 33.7 20.7 1.5 29.8 16.7 38.6 32.3 3 5.2 4.5 11.2 4 17.2-.6 8.2 2 15.8 5.1 23.6 3-10.1 12.8-17.8 6.3-31.7 10.1 3.2 14.7 7.6 16.7 14.2 2.7 9 10.2 15.7 12 25.2a7 7 0 0 0 4.1 4.5c31.4 9 36.5 35 40.3 62 3.4 24.4-7.1 45.8-14 68-1.3 4.4-3 8.7-5.4 16 7-4.4 12.3-6.6 16.2-10.4 7-6.9 12-4.3 16.6 2.4 7.6 11.3 5 24 3.4 36-1 8.1 17.1 49.6-14.4 89.5-8.9 11.2-19 17-25.8 28-2.8 4.6-7.8 2.2-9.7-2.6-1.9-4.7-4.2-9.8-4.2-14.7.5-37-15.6-66-43.3-89.4-1-.8-2.7-1.4-2.9-2.4-3.5-19-18.4-14.1-31-15.6-18.4-2.1-37-5.2-50.1-20.6-3.3-3.8-7-4-11.2-4.8-23.3-4.2-46.4 27.3-62.4 9.4C616.8 301 599 300.1 579 303c-23.2 3.2-41.8 16.8-60.8 28.3-19.1 11.6-104 41.6-114.4 124.4a62 62 0 0 0 4 31c4.3 10.5 4.7 21.6 8.5 32 4.3 11.7.2 23.2-6.7 32.6-6 8.4-10 17.7-14.8 26.6-2.2 4.4-4.5 9.3-9.6 8.8-6-.6-7.5-6-8-11.5-2-24.2-6.5-47.8-20.2-68.7-4.1-6.3-7.6-13.4-12.9-18.7-11.4-11.5-13.9-26-15.3-40.8-3.5-36.1 7.2-69 19.6-102.6 13-35 35-64.5 53-97.6Z" fill="#000"/></g><g transform="translate(791 871)"><path d="M203 92.2c5.7-4 7-10.6 8.7-16.5 2-7-1.7-13-8.8-12-8.2 1-16.6 1.4-24.6 5a65 65 0 0 1-54 1.2c-8.1-3.7-16.7-6-25.5-7.1C86 61.3 80.5 67 81 79.5c.4 10.9 10.2 19.6 23.5 20.1 32 1.3 63.1-12.1 95.4-6 .4.1.8-.3 3-1.4Z" fill="#fff"/><path fill-rule="evenodd" clip-rule="evenodd" d="M123.6 54.3c-10-5.3-20.7-10.8-34-7.2C68.1 55.6 62.4 69.3 68.5 90c6.2 21 36.6 27.8 55.7 24.8 5.5-.8 11-2.3 16.6-3.8 13.8-3.6 27.6-7.2 42-1.8 13.1 5 23.4-.7 33-8 11-8.3 15.3-33 8.6-44.5-4.8-8.1-21.5-13-32.4-9a125 125 0 0 0-20.8 9.5c-14.3 8.6-27.5 7.1-42.1 0l-5.5-2.8ZM211 77.8c-1.5 5.4-3 11-8.1 14.4a62.1 62.1 0 0 0-3 1.4c-18.4-3.5-36.5-.6-54.6 2.3a208 208 0 0 1-40.8 3.7c-13.3-.5-23-9.2-23.5-20C80.5 67 86 61.2 98.8 62.7c8.8 1 17.4 3.4 25.5 7a65 65 0 0 0 54-1.1c6.6-3 13.4-3.7 20.2-4.5l4.4-.5c7.1-1 10.8 5 8.8 12l-.6 2.1Z" fill="#000"/></g><g transform="translate(653 805)"></g><g transform="translate(901 668)"><path d="M59.8 81.5c4.5-7.8 8-15.1 12.7-21.7 3-4.2 8-7.4 13-3.1 4.9 4 0 7.2-2 10.7a227.9 227.9 0 0 0-31.3 82.3c13-2 25-1.4 30.4 11 5.6 12.7-2.5 23.2-10.6 31.8-7.3 7.7-16.6 13.5-29 7.7C42.8 184 69.6 185 65.6 167c-2.6-2.6-4.5-1.7-6.6-1.2-19.7 4.3-22.8 2.4-20.3-18.2a214.6 214.6 0 0 1 21.1-66Z" fill="#000"/></g><g transform="translate(610 680)"><path d="M407.4 122.5c13 .3 25.4 1.1 37.6 2.5 3 .4 5 3.3 5 6.7 0 3.3-1.7 5.6-4.7 7-11.2 4.8-22 8.2-33.7.2-6.5-4.5-9-8.7-4.2-16.4ZM251.2 124c6.4 2.8 5.6 6.6 3 10.6-5.9 8.6-27.3 12.5-36 6.6-5-3.4-8-8-5.6-14 2.5-6.2 7.7-5.6 12.8-3.6 8.3 3.3 16.5 1.7 25.8.4ZM419.6 111c-4.2-9.5-9.9-15.2-19.8-15.7-6-.3-7-5.1-8.9-9.8 2-1.5 3.5-3.7 5.3-3.8 21.1-1.7 42.4-1.8 63.5-.1 6 .4 9.3 8 3.2 10.4-10 4-12.5 13.2-18.5 19.8-8.2 9-15.2 9.1-24.8-.8ZM229.6 81.1c12.2.7 23.1 1 34 2 3.6.3 8 1.8 8 6.7 0 5.6-4.6 5.2-8.3 5.1-6.3 0-9.7 2.7-12.5 8.6-3.4 7.4-6.9 15.3-18 14.8-10.5-.6-15.1-7.2-18.2-15.2-2-5.7-4.9-8.4-10.9-8.2-3.4.1-7.1-.2-7.5-4.9-.4-5 3-6 7-7.2a67.7 67.7 0 0 1 26.4-1.7Z" fill="#000"/></g><g transform="translate(610 680)"></g><g transform="translate(774 657)"><path d="M104.9 38.7C82.4 47 60.2 43 38.3 43c-3 0-6.3-2.2-9.2-4-2.7-1.5-4.4-4-3-7.4 1.5-3.7 4-5 8-4.5 27.2 3.7 53.7.8 79.9-7 5-1.6 13.3-8 16.2 1.6 3 10.2-6.8 10.8-13.4 13l-12 3.9ZM260.5 33.1c-7.2 2.7-13.5 5.3-19.9 7.6-2.4.8-5.1.9-6.8-1.8-1.6-2.4-1-4.4.5-7 13.4-22 56.2-24.9 71-4.4 1.9 2.4 3.3 5 4.2 7.8 1.3 4.1 2.4 9.2-2.2 11.5-4.3 2.2-7.7-1.1-10.7-4.5-14-15.5-17-16.3-36-9.2Z" fill="#000"/></g><g transform="translate(0 559)"></g></g>
    </g>
  </g>
</svg>
