<?xml version="1.0" encoding="UTF-8"?>
<svg xmlns="http://www.w3.org/2000/svg" viewBox="0 0 96 96" fill="none">
  <circle cx="48" cy="48" r="40" fill="#DDE8FF" stroke="#FFFFFF" stroke-width="2"/>
  <defs>
    <clipPath id="clip_group_8_0"><circle cx="48" cy="29.5" r="27.8" /></clipPath>
    <clipPath id="clip_group_8_1"><circle cx="34.8" cy="51.5" r="25.5" /></clipPath>
    <clipPath id="clip_group_8_2"><circle cx="61.2" cy="51.5" r="25.5" /></clipPath>
  </defs>
  <g clip-path="url(#clip_group_8_0)">
    <g transform="translate(18.4,2.4) scale(0.033)">
      <metadata xmlns:rdf="http://www.w3.org/1999/02/22-rdf-syntax-ns#" xmlns:xsi="http://www.w3.org/2001/XMLSchema-instance" xmlns:dc="http://purl.org/dc/elements/1.1/" xmlns:dcterms="http://purl.org/dc/terms/"><rdf:RDF><rdf:Description><dc:title>Notionists</dc:title><dc:creator>Zoish</dc:creator><dc:source xsi:type="dcterms:URI">https://heyzoish.gumroad.com/l/notionists</dc:source><dcterms:license xsi:type="dcterms:URI">https://creativecommons.org/publicdomain/zero/1.0/</dcterms:license><dc:rights>Remix of „Notionists” (https://heyzoish.gumroad.com/l/notionists) by „Zoish”, licensed under „CC0 1.0” (https://creativecommons.org/publicdomain/zero/1.0/)</dc:rights></rdf:Description></rdf:RDF></metadata><mask id="mixed8_0_viewboxMask"><rect width="1744" height="1744" rx="0" ry="0" x="0" y="0" fill="#fff" /></mask><g mask="url(#mixed8_0_viewboxMask)"><g transform="translate(531 487)"><path d="M554 727.7c-99.2 297-363.8 388.6-503.7 19.8-19.3-50.7 31-69.5 66.2-91.9 24.1-15.3 36.8-28.5 35.3-42.2-7-64.4-36.9-243.8-36.9-243.8l-3-5.8s.7-1.6-2.2 1.2c-3 3-9.9 34.2-37 34.2-24.5 0-49.2-10.9-61-86.3C7.2 285.6 9.6 214 40 201c12.5-5.3 24-7.2 35.2-.8 11.3 6.4-13-22 112-126C268.4 6.4 396.7-3.5 448.5 8 500.3 19.5 552 44.8 574.9 98.5c27.8 65-25.9 114.3-14 262.5-2.2 53.6.8 171.2-146.6 210.6-28 7.5-19.3 48.4 22.7 58.4 67 21 117 72.3 117 97.9" fill="#fff"/><path fill-rule="evenodd" clip-rule="evenodd" d="m554 266.2.1-1.4c4.1-36.4 8.2-71.7 27.1-103.4 6.5 4.4 5.7 10 3.7 15.2-19.9 51.2-18 104.4-16.2 157.6l.4 14c2.1 66.4-14.5 126.8-58.7 177.5-15.4 17.6-35.8 29.8-56.5 40.3-21.4 11-25.9 20.1-19.2 43.6l.8 2.6c1.4 3.9 2.8 7.9-1 11.8-4.5 4.6-9.5 3.3-14.8 1.8l-.6-.1a406.4 406.4 0 0 1-137-68.3c-6-4.4-10.8-10.3-15.5-16.1l-.3-.4c-2.5-3-3-7.8.5-10.4 3.3-2.5 5.8-.5 8.7 1.8l1 .9a145.5 145.5 0 0 0 76.3 31.7c13.4 1.4 26.6.9 40 .4 7.4-.3 14.8-.6 22.3-.5 10.2 0 18.7-4.7 26.7-9.2l2.8-1.6c27.8-15.5 54.3-32.8 72.2-60.7 16.1-25 25.9-52.2 31.6-80.9 7.2-36.1 6.6-72.7 6-109.8-.3-12-.5-24.2-.5-36.4ZM50.6 190.8c21.9-1.7 34 11.2 44.3 26.3a140.4 140.4 0 0 1 22.4 61.5c.5 3.7 1 7.6-1.2 11.3-4.5.6-4.9-3-5-5.6-.5-20.7-9.7-38.7-18.9-56.1-6.6-12.5-16.2-24.6-31.4-27.6-17.2-3.5-33 12-40.8 32.2-14.5 37.6-12 74.6 1.4 111 5.8 15.9 13.1 32.1 27.8 43.2 14.8 11.3 32.7 9.3 43.6-5.7l2-2.5c2-2.6 4-5.1 5-8 2.1-5.8 5.4-11.2 11.3-10.4 6.8 1 8 8.3 8.7 14a3661 3661 0 0 0 22 156.7l5.9 38.8c2.6 17.1 5.6 41.7 3.6 52.1a28 28 0 0 0-.3 2.2c-.4 2.8-.6 5-4.2 5.5-4.9.8-7-2-7.7-6.4-2.3-17-3-23.6-4-49.6-.9-25.2-5.6-50-10.4-74.9l-5-27c-5.2-30.8-10.3-62-10.8-97l-2 3c-7.6 11.3-13.7 20.5-24.5 24a40.5 40.5 0 0 1-46.1-12.5 127.8 127.8 0 0 1-28.8-55.8c-8.4-34-9.9-67.1.9-100.6 5.2-16.1 23.7-44.7 42.2-42Zm34.6 127.5c4.4 3.2 8.4 6 12-5.4-1.1-42.2-14.7-69.2-35.8-70.3 11.2 14.6 22 28.8 23 48.5a32.3 32.3 0 0 1-10.7-8.8c-2-2.2-4-4.4-6.5-6l-3-2.4c-4.8-3.6-9.7-7.4-17.8-4.5 3.8 5.8 9 10 14.3 14 6 4.7 12 9.3 15.6 16.5-10.6 7.7-15.2 17.7-9.7 29.9 4.8 10.5 11.9 19.2 25.9 19.8-.6-6.3-4.7-10.9-8.8-15.4-5-5.4-9.7-10.6-7.5-18.6 3.2-1.5 6.2.7 9 2.7Z" fill="#000"/></g><g transform="translate(178 1057)"><path d="M1291.6 689H83.2l8.6-63.3S14.2 599.3 6.5 584c-7.8-15.3 84.1-214.2 96.7-245.6 12.7-31.5 77-142.8 115.1-164C260.7 150.6 400 87.5 408 81.1c26.1-21 82.7-42.8 82.7-42.8V69l171.4 281 10.3 37.8S776 107 785.7 50C793.9 2 905.5 60.2 905.5 60.2s114.1 70.6 143 93.3c58.4 46.2 140 138.6 180.7 239.2 23.2 57 72.5 168.2 80.6 181.3 8.1 13-27 36-27 36l8.8 79.1Z" fill="#fff"/><path fill-rule="evenodd" clip-rule="evenodd" d="M1044.5 160c-24.1-19.9-48.3-39.8-75-55.2-4-2.2-7.8-4.6-11.7-7-13.2-7.8-26.4-15.8-41.4-20.6-1.8 10.2-1.4 20-.5 29.6A699 699 0 0 1 916 248c-1.4 11.5-1.1 23.3-.8 35l.2 12.3c0 6.8-1 13.6-2.7 20-2.4 9.2-6.7 13.3-16 14-8.3.6-16.6 1.9-24.8 3.2a187.8 187.8 0 0 1-40.3 3.4c-2.8-.2-5.6-.1-7.3 0H823l3.5 4.4c3.2 4 7 8.7 10.4 13.6 5.5 7.7 6.7 14.4 1.5 24.9-26 52.4-61 97.3-98.6 138.3-12 13.1-23.4 27.2-34.7 41.2-18.7 23.3-37.4 46.6-59.8 65.8-11.3 9.7-21.5 20.8-31.8 32a403.9 403.9 0 0 1-31.7 32.1c-13.3.7-26.2.7-40.2.7 6.4-12.8 11.6-26.5 16.8-40.2a497 497 0 0 1 15-36.4 858.8 858.8 0 0 0 26.7-64.4c6-16 6.3-32.2-4.2-46.8l-11.4-16c-20.4-28.5-40.9-57-64.2-82.7-10.6-11.6-13-30-6.3-47 1.7-4.2 3.2-8.5 4.8-12.9l2.1-5.8c-14-6-28-6.3-42.1-6.7-6.7 0-13.3-.2-19.8-1l-1.4-.2c-21.6-2.4-22-2.5-29.6-26.2a699.8 699.8 0 0 1-31.6-157 134.6 134.6 0 0 0-9.9-43.4c-22.8 9.3-44.6 19.8-66.3 30.3l-1 .4c-24.7 12-49.2 24.9-73.5 38.1-36 19.8-64.1 49.8-87 86.6l-.5.8c-16.7 26.8-33.3 53.6-46.4 83L88 394.4l-13.3 29.3-10.5 23.1c-9.2 20.2-18.4 40.3-27 60.7a795.9 795.9 0 0 0-20.4 52.4c-4 11.7-.1 17 8.3 20l15 6a206 206 0 0 0 43.3 13.8c20 3.2 38 11.5 56 19.8l1.3.6 1.4.6c30.3 14 60 29.3 89.8 44.7a360.8 360.8 0 0 1 36.6 22.7c-9.6.8-19.2 1-28.8.3a620 620 0 0 0-80.9-37.3c-19.4-7.8-38.8-15.6-58-25a565 565 0 0 1-4.6 21.6C93 662 90 675.2 89.6 689H77c-2.2-7.2-.6-14 .9-20.8l1.2-5.5c2-11.3 1.2-19.7-11.4-22.1-18.5-3.7-34-14.8-49.6-25.9a1279 1279 0 0 0-5-3.5c-12-8.5-15.8-26.2-11.2-47 5.2-23.5 14.4-45 23.7-66.5l1.3-3c16.3-38 33.2-75.5 50.2-113l13.4-29.8c25.7-57.1 55.5-112 97.5-156.4 21-22.2 45-38.9 71.7-51.8 7.8-3.7 15.6-7.6 23.4-11.5 20-10 40-20 60.5-28.2 19.3-7.6 28-17 36.4-26.3 9-9.7 17.8-19.3 38.6-26.2l13.9-4.8c16.8-6 33.6-11.8 51.4-13.5h1c1.3-.1 2.6-.2 3.4-1l.3-.3c4-4 8.3-8 13-1.6a17.5 17.5 0 0 1 1 19.2c-7 10.8-3.2 21 .3 30.4l.3.9c8.4 22 60.2 109.5 78.7 134.6l6 7.9c21 28 72.4 96.4 87.9 143.7 6.2-12.1 10.6-25 14.9-37.7l5.2-15a2199 2199 0 0 0 29.2-86.7c3.7-11.5 7-23 10.2-34.7 2.7-9.4 5.3-18.8 8.2-28 4.3-14.2 8.8-28.2 13.3-42.2l9-28.2 5.9-19.2 6.5-21.5c8.3-25.8 10.4-30.5 34-29.7 29.2 1 63.6 11.3 83.6 19.7 96 40.4 248.5 140.6 319.7 290.2a2276 2276 0 0 1 59.5 140.3c17.5 44 31.2 78.6 42.6 95 9.6 14 8.5 22-4 32.1a92.1 92.1 0 0 0-4.7 4.1c-4 3.7-8 7.4-13.2 9-5.6 1.7-7.3 6.5-6.5 13a2842 2842 0 0 1 6.5 60.4c-4.1 1-8 1-13.3.1-4-9.2-3.8-18-3.6-26.5v-1c.5-15.5-3.5-29.7-7.7-44.6l-3-10.9c-3.3 1.4-6.6 2.7-10 3.9-7 2.6-13.7 5.1-20 8.8a252.2 252.2 0 0 1-76 30.5c-20.9 4.4-30.5 17.1-27.6 40.8-5 .1-10.1-.3-15.1-1.2-2-41.7 23.2-51.6 55.8-64.4l11.7-4.7c47.4-19.5 108-47.2 108-47.2s-61.1-143.9-82.6-198.2c-42-106.6-147.6-196.7-151.1-199.5l-16.7-13.7ZM729.3 261.3a2651.4 2651.4 0 0 1-51.6 140.5c-14 35.6-29.2 70.6-44.4 105.5l-1.5 3.6c-5.5 12.4-10.6 25-15.7 37.5-7.5 18.2-15 36.5-23.2 54.3-6.7 14.4-12.5 29.3-18.3 44.3l-8 20.4-.5 1.2c-1.2 2.7-2.4 5.4.4 8 2.1 2 4.4.5 6.2-1 2.4-2 4.8-4.1 7-6.4l13-13.5 18.4-19 19.5-19.6c10.6-10.6 21.2-21.1 31.6-32 7.5-7.8 14-16.7 20.5-25.6 7-9.5 14-19 22-27a560 560 0 0 0 58.8-68c6.2-8.5 12.7-16.8 19.2-25.1 14.3-18.5 28.6-37 40.1-58.1 5.2-9.5 6.4-16.1-2.4-23.8-6.7-6-12.3-13.6-17.8-21l-.7-1-.4-.5c-3-4.2-6.6-9-3.2-15.7 7.4-1 14.9-1.3 22.4-1.2 21 0 42-.8 63-1.6l3.7-.1c7.2-.3 11.9-4.4 12.2-13.4a1433.4 1433.4 0 0 1 1.8-34.5l1.5-25c1.8-28.5 3.6-57 2.5-85.5-1-24.3-1.4-48.7-.1-73 .7-12-3.3-17.6-11.7-22.9-23.6-14.8-49.5-18.3-75.4-21.9l-11.6-1.6c-6.6-1-8.8 3.4-10.5 8.8-1.6 5.2-3.5 10.4-5.3 15.6-2.8 7.7-5.6 15.5-7.6 23.6-3.3 13.4-8 26.2-12.7 39-2.8 7.6-5.6 15.3-8.1 23-4.6 14.4-8.7 29-12.8 43.8-5.9 21-11.8 42.5-19.6 63.9a28 28 0 0 1-.7 5Zm-240.7-172 .5 1.2C505.6 127.3 585.3 247.1 617 291l4.5 6.2c16.5 22.3 46.3 62.7 38 95.6a486 486 0 0 1-34 96c-.9 1.9-1.5 4-2.2 6.1a23.7 23.7 0 0 1-6.3 11.8c-13-22-28.3-42-43.6-61.9-6.9-9-13.8-18-20.5-27.2-4.8-6.6-10.2-12.6-15.5-18.7-4.5-5-9-10-13.1-15.4-5.1-6.6-4.6-10.9-1.4-16.3 3.5-5.9 5.7-12.4 8-18.9l1.8-5.4c4.7-13 1.5-19.8-10.8-23.7-8.5-2.6-17.2-2.7-25.9-2.7-5.6 0-11.2 0-16.7-.8-.6 0-1.3 0-2 .2l-1.4.2c-27.8.5-30.2-2-39.1-30.8A625.2 625.2 0 0 1 412 162.6c-1-8.8-2.6-17.4-4.2-26-1.5-7.6-3-15.1-3.9-22.8-2-15.8.5-21.5 13.3-27 14.6-6.3 19.1-12.7 23.2-18.5 4.6-6.5 8.7-12.3 25.8-16.6h.2c13.3-3.4 14.2-3.7 14.8 12.4.3 9.3 4 17.5 7.4 25.1Z" fill="#000"/></g><g transform="translate(266 207)"><g fill="#000"><path d="M1015.2 426.7c-1.3 43.6-21.8 77-52.8 103a274.8 274.8 0 0 0-52.9 58.7c-16 24-39.5 40.5-66.4 51.8-8.3 3.5-14 .8-17.4-7.2-.7-1.6-1.7-3.2-1.8-4.8-4.2-39-19.2-76-4.8-117.7a177.8 177.8 0 0 0 4.1-92c-14.2-71.4-55.7-119.7-56-120.2a8.3 8.3 0 0 0-14.3 0c-17.2 29.5-36.4 40-66.8 55.3-33.3 16.7-68.4 25.2-106.6 18.9-28.4-4.7-57.3-9-85.3 3.8-64.4 29.2-96.4 80.2-101 149.6-.8 10.3-1 20.5-5.3 30-2 4.3-4 9.2-9.5 9-5.3 0-5.7-5.6-7-9.5-6-19-14.3-37.1-24.6-54.2a66.1 66.1 0 0 0-22.2-20.8c-11.2-7.2-22.3-5-32 5.4-13.5 14.5-18.1 33.3-19.2 51.7-1.7 26.6-3.2 53.6 8.6 79.2 3.3 7.3 1.3 13.1-8.6 17.3-22.6 9.5-44 12.6-65.9-.5-2.2-1.3-5.6-2.1-6.3-4-6-14.8-19-14.1-31.3-14.7-37.8-1.6-49.7-36.4-38.8-64 3-7.4 4.4-15.4 10.4-21.7 4.7-5 2.3-9.6-4-13-36-19-38.7-69-5.6-94.4 9-6.8 12.1-2.6 22.6-7.4a8.3 8.3 0 0 0 4.8-8.4 398.2 398.2 0 0 1-1-47.3c1.7-38.7 16.5-68.4 53.7-84.8 9.8-4.3 19-9 29.9-10 8.1-.7 13.2-5 14.8-14.5 2.5-15 5-30 12-44 14.2-29.4 37.7-45.4 69.7-51 21-3.6 41.8-7.2 63-8.8 13.4-1 17.9-12.3 24-21A212 212 0 0 1 529 46.1c38.2-14 77-14.8 115.6-8.3a228 228 0 0 1 74.1 29.3c22.8 13 41.5 30.4 58.5 50 5.7 6.7 13.2 6.8 21 6.4 26.2-1.5 52.3.4 75.4 13.5 34.8 19.8 58.4 44.3 54.1 81.2-2 17-11.5 44.7-22 59.9a8.3 8.3 0 0 0 3 12.2c59.5 30.8 109.2 61 106.4 136.4Z"/><path d="M325.2 696.6c-15.7-1.5-24.3-10.8-23.3-23.7.6-7.6 3.7-9.7 10.8-6.1 27.9 14 43.6 7.5 52.8-22 1.1-3.7 1.6-7.4 6.2-8.7 7.3 2.6 7.4 10 7.2 14.9-1 22.6 4 44.5 6.5 66.6 1.3 11-2.4 15-13.5 14.4-19.8-1-31.2-9.5-36.7-28.8-1.5-5.4-4.2-6.8-10-6.6Z"/></g></g><g transform="translate(791 871)"><path d="M184 99.8a43 43 0 0 0 26.7-6.4c8.8-5.7 9.9-16.8 1.5-23.1-9.4-7.3-20-7-30-1.9-20.1 10.2-40 18.9-61.2 2.4-5-3.8-11.1-6.1-16.5-9.5a31.1 31.1 0 0 0-27-2.5C66.6 62.2 58 75.4 61.1 84.6c4 11.5 14.5 10.5 23.6 9.3 10.1-1.6 20.4-.7 30 2.7 22 7.7 44.3 7.4 69.1 3.2Z" fill="#fff"/><path fill-rule="evenodd" clip-rule="evenodd" d="m190.4 114.2 16-1.3c22.4-.3 37.1-30 22-49.3-14.2-18.4-37.7-21.3-56.8-5.5-11.4 9.5-26.3 11.5-34.6 2.8a67.3 67.3 0 0 0-33-18.1C74.9 35.3 50.6 49.4 47.3 82c-2 19.1 18.8 30 38.6 28.1l4.8-.5c5.3-.7 10.6-1.4 15.5.2 27.7 9 55.7 6.7 84.3 4.3Zm20.3-20.8a43 43 0 0 1-26.8 6.4c-24.8 4.2-47 4.5-69-3.2-9.7-3.4-20-4.3-30-2.7-9.2 1.2-19.7 2.2-23.7-9.3-3.2-9.2 5.5-22.4 16.2-25.8 9.3-3 18.4-2.8 27 2.5L111 65c3.5 1.8 7 3.6 10 6 21.2 16.4 41 7.7 61.2-2.5 10-5 20.6-5.4 30 1.9 8.4 6.3 7.3 17.4-1.5 23Z" fill="#000"/></g><g transform="translate(653 805)"></g><g transform="translate(901 668)"><path d="M68.7 106.5c6.5 23.1 15 44 30.2 62.1 6.2 7.4 3.6 18.1-3 24.6-13.8 13.4-29.3 24-50 15.6-5-2-9.2.5-13.7.9-9.5.8-16.6-1.5-16.6-14.3 13.2 2.4 25-7.3 38.9 1.2 6.2 3.9 17.9-.6 24.9-6 5.7-4.5 9.8-10.7 2.5-19.3-19-22.7-27-50.3-30-79.1a60 60 0 0 1 4.6-28.6C58.3 59 61.7 55 67.3 57c5.5 2 4.5 7.3 3 11-5.2 12.4-4 24.9-1.6 38.4Z" fill="#000"/></g><g transform="translate(610 680)"><path d="M407.4 122.5c13 .3 25.4 1.1 37.6 2.5 3 .4 5 3.3 5 6.7 0 3.3-1.7 5.6-4.7 7-11.2 4.8-22 8.2-33.7.2-6.5-4.5-9-8.7-4.2-16.4ZM247.6 117c7 0 7.8 3.8 7 8.5-2 10.2-20 22.4-30.4 20.5-5.9-1-10.5-4-10.7-10.5-.2-6.7 4.8-8.2 10.3-8.4 9-.3 15.8-5.2 23.8-10ZM215.1 76.6c5-12 9-29.4 24.1-22.5 20.7 9.4 13.9 30.7 9.7 47.4-1.6 6.3-14.5 15.9-18.3 14.3-16.3-6.8-19.2-21.7-15.5-39.2ZM442 113.4c-8.6 7.5-17 7.6-22.2-1.5-9-16-8.6-32.8 3.3-47.2 2.5-3 13.8-3.6 16.3-1 14 15 14.6 31.8 2.6 49.7Z" fill="#000"/></g><g transform="translate(610 680)"><g fill="#000"><path fill-rule="evenodd" clip-rule="evenodd" d="m264.3 14.3 78.4-.5 125.6-.8 6.2-.2c7.2-.4 14.6-.7 21 2.4 10.1 5 10.7 15 11.3 24.4a172.3 172.3 0 0 1-8.8 79.6 50.5 50.5 0 0 1-32 30.5c-23.5 7.8-48 13.5-72 4.8a65.7 65.7 0 0 1-42.1-39c-1.2-3.2-2.7-6.4-4.1-9.5a58.9 58.9 0 0 1-7-23.5c-.2-4.7-5.7-8.1-11.7-8.1-7 0-10.7 4.5-13.6 9.9a56.8 56.8 0 0 0-4.6 14.3c-.8 3.6-1.7 7.3-3 10.8-14.2 37-38.8 55.3-78.1 54.5a100.6 100.6 0 0 1-66.7-27.4A61.5 61.5 0 0 1 142.2 87a311.6 311.6 0 0 0 0-12 399 399 0 0 1-59.6-20.4C64.2 47 45.8 39.8 26.6 35c-3.3-.8-5.5-2-6.8-4.9-4-8.3-9.6-15.5-16.6-24.5L.3 2.1l18.9 3.3C32 7.7 43.9 9.8 55.9 11.7c9.8 1.6 19.7 3.4 29.5 5.2 20.1 3.7 40.2 7.4 60.7 8.9 6.6.4 12.5.3 18.2-5.9 6.2-6.8 16.3-6.3 25-6l2.8.2c23.7.8 47.3 1 72.2.2ZM96.1 51.7c2.8 1.5 5.2 1.1 5.2-2.4 0-18.9-14.5-29-34.1-23.5 4 14 14.6 20.5 28.9 26Zm16 3.6c-2-1.5-3-4.2-5.6-11.3-3.5-6-5-10.6-3.7-18a38.7 38.7 0 0 1 11.4 21c1 3.5 2 7 3.6 10.2-2.7-.6-4.4-1-5.7-2Z"/><path d="M287 44.8c-.8-6 3-7.4 7-7.4 19 0 38 0 57.1.5 4.4 0 8.5 2 11.1 5.5-6.9 8.1-53.6 9.4-75.3 1.4Z"/></g></g><g transform="translate(774 657)"><path d="M30.3 32.1C58 10 89.8 13.1 121 14.1c5.7 0 12.2 1.3 14.3 8.3 2.1 7.7-4.6 9.9-8.8 13.8a44.7 44.7 0 0 1-52.2 8.6 37.9 37.9 0 0 0-31.9 1.6c-2 1-3.8 1.9-5.8 2.6-6.3 2.5-14.3 6-18.6-.4-4.4-6.7 5.6-9 8.3-13.7.6-1 2-1.6 3.9-2.8ZM294.4 23.8c7.7 4.3 14.5 10 20 17 2.5 3 5 6.3 3 10.2-2.4 4.3-6.7 2.7-10.4 2.2-12.5-1.5-23.7-9.2-37-7.2-5 .8-9.9.7-15 2.5-13 4.7-31-6.4-33-19.8-1-5.4 1-8.5 6.8-10 22.2-5.7 44-9 65.6 5.1Z" fill="#000"/></g><g transform="translate(0 559)"><path d="M1372.2 1194h-130s14.1-33.2.2-56.2c-22.2-36.3-61.3-59.2-93.3-84-23-17.9-47-63-44-111.8 1.6-25.8 4.5-46.5 17.8-48s24.8 8.5 28.5 35.5c3.7 27 10.8 78.1 47 78.1 20 0 40.2-30.4 36.1-59.6-4-29.2-22.9-65.8-38.4-74.7-15.5-8.8-43.9-.5-58.4-1-14.6-.7-17.3-11-8.1-30 14.2-29.6 63.5-34 82.4-24.8 18.8 9.3 35 36.6 42 32.2 7.1-4.5-25.4-102.4-32.4-114.2-7-11.8-26.2-60.9-7.4-66.4 18.9-5.6 46.5 41 54.7 58.6 8.1 17.8 41.4 96.1 41.4 96.1s18.3-45.7 4-102.3c-3.8-15.3-13.3-60.6 1.9-60.6 15.1 0 38 56.9 41.7 68.7 3.7 11.8 11.8 80 14.4 107 2.6 27 7.8 62 7.8 62s24-52.5 27.6-68.7c6.3-28.4-6-70.4 13.2-73 34.5-4.6 32.3 94.9 22.1 130.2-8 27.8-34 124.8-51.5 153.9-14.5 24-19.7 70.7-18.7 96.7s-.6 56.4-.6 56.4Z" fill="#fff"/><path d="M1237.4 1194c-1-2.9-2-6.2-1-8.7 11-28.7-1.1-49.2-21-69.1-15.5-15.5-33.2-27.9-50.3-41-23.3-18-46-37.5-53.8-65.7-10.5-37.5-22.4-76.7 2.3-114.3 8.6-13.2 21-14 30.8-1.4 12.2 15.8 13.8 35.5 18.2 54 4.2 17.3 12.6 32.4 20.8 47.6 3.5 6.4 9.2 8.5 17.3 4.7 16.4-7.5 24.8-18 25.2-37.2.5-24.2-3-46.2-17-66.5-11.8-17.3-20-21-40.2-17.4-16 2.8-32.5 8.3-46.6-6.8-5.3-5.6-6.3-10.3-4.2-17 14.6-46.1 86.1-62.9 119.5-28 4 4.1 9 7.5 13 10.8-6.2-28.3-11.7-58-27-84.7-9.6-16.7-16-34.8-22.5-52.8-3.2-8.8-3.8-18.6 1.9-27 9.8-15 24.5-14.8 39.5-.3a160.1 160.1 0 0 1 37 59c8.4 21.7 19.2 42.5 25.4 65.1 1.5 5.7 4.1 11.2 4.8 17.3 2.4-19.1 6-38.3 3.2-57.6-3.3-21.8-6-43.8-7.8-65.8-1.3-14.4 3.6-69 32-23.7 12.3 21 22.5 43.2 30.4 66.3 8.7 26.4 13.6 114.5 13.6 158 0 24.6 26-127.2 26.3-128.3 2.5-6.9 6.9-11.8 14.3-13 7.3-1.2 11 3.2 15.6 8.5 13.4 15.3 11 58.9 12.5 76.6 6.2 72.7-32.3 150.2-60.3 228.2-21.5 60.1-6.5 129.6-7 130.2-3.5 4-10.5 0-17.1-1.1a826.6 826.6 0 0 1-1.3-76.7c.7-18.2 4-36.7 11.4-53.4 11.5-26 20.5-53 30.5-79.4a840.5 840.5 0 0 0 33-119.8c7.6-35-6.6-64.9-12.3-97.6-5.9 2.6-7 6-7.2 9.3-.7 12-3 23.6-3.6 35.6-1.8 36.9-9.5 72.3-31.8 103-1.9 2.7-2 7.1-6.8 6-4.5-1-5.6-5-5.6-9 0-31.5-8.9-62.3-8-93.8 1.2-37-7.5-71.7-21.7-105.3a160.3 160.3 0 0 0-21.4-39c-1.1 8.1-1.5 16.3-1.2 24.5.3 3.8.9 7.6 1.8 11.3 11.3 55.5 5.4 111-.5 166.4-.4 4.3-1 10.7-7.2 10.5-7.5-.1-6.6-7-6-11.7 2.6-20.1-4.3-38.6-10.3-56.9a775.8 775.8 0 0 0-36.5-90.9c-7.5-15.8-15.8-31-28.8-43-3.7-3.6-8.2-7.5-13.5-4-4.8 3-5.1 8.8-3.7 14 2.3 8 4.3 16.3 8 24a949.3 949.3 0 0 1 23 52.4c16.3 40.9 19.2 85.1 31 127.2 2 7 .6 13.5-8.2 16-4-4.7-6.6-10.1-6.4-15.4.2-10-4.6-17.8-9.3-25.8-11-18.9-25.2-34.9-44.6-45.8-22-12.3-52-3.5-73 22-2.5 3-7 6-4.8 11 2.3 5.2 7.1 7 12.5 7.3 9.4.5 18.8-.2 27.8-3.4 10-3.6 19-1.4 27.9 3.9 39.7 23.3 58.3 95.4 28 135.9-13.4 17.8-41.3 14.9-53 2-19.4-21.4-25.8-47.8-30.1-75.1-1.6-10.4-3.3-20.7-13.2-28-8.7 10-14 20.1-13.4 33 .5 10.6-.3 21.3.2 32 2 35 14.7 64.9 43.6 86.5 15.6 11.7 31.8 22.7 46.5 35.3 14 12.2 30 22.9 40.2 38.8 13.5 21 7 44.6 7 67.2h-16.8Z" fill="#000"/></g></g>
    </g>
  </g>
  <g clip-path="url(#clip_group_8_2)">
    <g transform="translate(33.6,22.9) scale(0.0305)">
      <metadata xmlns:rdf="http://www.w3.org/1999/02/22-rdf-syntax-ns#" xmlns:xsi="http://www.w3.org/2001/XMLSchema-instance" xmlns:dc="http://purl.org/dc/elements/1.1/" xmlns:dcterms="http://purl.org/dc/terms/"><rdf:RDF><rdf:Description><dc:title>Notionists</dc:title><dc:creator>Zoish</dc:creator><dc:source xsi:type="dcterms:URI">https://heyzoish.gumroad.com/l/notionists</dc:source><dcterms:license xsi:type="dcterms:URI">https://creativecommons.org/publicdomain/zero/1.0/</dcterms:license><dc:rights>Remix of „Notionists” (https://heyzoish.gumroad.com/l/notionists) by „Zoish”, licensed under „CC0 1.0” (https://creativecommons.org/publicdomain/zero/1.0/)</dc:rights></rdf:Description></rdf:RDF></metadata><mask id="mixed8_2_viewboxMask"><rect width="1744" height="1744" rx="0" ry="0" x="0" y="0" fill="#fff" /></mask><g mask="url(#mixed8_2_viewboxMask)"><g transform="translate(531 487)"><path d="M554 727.7c-99.2 297-363.8 388.6-503.7 19.8-19.3-50.7 31-69.5 66.2-91.9 24.1-15.3 36.8-28.5 35.3-42.2-7-64.4-36.9-243.8-36.9-243.8l-3-5.8s.7-1.6-2.2 1.2c-3 3-9.9 34.2-37 34.2-24.5 0-49.2-10.9-61-86.3C7.2 285.6 9.6 214 40 201c12.5-5.3 24-7.2 35.2-.8 11.3 6.4-13-22 112-126C268.4 6.4 396.7-3.5 448.5 8 500.3 19.5 552 44.8 574.9 98.5c27.8 65-25.9 114.3-14 262.5-2.2 53.6.8 171.2-146.6 210.6-28 7.5-19.3 48.4 22.7 58.4 67 21 117 72.3 117 97.9" fill="#fff"/><path fill-rule="evenodd" clip-rule="evenodd" d="m554 266.2.1-1.4c4.1-36.4 8.2-71.7 27.1-103.4 6.5 4.4 5.7 10 3.7 15.2-19.9 51.2-18 104.4-16.2 157.6l.4 14c2.1 66.4-14.5 126.8-58.7 177.5-15.4 17.6-35.8 29.8-56.5 40.3-21.4 11-25.9 20.1-19.2 43.6l.8 2.6c1.4 3.9 2.8 7.9-1 11.8-4.5 4.6-9.5 3.3-14.8 1.8l-.6-.1a406.4 406.4 0 0 1-137-68.3c-6-4.4-10.8-10.3-15.5-16.1l-.3-.4c-2.5-3-3-7.8.5-10.4 3.3-2.5 5.8-.5 8.7 1.8l1 .9a145.5 145.5 0 0 0 76.3 31.7c13.4 1.4 26.6.9 40 .4 7.4-.3 14.8-.6 22.3-.5 10.2 0 18.7-4.7 26.7-9.2l2.8-1.6c27.8-15.5 54.3-32.8 72.2-60.7 16.1-25 25.9-52.2 31.6-80.9 7.2-36.1 6.6-72.7 6-109.8-.3-12-.5-24.2-.5-36.4ZM50.6 190.8c21.9-1.7 34 11.2 44.3 26.3a140.4 140.4 0 0 1 22.4 61.5c.5 3.7 1 7.6-1.2 11.3-4.5.6-4.9-3-5-5.6-.5-20.7-9.7-38.7-18.9-56.1-6.6-12.5-16.2-24.6-31.4-27.6-17.2-3.5-33 12-40.8 32.2-14.5 37.6-12 74.6 1.4 111 5.8 15.9 13.1 32.1 27.8 43.2 14.8 11.3 32.7 9.3 43.6-5.7l2-2.5c2-2.6 4-5.1 5-8 2.1-5.8 5.4-11.2 11.3-10.4 6.8 1 8 8.3 8.7 14a3661 3661 0 0 0 22 156.7l5.9 38.8c2.6 17.1 5.6 41.7 3.6 52.1a28 28 0 0 0-.3 2.2c-.4 2.8-.6 5-4.2 5.5-4.9.8-7-2-7.7-6.4-2.3-17-3-23.6-4-49.6-.9-25.2-5.6-50-10.4-74.9l-5-27c-5.2-30.8-10.3-62-10.8-97l-2 3c-7.6 11.3-13.7 20.5-24.5 24a40.5 40.5 0 0 1-46.1-12.5 127.8 127.8 0 0 1-28.8-55.8c-8.4-34-9.9-67.1.9-100.6 5.2-16.1 23.7-44.7 42.2-42Zm34.6 127.5c4.4 3.2 8.4 6 12-5.4-1.1-42.2-14.7-69.2-35.8-70.3 11.2 14.6 22 28.8 23 48.5a32.3 32.3 0 0 1-10.7-8.8c-2-2.2-4-4.4-6.5-6l-3-2.4c-4.8-3.6-9.7-7.4-17.8-4.5 3.8 5.8 9 10 14.3 14 6 4.7 12 9.3 15.6 16.5-10.6 7.7-15.2 17.7-9.7 29.9 4.8 10.5 11.9 19.2 25.9 19.8-.6-6.3-4.7-10.9-8.8-15.4-5-5.4-9.7-10.6-7.5-18.6 3.2-1.5 6.2.7 9 2.7Z" fill="#000"/></g><g transform="translate(178 1057)"><path d="m1351 688-1370-3.3s11.4-97 44.4-189.1c41.2-115.2 107.2-232 125-246.1 20.9-16.8-11.6-18.2 3.5-41.2 33.5-51.1 147-97.5 179.9-114.1 58.7-29.8 164.9-47.8 164.9-47.8l27.2 53.5s63.6 21.9 138.7 24.4C705 125.6 799 94.8 799 94.8L787.9 37s169.6 34.8 253.5 85.6c48.3 29.3 108.6 75 110 101.2 2.2 39.8 1.8 36.7 24.1 51.9 53.5 36.2 98.8 122 121.3 191.2C1314.4 521.1 1351 688 1351 688Z" fill="#fff"/><path d="m842 687-269 1s19-182.5-1.4-325c-6.2-44.2-32.6-224.4-32.6-224.4s73.7 24.7 131.4 24.7C733 163.3 798 131 798 131s24.3 69 29 182.4l15 373.6Z" fill="#000"/><path fill-rule="evenodd" clip-rule="evenodd" d="M301.5 563.4c20.5 40.6 41 81.3 56 124.6 6.6 0 12 0 17.7-1l-4.3-11a672.5 672.5 0 0 0-19.6-47.8 5876 5876 0 0 0-34.2-70.7c-9.4-19.2-18.8-38.3-28-57.5-3.8-8-6-16.9-1.3-25.8 6.7-12.8 12.6-26 18.4-39.2l5.2-11.8c11-24.4 24.5-47.6 38-70.9 10.6-18.1 21.2-36.3 30.6-55 8-16.3 5.6-24.5-12-30a48.4 48.4 0 0 0-10.5-2.3c-8.6-.7-17.2-1.2-25.9-1.7-26.4-1.5-52.9-3-78.6-10.8-8-2.4-16.3-3.7-24.6-5-8-1.3-16-2.6-23.8-4.9l-4.6-1.3c-14.8-4.2-30-8.6-41.4-20.3l1.7-2.4c1-1.3 1.8-2.5 2.8-3.5 25.5-28.7 59-47 92.3-65.1l20-11a963.1 963.1 0 0 1 62.6-31.4c7.9-3.7 15.8-7.4 23.7-11.3A394 394 0 0 1 423 71.5c10.6-3.1 21.4-5.6 32.2-8 7.8-1.9 15.6-3.7 23.3-5.7 20.1-5.3 23.8-4 29 15.7l9.1 34.2a2051 2051 0 0 1 26.8 106.6c8.7 40.7 14.4 82 17.2 123.5a1480 1480 0 0 0 6.8 70.7c3.7 32.2 7.3 64.3 8 96.7.5 20.8-.1 41.6-.8 62.4l-.8 29c-.3 13.5-1.8 26.9-3.3 40.2-2 17-4 34-3.3 51.2 6.7 0 12.2 0 17.8-1.2l.6-16.2c.2-10.2.5-20 1.6-29.6 5.7-51 4.8-102 3.7-153-.7-33.6-3.6-67-8.4-100.2a605.8 605.8 0 0 1-4.6-52.8c-1.3-23-2.6-46.1-7.3-69a1627 1627 0 0 1-6.7-34.2 906 906 0 0 0-13-61.8c-.2-1-.6-2-1-3-1.2-3-2.5-6 .6-8.9 4-3.8 9.1-2.7 14-1.4A373 373 0 0 0 690 167.3c31.6-2.4 62.8-5.8 91.8-19.5 8.7-4 15.5-1.5 17.4 9 1 5.6 1.7 11.2 2.4 16.9 1 7.9 2.1 15.8 3.8 23.4 7.8 34.8 10 70 12 105.2 1 16.1 2 32.2 3.5 48.3 1.1 12 2 24.2 2.8 36.3 1 14.6 2 29.1 3.6 43.7 6.3 60.7 4.7 121.5 2.7 182.3l-.7 20c-.7 18.4-1.4 36.7-1.4 55 5.8 0 10.4 0 15.4-1l.8-5.3c1-6.5 2-12.5 2-18.4l.3-44.7c.1-28 .3-56.2 1.6-84.2 1.7-37 .6-74-3.2-111-2.7-26.2-4.5-52.4-6.3-78.7-1.7-24.1-3.4-48.3-5.7-72.4-4.5-46-10.5-92-20.5-137.3a2499.2 2499.2 0 0 1-13.8-68.7c-.5-2.4-.4-5-.4-7.4v-4c-.3-6.4 2.7-8.5 9.1-7.2a642.2 642.2 0 0 1 79.2 18.8c21 6.9 41.7 15 62.3 23 7.3 3 14.7 5.8 22 8.6a446.7 446.7 0 0 1 141 84.8c13 11.7 24.1 25.1 31.8 40.6 4.5 9.3-.3 19.2-9.6 21l-9.2 1.9c-22.7 4.4-45.4 9-67.6 15.7a251.6 251.6 0 0 0-92.9 50.8c-7.6 6.6-8.7 14.7-4.5 23.2 4 8 8.4 16 13.2 23.6 5.8 9.2 11.7 18.4 17.7 27.5a705.7 705.7 0 0 1 42 70c3.2 6.5 4 13-.3 18-9.4 10.8-16.8 22.9-24.3 35a360.3 360.3 0 0 1-16.9 25.7 486 486 0 0 0-53.6 90.3c-3.6 7.9-6.6 16-9.7 24.2-4.8 13-9.7 25.8-16.5 37.7 7.5 0 14 0 20.6-1 10.7-33 23.5-64.2 41.5-93 23-37.1 47.5-73.3 72.3-109.3 6.3-9 9.7-18.8 3.8-31a589 589 0 0 0-27-48.5l-.4-.7c-13.9-23-28.7-45.6-43.7-68-4.7-7.2-2.2-12 3-16.8a158.1 158.1 0 0 1 41.7-26.7 355.4 355.4 0 0 1 102.9-29.7c12.8-1.7 22.3.7 32 7.6 34.6 24.3 64.6 51 82.6 90.3l8.7 18.7c12.8 27.6 25.6 55.2 35.5 84a1107 1107 0 0 1 41 147.4c5.8 25.6 11.6 51.2 18.2 76.7 4.9 0 8.6 0 12-1-5.3-21.6-9-43.3-12.8-65-4.7-27-9.4-54-17-80.4l-1.4-5.3c-6.6-23.2-13.2-46.4-21.1-69a882 882 0 0 0-52-121.3c-18.2-34.7-45.8-61.4-77.7-84.9-1.4-1-3.2-1.9-5-2.8-6-3.1-12.7-6.5-9.7-16.8 5.2-17.6 1.8-33.7-13.7-46.3a86.8 86.8 0 0 1-9.6-9.7l-3-3.3c-41.4-45.3-95.8-72.5-151.8-97-36.4-15.9-74.5-28.1-112.6-40-23.7-7.3-48-13.2-73-15-12.7-1-18 4.8-16.5 16.8.4 3 .8 6 1 9 .8 6.7 1.5 13.5 3.1 20 2.8 11.2-3.2 17.2-12 21.2-22 9.8-45.4 17.3-69.4 18.8-52.8 3.3-105.4.7-156-16.9-8.5-3-13.3-7.4-16.9-14.7-2.5-5-4.7-10.2-6.8-15.3a224 224 0 0 0-11-23c-5.4-9.6-11.8-11.8-21.6-8.6-6.4 2-12.8 3.7-19.3 5C434.6 50.4 399.3 59 366.5 75c-46 22.4-91.7 45.1-136 70.3-30.3 17.2-60 34.8-82.7 61.3-6.2 7.3-7.5 14.5-2.5 22.2 4.2 6.5 3.9 11.5-2 17a139.2 139.2 0 0 0-22.8 30c-1.8 2.8-3.5 5.7-5.4 8.5-21 32-39.7 65.2-56 99.5A873.4 873.4 0 0 0 26.7 463l-1 2.8c-7.9 22-15.7 43.9-21.3 66.5a925 925 0 0 1-5.6 21.5 563.4 563.4 0 0 0-8.8 35.3c-6.6 32.9-12.2 66-17 98.9 6.7 0 12.1 0 18-1l8-46c2-12.3 4-24.5 6.2-36.6 11-63 32.6-123 57-182a838.3 838.3 0 0 1 91-160.9c4-5.6 9-7.2 15.7-7.8 16.4-1.5 31.6 2.9 46.8 7.2 7.8 2.3 15.6 4.5 23.5 6l15.7 2.8c27 5 54 10 81.8 11.4 2.9.2 5.8.2 8.7.2 8.1 0 16.5 0 25.3 3l-8.4 13.6-23.8 38.6a729.7 729.7 0 0 0-50 95.6 948.5 948.5 0 0 1-18.2 39.1c-3.8 7.6-4.9 14.6-1.7 22l1.3 3c6 14 11.9 27.8 18.6 41.4l13 25.8Zm476.8-452c4.8-2.6 10.3-5.4 11.2 3.7 1.8 10.6-5.4 14.2-11.5 17.3l-1.8 1c-17.5 9.2-37 14-56.8 16.2a437 437 0 0 1-145.1-5.8c-9.6-2.2-18.8-5.6-27.4-10-5.6-2.7-8.1-6.8-6.8-12.5 1.5-6 5.5-5 9.5-4l2.4.6 19.4 3.8c16.5 3.3 33.1 6.6 49.9 9a293 293 0 0 0 103.8-2.9l1-.1c18-3.8 35.8-7.5 52.2-16.2Z" fill="#000"/><path d="M199 688c3-35 7-69.8 11.4-104.7 3.6-29.7 4-60 17.4-88 1-2.4 2.3-4.6 3.8-6.7 2.3-3.1 5-6.8 9.7-5.2 5.3 1.7 3.6 6.4 2.7 9.9-8 32.1-13.3 64.8-17.7 97.5-4.1 31.5-6.2 63.3-9.4 96-5.8 1.2-11.2 1.2-18 1.2ZM1149.9 688c-9.8-36.3-12.8-73.7-23.3-109.7-6.2-21-9.8-42.8-17.9-63.4-1.6-4.2-.5-9 4-11.2 4.4-2.3 7.4 1.3 9.9 4.3a55.4 55.4 0 0 1 9.9 22.1c11.5 43.4 20.8 87.4 27.6 131.7 1.2 8 1.2 16 1.9 25.2-3.5 1-7.3 1-12.1 1Z" fill="#000"/><path fill-rule="evenodd" clip-rule="evenodd" d="M797.4 536.7c2.5 2.7 5 5.4 6.9 8.6 2 4 2.8 10-1 13.3-2.5 1-5 0-7.2-1l-.7-.3a96 96 0 0 1-12.4-7 586 586 0 0 1-52.4-40.1 1501.4 1501.4 0 0 1-53-46.5c-10.3-9.3-20.6-18.7-30.8-28.2a281.8 281.8 0 0 1-14.7-15 30.6 30.6 0 0 1-6-8.4c-6.4-17.8 7.6-21.9 22.8-24.4 10.9-1.8 22-3 33-4.2h.8a57.7 57.7 0 0 0 13.7-2.8c1-.4 1-.5 1.3-1v-.3a68.3 68.3 0 0 0-9.4-18 610 610 0 0 0-44.6-55.6 7452 7452 0 0 0-19.3-22l-2-2.3c-4.7-5.2-9.4-10.4-6.5-17.8 1.4-4.6 5.8-2.4 8.7-.6a163 163 0 0 1 11.2 7.2h.1a971.7 971.7 0 0 1 37.6 27.2 589.2 589.2 0 0 1 74.4 64 592.2 592.2 0 0 1 24.6 21.4c2.9 2.7 5.7 5.3 7.7 8.6 3.5 5.7 2 13-4 16.5a71.5 71.5 0 0 1-24.3 6.5c-8.8 1.2-17.8 2-26.7 2.7l-8.5.7c-8.3.7-16.9 1.5-22.6 3.5-.8.3-1.6.7-2.3 1.2 1.4 2.6 2.1 3.6 3.4 5.3l2.5 3.4c11 14.4 23.7 27.5 36.3 40.6A7081.6 7081.6 0 0 1 751 489c10.9 11 21.8 22 32.6 33.2l1.5 1.6 11 11.4 1.4 1.4Zm-116.6-85.3 8 7.2c15.7 14.2 31.7 28.2 48 41.8a575.5 575.5 0 0 0 44.2 34.1l-24-24.3c-14.5-14.7-29-29.4-43.3-44.5-6.8-7.3-13.3-15-19.4-22.9-.6-1-1.3-1.8-2-2.7-2.2-3.2-4.6-6.5-6-10.1-2.8-6.7-2.8-17.4 5.7-20.2a64.4 64.4 0 0 1 16.8-2.6l15.8-1.3 14-1.1 2-.2c11-1 27-2.6 34.1-7.2-5-5.7-14-13.4-22.3-20.6l-10.6-9.3a3562 3562 0 0 1-27.4-24.7c-8.3-5.8-16.5-11.8-24.6-18a1554.7 1554.7 0 0 0-44-32.8c9.5 10.9 19 21.9 28.1 33.2l3.9 5c11 14 26.3 33.5 27.3 49.1.2 5.8-1.4 12.3-7.3 15.1-4.8 1.9-10 2.4-15 2.9l-5.3.6a488 488 0 0 0-32.7 4.5c-4 .7-7.2 1.4-11.2 3.7 7 8.7 30.7 30.3 47.2 45.3Z" fill="#fff"/></g><g transform="translate(266 207)"><path d="M927 341a122 122 0 0 1 .7 98.3c-12.7 29.6-25.3 59.3-36.6 89.5-13.4 35.6-7.7 69.6 10 103 21 39.5 44.8 77.8 58.2 121.1 13 42.5 18.3 85.5.5 127.2-15.2 35.9-33.6 70.5-71 89.8a131 131 0 0 1-94 10.5c-36-8.5-62.3-31.3-88.6-55a723 723 0 0 0-47.4-40.2c-12.6-9.6-20.4-22.8-30.4-34.3-1.6-1.8-1.9-3.9-.5-5.8 1.3-2 3.3-1.8 5.6-1.3 52.1 13 86.3-14 116.2-51.6 30.7-38.6 49.2-83 62-129.9A519.9 519.9 0 0 0 830.5 492c-2-29.8-6.4-59.7-14.4-89-8.6-31-19.8-60.2-38.2-86.7-6.4-9-14.7-16.1-21.9-25.6a346.7 346.7 0 0 1-57.6 49.3 606.7 606.7 0 0 1-135.2 71.5c-42.6 16.7-88 21.7-131.2 35.4a61.5 61.5 0 0 0-35.1 27.9 108.5 108.5 0 0 0-13.9 76.1c1 5.2 2.9 11.5-4.2 12.4-6.5.8-5.2-6.2-6.4-10.5-4.8-17.5-8.2-35.4-15-52.4-7.6-19-31.8-33.4-49-28a35.8 35.8 0 0 0-22.3 23.1 184.5 184.5 0 0 0-11.6 89.8c2.7 20.7 14.1 36.7 25.7 52.8 15.8 22.2 26 25 51.8 17.5 8.5-2.6 12.4-8.3 16.3-15 1.6-2.9 3.6-6.4 7.6-5.6 3.9.6 7 3.6 8 7.5 8 36.4 20.3 71.8 21.5 109.7 1.7 55.6-47 106.3-99.5 107.2-33 .6-65-4-97.3-9a182 182 0 0 0-67.2 2.4c-23.9 5.3-47 11.6-66.6 27.1-5.3 4.2-9.6 2.1-13.2-4-19.8-33.4-38.4-67.2-48.6-105C0 722.2-6 674 7.9 623.8c5.5-20 10.2-40 19.4-58.6 16.8-34 39-63.4 70.6-85 35-24 70.2-47.6 105.2-71.5 29-19.7 51-46 70-75 34.5-52.6 73.8-101 123.7-139.5 34.7-27 72.5-49.4 115.6-59.8 30.6-7.6 62.4-9 93.6-4.1 23.6 3.6 46.5 8.4 67.3 20.3 12.4 7.1 25.2 14.1 36 23.3a120.7 120.7 0 0 0 41 21.1c40 13.3 76.7 32.1 109.4 58.6 29 23.5 54 50.4 67.3 87.3Z" fill="#000"/></g><g transform="translate(791 871)"><path d="M159.8 103c-3.2-2.8-6-6.4-9.7-8.1-18-8.5-31.4-21.7-44-36.9-14-16.7-28-34.4-49-43.4-8-3.5-16.3-7.8-24.7 0C22 24.1 9.6 33 12.4 49.1c2.5 14 11 24.6 22.6 33.8 26.5 21.1 58 26.5 90 30.7 11.8 1.6 25.3 1.5 34.8-10.6Z" fill="#fff"/><path fill-rule="evenodd" clip-rule="evenodd" d="M104.8 38.9a85.7 85.7 0 0 0-24-23.6c-4.2-4.4-9.2-6.3-14-8-2-.8-4-1.5-5.8-2.4-22-10.3-48.1.7-57.4 23.3a50.7 50.7 0 0 0 16.1 58.2c20.7 17.7 45.5 30 72.1 35.7 22.7 5 45 7.8 67.9.5 8.8-2.8 16-7.1 17.1-16.5 1.1-8.2-3.5-14.4-10.8-18.7-1.5-.9-2.9-2-4.3-3.2-1.5-1.2-3-2.4-4.8-3.4-19.5-11.2-38.2-23-52-42Zm52 61.3 3 2.8c-9.5 12.1-23 12.2-34.9 10.6-31.8-4.2-63.4-9.6-90-30.7a55.9 55.9 0 0 1-22.5-33.8C9.9 34.8 19.5 26 29 17.7l3.4-3c8-7.4 15.7-4 23.3-.7l1.5.6c19.9 8.6 33.4 24.8 46.6 40.7L106 58A131.4 131.4 0 0 0 150.1 95c2.5 1.2 4.6 3.2 6.7 5.3Z" fill="#000"/></g><g transform="translate(653 805)"></g><g transform="translate(901 668)"><path d="M69.4 96c-.6-14.1-4.3-27.2.4-40.1 1.2-3.3 1.2-8.6 6.7-8 5.5.8 4.5 5.6 4 9.2-4.6 30.7 7 58.6 15 87 2.7 9.3 6.6 18.2 6.1 28.4-.8 16.4-11.3 26.4-27.4 23.6a29.5 29.5 0 0 0-17.2 1.8c-14 5.6-26-5-39.6-5.3-4 0-6.6-7.3-7-12.7 0-2.5.4-5.2 3.5-6 2-.8 4.4.2 5.3 2.2 3.6 7 9.3 3.2 14.4 4.2 11.9 2 23 1.3 34.8.9 5.8-.3 11.7 3.3 17.2-1.7 5.8-5.2 4-11.3 2.2-17.6C81.7 140.3 72 119.7 69.4 96Z" fill="#000"/></g><g transform="translate(610 680)"><path d="M409.2 75.7c13.1.3 25.4 1 37.7 2.5 3 .3 4.9 3.3 5 6.6 0 3.4-1.8 5.7-4.8 7-11.1 4.9-22 8.3-33.7.2-6.5-4.4-8.9-8.6-4.2-16.3ZM254.7 78.4c6.2 3.3 5.2 7 2.1 10.8-6.5 8-28.2 10-36.4 3.5-4.7-3.8-7.3-8.6-4.4-14.4 3-6 8.2-5 13-2.5 8 4 16.4 3 25.7 2.6Z" fill="#000"/></g><g transform="translate(610 680)"><path d="M266 18.1A80.2 80.2 0 0 1 301 62.8c15.8-3 30.7-5.8 46.4 2.2a97.5 97.5 0 0 1 19.8-34.7C382.8 14 418 2 443.5 10.5c26.2 8.8 44.9 26.2 52.7 51.2a75.5 75.5 0 0 1-11.3 67.8c-35.8 51-110.3 37.5-132.4-14-3.6-8.2-5.7-16.9-6.3-25.8-.6-10.5-5.3-15.8-15-17.3-11.9-1.8-21.2 1.8-25.4 13.9-3.3 9.1-3.2 19-7.4 28.2-13.3 29-37.9 47.4-71.8 47.1-28.5-.2-61.4-18-69-48.8-8.4-34-35.5-41.3-62.4-50.6-22.8-7.9-45.5-16-68.2-24-4.7-1.7-7.3-5.4-5.5-10 2.2-5.7 6.8-3.4 10.8-2C66.4 38.8 100.7 51 134.7 63.8c11.8 4.4 18.5-3.2 22.6-10.7 23.3-42.4 58.4-55.5 103-37.2 1.7.6 3.3 1.2 5.7 2.3Z" fill="#000"/></g><g transform="translate(774 657)"><path d="M53.5 37.6a79.2 79.2 0 0 0 27.3-19.8c2.7-3 6.1-5.7 9.9-5 6.7 1.1 16.2-1 18.8 7.5 2.1 7-5.2 10.5-10.3 14.4-13.8 10.5-28.2 19-46.6 16.7-4.6-.5-9.7.2-11-6.2 1.6-5.5 7.3-4.9 11.9-7.6ZM251.4 15c8.5-1.7 12.6 4.1 17.1 8.2 8.1 7.4 14.7 16.4 26 19.8 3.3 1 5.7 4 4 8-1.5 3.5-4 5.7-8 4.6-14.3-3.8-29.2-5.9-40.6-16.8-10-9.6-10.2-14 1.5-23.7Z" fill="#000"/></g><g transform="translate(0 559)"></g></g>
    </g>
  </g>
  <g clip-path="url(#clip_group_8_1)">
    <g transform="translate(11.7,22.9) scale(0.0305)">
      <metadata xmlns:rdf="http://www.w3.org/1999/02/22-rdf-syntax-ns#" xmlns:xsi="http://www.w3.org/2001/XMLSchema-instance" xmlns:dc="http://purl.org/dc/elements/1.1/" xmlns:dcterms="http://purl.org/dc/terms/"><rdf:RDF><rdf:Description><dc:title>Notionists</dc:title><dc:creator>Zoish</dc:creator><dc:source xsi:type="dcterms:URI">https://heyzoish.gumroad.com/l/notionists</dc:source><dcterms:license xsi:type="dcterms:URI">https://creativecommons.org/publicdomain/zero/1.0/</dcterms:license><dc:rights>Remix of „Notionists” (https://heyzoish.gumroad.com/l/notionists) by „Zoish”, licensed under „CC0 1.0” (https://creativecommons.org/publicdomain/zero/1.0/)</dc:rights></rdf:Description></rdf:RDF></metadata><mask id="mixed8_1_viewboxMask"><rect width="1744" height="1744" rx="0" ry="0" x="0" y="0" fill="#fff" /></mask><g mask="url(#mixed8_1_viewboxMask)"><g transform="translate(531 487)"><path d="M554 727.7c-99.2 297-363.8 388.6-503.7 19.8-19.3-50.7 31-69.5 66.2-91.9 24.1-15.3 36.8-28.5 35.3-42.2-7-64.4-36.9-243.8-36.9-243.8l-3-5.8s.7-1.6-2.2 1.2c-3 3-9.9 34.2-37 34.2-24.5 0-49.2-10.9-61-86.3C7.2 285.6 9.6 214 40 201c12.5-5.3 24-7.2 35.2-.8 11.3 6.4-13-22 112-126C268.4 6.4 396.7-3.5 448.5 8 500.3 19.5 552 44.8 574.9 98.5c27.8 65-25.9 114.3-14 262.5-2.2 53.6.8 171.2-146.6 210.6-28 7.5-19.3 48.4 22.7 58.4 67 21 117 72.3 117 97.9" fill="#fff"/><path fill-rule="evenodd" clip-rule="evenodd" d="m554 266.2.1-1.4c4.1-36.4 8.2-71.7 27.1-103.4 6.5 4.4 5.7 10 3.7 15.2-19.9 51.2-18 104.4-16.2 157.6l.4 14c2.1 66.4-14.5 126.8-58.7 177.5-15.4 17.6-35.8 29.8-56.5 40.3-21.4 11-25.9 20.1-19.2 43.6l.8 2.6c1.4 3.9 2.8 7.9-1 11.8-4.5 4.6-9.5 3.3-14.8 1.8l-.6-.1a406.4 406.4 0 0 1-137-68.3c-6-4.4-10.8-10.3-15.5-16.1l-.3-.4c-2.5-3-3-7.8.5-10.4 3.3-2.5 5.8-.5 8.7 1.8l1 .9a145.5 145.5 0 0 0 76.3 31.7c13.4 1.4 26.6.9 40 .4 7.4-.3 14.8-.6 22.3-.5 10.2 0 18.7-4.7 26.7-9.2l2.8-1.6c27.8-15.5 54.3-32.8 72.2-60.7 16.1-25 25.9-52.2 31.6-80.9 7.2-36.1 6.6-72.7 6-109.8-.3-12-.5-24.2-.5-36.4ZM50.6 190.8c21.9-1.7 34 11.2 44.3 26.3a140.4 140.4 0 0 1 22.4 61.5c.5 3.7 1 7.6-1.2 11.3-4.5.6-4.9-3-5-5.6-.5-20.7-9.7-38.7-18.9-56.1-6.6-12.5-16.2-24.6-31.4-27.6-17.2-3.5-33 12-40.8 32.2-14.5 37.6-12 74.6 1.4 111 5.8 15.9 13.1 32.1 27.8 43.2 14.8 11.3 32.7 9.3 43.6-5.7l2-2.5c2-2.6 4-5.1 5-8 2.1-5.8 5.4-11.2 11.3-10.4 6.8 1 8 8.3 8.7 14a3661 3661 0 0 0 22 156.7l5.9 38.8c2.6 17.1 5.6 41.7 3.6 52.1a28 28 0 0 0-.3 2.2c-.4 2.8-.6 5-4.2 5.5-4.9.8-7-2-7.7-6.4-2.3-17-3-23.6-4-49.6-.9-25.2-5.6-50-10.4-74.9l-5-27c-5.2-30.8-10.3-62-10.8-97l-2 3c-7.6 11.3-13.7 20.5-24.5 24a40.5 40.5 0 0 1-46.1-12.5 127.8 127.8 0 0 1-28.8-55.8c-8.4-34-9.9-67.1.9-100.6 5.2-16.1 23.7-44.7 42.2-42Zm34.6 127.5c4.4 3.2 8.4 6 12-5.4-1.1-42.2-14.7-69.2-35.8-70.3 11.2 14.6 22 28.8 23 48.5a32.3 32.3 0 0 1-10.7-8.8c-2-2.2-4-4.4-6.5-6l-3-2.4c-4.8-3.6-9.7-7.4-17.8-4.5 3.8 5.8 9 10 14.3 14 6 4.7 12 9.3 15.6 16.5-10.6 7.7-15.2 17.7-9.7 29.9 4.8 10.5 11.9 19.2 25.9 19.8-.6-6.3-4.7-10.9-8.8-15.4-5-5.4-9.7-10.6-7.5-18.6 3.2-1.5 6.2.7 9 2.7Z" fill="#000"/></g><g transform="translate(178 1057)"><path d="M1291.6 689H83.2l8.6-63.3S14.2 599.3 6.5 584c-7.8-15.3 84.1-214.2 96.7-245.6 12.7-31.5 77-142.8 115.1-164C260.7 150.6 400 87.5 408 81.1c26.1-21 82.7-42.8 82.7-42.8V69l171.4 281 10.3 37.8S776 107 785.7 50C793.9 2 905.5 60.2 905.5 60.2s114.1 70.6 143 93.3c58.4 46.2 140 138.6 180.7 239.2 23.2 57 72.5 168.2 80.6 181.3 8.1 13-27 36-27 36l8.8 79.1Z" fill="#fff"/><path fill-rule="evenodd" clip-rule="evenodd" d="M1044.5 160c-24.1-19.9-48.3-39.8-75-55.2-4-2.2-7.8-4.6-11.7-7-13.2-7.8-26.4-15.8-41.4-20.6-1.8 10.2-1.4 20-.5 29.6A699 699 0 0 1 916 248c-1.4 11.5-1.1 23.3-.8 35l.2 12.3c0 6.8-1 13.6-2.7 20-2.4 9.2-6.7 13.3-16 14-8.3.6-16.6 1.9-24.8 3.2a187.8 187.8 0 0 1-40.3 3.4c-2.8-.2-5.6-.1-7.3 0H823l3.5 4.4c3.2 4 7 8.7 10.4 13.6 5.5 7.7 6.7 14.4 1.5 24.9-26 52.4-61 97.3-98.6 138.3-12 13.1-23.4 27.2-34.7 41.2-18.7 23.3-37.4 46.6-59.8 65.8-11.3 9.7-21.5 20.8-31.8 32a403.9 403.9 0 0 1-31.7 32.1c-13.3.7-26.2.7-40.2.7 6.4-12.8 11.6-26.5 16.8-40.2a497 497 0 0 1 15-36.4 858.8 858.8 0 0 0 26.7-64.4c6-16 6.3-32.2-4.2-46.8l-11.4-16c-20.4-28.5-40.9-57-64.2-82.7-10.6-11.6-13-30-6.3-47 1.7-4.2 3.2-8.5 4.8-12.9l2.1-5.8c-14-6-28-6.3-42.1-6.7-6.7 0-13.3-.2-19.8-1l-1.4-.2c-21.6-2.4-22-2.5-29.6-26.2a699.8 699.8 0 0 1-31.6-157 134.6 134.6 0 0 0-9.9-43.4c-22.8 9.3-44.6 19.8-66.3 30.3l-1 .4c-24.7 12-49.2 24.9-73.5 38.1-36 19.8-64.1 49.8-87 86.6l-.5.8c-16.7 26.8-33.3 53.6-46.4 83L88 394.4l-13.3 29.3-10.5 23.1c-9.2 20.2-18.4 40.3-27 60.7a795.9 795.9 0 0 0-20.4 52.4c-4 11.7-.1 17 8.3 20l15 6a206 206 0 0 0 43.3 13.8c20 3.2 38 11.5 56 19.8l1.3.6 1.4.6c30.3 14 60 29.3 89.8 44.7a360.8 360.8 0 0 1 36.6 22.7c-9.6.8-19.2 1-28.8.3a620 620 0 0 0-80.9-37.3c-19.4-7.8-38.8-15.6-58-25a565 565 0 0 1-4.6 21.6C93 662 90 675.2 89.6 689H77c-2.2-7.2-.6-14 .9-20.8l1.2-5.5c2-11.3 1.2-19.7-11.4-22.1-18.5-3.7-34-14.8-49.6-25.9a1279 1279 0 0 0-5-3.5c-12-8.5-15.8-26.2-11.2-47 5.2-23.5 14.4-45 23.7-66.5l1.3-3c16.3-38 33.2-75.5 50.2-113l13.4-29.8c25.7-57.1 55.5-112 97.5-156.4 21-22.2 45-38.9 71.7-51.8 7.8-3.7 15.6-7.6 23.4-11.5 20-10 40-20 60.5-28.2 19.3-7.6 28-17 36.4-26.3 9-9.7 17.8-19.3 38.6-26.2l13.9-4.8c16.8-6 33.6-11.8 51.4-13.5h1c1.3-.1 2.6-.2 3.4-1l.3-.3c4-4 8.3-8 13-1.6a17.5 17.5 0 0 1 1 19.2c-7 10.8-3.2 21 .3 30.4l.3.9c8.4 22 60.2 109.5 78.7 134.6l6 7.9c21 28 72.4 96.4 87.9 143.7 6.2-12.1 10.6-25 14.9-37.7l5.2-15a2199 2199 0 0 0 29.2-86.7c3.7-11.5 7-23 10.2-34.7 2.7-9.4 5.3-18.8 8.2-28 4.3-14.2 8.8-28.2 13.3-42.2l9-28.2 5.9-19.2 6.5-21.5c8.3-25.8 10.4-30.5 34-29.7 29.2 1 63.6 11.3 83.6 19.7 96 40.4 248.5 140.6 319.7 290.2a2276 2276 0 0 1 59.5 140.3c17.5 44 31.2 78.6 42.6 95 9.6 14 8.5 22-4 32.1a92.1 92.1 0 0 0-4.7 4.1c-4 3.7-8 7.4-13.2 9-5.6 1.7-7.3 6.5-6.5 13a2842 2842 0 0 1 6.5 60.4c-4.1 1-8 1-13.3.1-4-9.2-3.8-18-3.6-26.5v-1c.5-15.5-3.5-29.7-7.7-44.6l-3-10.9c-3.3 1.4-6.6 2.7-10 3.9-7 2.6-13.7 5.1-20 8.8a252.2 252.2 0 0 1-76 30.5c-20.9 4.4-30.5 17.1-27.6 40.8-5 .1-10.1-.3-15.1-1.2-2-41.7 23.2-51.6 55.8-64.4l11.7-4.7c47.4-19.5 108-47.2 108-47.2s-61.1-143.9-82.6-198.2c-42-106.6-147.6-196.7-151.1-199.5l-16.7-13.7ZM729.3 261.3a2651.4 2651.4 0 0 1-51.6 140.5c-14 35.6-29.2 70.6-44.4 105.5l-1.5 3.6c-5.5 12.4-10.6 25-15.7 37.5-7.5 18.2-15 36.5-23.2 54.3-6.7 14.4-12.5 29.3-18.3 44.3l-8 20.4-.5 1.2c-1.2 2.7-2.4 5.4.4 8 2.1 2 4.4.5 6.2-1 2.4-2 4.8-4.1 7-6.4l13-13.5 18.4-19 19.5-19.6c10.6-10.6 21.2-21.1 31.6-32 7.5-7.8 14-16.7 20.5-25.6 7-9.5 14-19 22-27a560 560 0 0 0 58.8-68c6.2-8.5 12.7-16.8 19.2-25.1 14.3-18.5 28.6-37 40.1-58.1 5.2-9.5 6.4-16.1-2.4-23.8-6.7-6-12.3-13.6-17.8-21l-.7-1-.4-.5c-3-4.2-6.6-9-3.2-15.7 7.4-1 14.9-1.3 22.4-1.2 21 0 42-.8 63-1.6l3.7-.1c7.2-.3 11.9-4.4 12.2-13.4a1433.4 1433.4 0 0 1 1.8-34.5l1.5-25c1.8-28.5 3.6-57 2.5-85.5-1-24.3-1.4-48.7-.1-73 .7-12-3.3-17.6-11.7-22.9-23.6-14.8-49.5-18.3-75.4-21.9l-11.6-1.6c-6.6-1-8.8 3.4-10.5 8.8-1.6 5.2-3.5 10.4-5.3 15.6-2.8 7.7-5.6 15.5-7.6 23.6-3.3 13.4-8 26.2-12.7 39-2.8 7.6-5.6 15.3-8.1 23-4.6 14.4-8.7 29-12.8 43.8-5.9 21-11.8 42.5-19.6 63.9a28 28 0 0 1-.7 5Zm-240.7-172 .5 1.2C505.6 127.3 585.3 247.1 617 291l4.5 6.2c16.5 22.3 46.3 62.7 38 95.6a486 486 0 0 1-34 96c-.9 1.9-1.5 4-2.2 6.1a23.7 23.7 0 0 1-6.3 11.8c-13-22-28.3-42-43.6-61.9-6.9-9-13.8-18-20.5-27.2-4.8-6.6-10.2-12.6-15.5-18.7-4.5-5-9-10-13.1-15.4-5.1-6.6-4.6-10.9-1.4-16.3 3.5-5.9 5.7-12.4 8-18.9l1.8-5.4c4.7-13 1.5-19.8-10.8-23.7-8.5-2.6-17.2-2.7-25.9-2.7-5.6 0-11.2 0-16.7-.8-.6 0-1.3 0-2 .2l-1.4.2c-27.8.5-30.2-2-39.1-30.8A625.2 625.2 0 0 1 412 162.6c-1-8.8-2.6-17.4-4.2-26-1.5-7.6-3-15.1-3.9-22.8-2-15.8.5-21.5 13.3-27 14.6-6.3 19.1-12.7 23.2-18.5 4.6-6.5 8.7-12.3 25.8-16.6h.2c13.3-3.4 14.2-3.7 14.8 12.4.3 9.3 4 17.5 7.4 25.1Z" fill="#000"/></g><g transform="translate(266 207)"><path fill-rule="evenodd" clip-rule="evenodd" d="m765.1 235.9-.5-.7c-32.5-40.3-71.6-67.2-123.5-75a296 296 0 0 0-183.2 28 246.7 246.7 0 0 0-92.3 78.2l-.4.5c-10.1 14.4-20 28.4-40.2 30.4-10.5 1-19 8-27.4 14.6l-1.3 1c-26.3 21-44.3 48-56.2 78.9-7.6 19.8-14.1 40-19.6 60.4-3.2 12.1-6 24.5-8.7 36.8-3.9 17.5-7.7 35-13.1 52-11 34.6-23.7 68.6-36.5 102.6a11512.9 11512.9 0 0 0-7.9 21c-5.6 15-11.2 30.2-19.7 43.5-14.3 22.7-28 45.4-35.8 71.3-6.4 21.2-2 38.8 16.4 51.8a530.3 530.3 0 0 0 80.2 46.5 558 558 0 0 0 114 39.2c29 6.6 59.4 9.8 86.3-4.2 14.4-7.5 28.7-9.6 43.4-11.8l3.5-.5a18.6 18.6 0 0 0 16.4-13.8c11.3-34.1 18-69.1 16-105.1-.5-9.7-2-19.3-3.6-29-1.3-8.4-2.6-16.9-3.3-25.4-3.7-46.5-21.4-88.7-40.8-130-13.6-29.4-25.4-58.2-21.2-91.6 3.2-26.3 24.9-53.9 44-58 9-2 18-3.8 27.1-5.7 18.4-3.8 36.7-7.6 55-12 43.3-10.2 82.2-29 117.7-55.4 3-2.2 5.6-4.8 8.2-7.3 4.2-4.2 8.4-8.3 13.8-10.7l1.4 1c.6.5 1 .8 1.3 1.3 20.2 42 51 74.4 90.1 99.4 12.8 8.2 25.6 16.4 38.2 25 13.7 9.2 23 20.2 21.9 38.8-.7 12-.5 24.2-.3 36.4.3 13.4.5 26.9-.5 40.3-.7 10.6.6 21 2 31.3 1.8 14.9 3.7 29.8-.4 45.5-1.5 5.6-2.8 11.2-4.1 16.8a282 282 0 0 1-13 43.8 163.6 163.6 0 0 1-54.4 69.7l-4.8 3.5c-13.8 10.4-28 21-45 27-.1 0-.3 0-.5.2-4.8 1.6-10.5 3.6-8.8 11.6 8.8 2.4 16.6-.4 24-4.7a94 94 0 0 1 10.1-5l16-6.7c17.4-7.2 35-14.4 51.2-23.7a393.8 393.8 0 0 0 58.5-39.8c33.6-28.2 63.4-58.3 73.3-103.5 6.7-30 .7-55.4-21.3-77a30 30 0 0 0-2-1.6c-1.9-1.6-3.8-3.2-4-5.8 25.3-44.4 41-90.9 33.2-142.5-6.8-46.2-25.6-86.9-59.9-119.4a209.6 209.6 0 0 0-82.7-46.4c-5-1.6-8-4-9.8-8.8-3.4-10-9.7-18.3-16.5-27.2ZM379.3 587.4c0 .9.3 1.7.5 2.5 2.8 15.4 4.8 28.8 7.2 44.2v.2c-11.4-7.4-15 .4-18.9 8.4l-.1.3a65.5 65.5 0 0 1-14.6 20.4c-16.9 15.7-45.2 3.5-57-22.4a221.2 221.2 0 0 1-22.4-89.5l-.1-4.8c-.3-18.8-.6-38.5 13-54.9 6.6-7.9 15-14 24.5-17.9 10.5-4.2 20.5-3.5 28 7.7 21.5 32.2 37.2 66.5 39.9 105.8Z" fill="#000"/></g><g transform="translate(791 871)"><path d="M176 65c-3.3-2.8-6.4-5.1-11.4-2.8-7.9 3.6-16.1 6.5-24.3 9.8 8.5 11.3 17.4 21.9 23.8 34.4 4.2 8.3 11.8 14.4 22 10.5 9.4-3.5 9.3-12.6 8.4-20.7A42.6 42.6 0 0 0 176 65Z" fill="#fff"/><path fill-rule="evenodd" clip-rule="evenodd" d="M209 98v-4.9c1-6.4-.6-11.9-2-16.6l-1.3-5.2c3-5.6 7-3.3 10.7-1.1 4 2.3 7.5 4.3 9.2-2.9 1.8-7.2-2-15.5-10.5-20.3-7.8 8.7-16.3 7.7-25.4 2.7C183.2 46 176 44 169 47.3c-11 5-22.8 6.5-34.6 8.1L123 57l-2.5.4c-11.3 2-22.5 3.9-32.7-4.6-3.4-2.8-7.4-1-10.4 1.9-3 3-4 6.6-2.1 10.4 1.6 3.2 4 4.7 8.1 4.8 23.3.2 42.8 8.8 57.4 27.2 3 3.7 5.5 7.6 8 11.5 1.7 2.5 3.3 5 5 7.3 14 19.7 40.7 23.2 52.3-.4C209 110 209 104.3 209 98Zm-44.4-35.8c5-2.3 8.1 0 11.4 2.9a42.6 42.6 0 0 1 18.5 31c.9 8.2 1 17.3-8.4 20.8-10.2 4-17.8-2.2-22-10.5A185.7 185.7 0 0 0 144.9 78l-4.6-6 7.3-2.9a281 281 0 0 0 17-7Z" fill="#000"/></g><g transform="translate(653 805)"></g><g transform="translate(901 668)"><g fill="#000"><path d="M75.1 117.2c3.9 16.3 7.4 31.6 11.2 46.7 5 19.6 2.1 28.4-15.7 35.9-20 8.2-45.5 7-59.6-15.5-2.2-3.5-3.6-6.6-3-10.6.7-3.2 1.9-5.7 5.4-6.3 3.7-.6 5 1.5 6.4 4.6 9.4 19.7 23.7 25.2 43.7 17.1 10.1-4 13.3-11.8 10-21.6a292 292 0 0 1-13.5-67c-1.5-14.8-4.2-30.2 5.7-43.3h4l5.4 60Z"/><path d="M31.5 177.5c-5.7-8.1 0-10.7 5.5-12.3 4-1.2 8.2 1 7.9 5.6-.5 8-6.1 8.8-13.4 6.7Z"/></g></g><g transform="translate(610 680)"><path d="M407.4 122.5c13 .3 25.4 1.1 37.6 2.5 3 .4 5 3.3 5 6.7 0 3.3-1.7 5.6-4.7 7-11.2 4.8-22 8.2-33.7.2-6.5-4.5-9-8.7-4.2-16.4ZM247.6 117c7 0 7.8 3.8 7 8.5-2 10.2-20 22.4-30.4 20.5-5.9-1-10.5-4-10.7-10.5-.2-6.7 4.8-8.2 10.3-8.4 9-.3 15.8-5.2 23.8-10ZM215.1 76.6c5-12 9-29.4 24.1-22.5 20.7 9.4 13.9 30.7 9.7 47.4-1.6 6.3-14.5 15.9-18.3 14.3-16.3-6.8-19.2-21.7-15.5-39.2ZM442 113.4c-8.6 7.5-17 7.6-22.2-1.5-9-16-8.6-32.8 3.3-47.2 2.5-3 13.8-3.6 16.3-1 14 15 14.6 31.8 2.6 49.7Z" fill="#000"/></g><g transform="translate(610 680)"><path fill-rule="evenodd" clip-rule="evenodd" d="M372.1 25c48-35 106.4-15.5 124.2 37 11.5 33.7-3 78.3-44 93.1-41.7 15.1-78 1.6-98.3-36.3a72.8 72.8 0 0 1-7.6-28c-1-11.5-5.7-17.1-16.7-18.6-12.4-1.6-20.5 3.6-24.5 15.4-1.3 3.8-2 7.8-2.8 11.7-.8 4.7-1.7 9.4-3.5 14-21.2 53.8-89.3 64.8-129 22.7a81.8 81.8 0 0 1-16.8-32.6 44.2 44.2 0 0 0-30.5-30.9c-19.7-6.6-39.3-13.9-59-21-11-4.2-22-8.3-33.2-12.2-5.7-2-11.7-4.4-8.7-11.3 2.2-5 6-3.4 9.7-1.8 1.1.5 2.3 1 3.4 1.3a530.5 530.5 0 0 1 50.3 18c16.6 6.6 33 13.1 50.2 18a18 18 0 0 0 22.5-11.1 68.8 68.8 0 0 1 63-44.6c34.6-2 62.7 12.9 77 47.2 1 2 2 4 3.2 6l1.6 3a57 57 0 0 1 45.6.6 81.5 81.5 0 0 1 24-39.5ZM248.8 144.5c24.3-10 40-27.5 43-53.8 5.6-49.4-42-83.2-89.2-65.2a63.4 63.4 0 0 0-27.7 95.1c18.4 25.1 42.8 31.3 74 24ZM433.6 20.1c19.5 1.6 33.6 15.1 44.7 31 14.2 23.7 11.3 55.3-11 79-14.8 15.7-48 23.3-70.3 13a62.3 62.3 0 0 1-37.6-65.7c6-45.2 40-60.2 74.2-57.3Z" fill="#000"/></g><g transform="translate(774 657)"><path d="M131.2 43.2c-5.6 16.8-6.6 15.4-23 11.6-26.2-6-52.7-19.2-80.3-4.3-2 1.1-5 1-7.6.8-3.6-.2-8.2 1.3-10.1-3.3-2.1-5 1.5-8.3 5.3-10.3C35.2 27.7 53 13.4 77.9 16c12.8 1.3 26-2.8 39.3-2.4 18.8.7 22.4 5.7 16 23.9l-2 5.8ZM298.7 21.8c9.6 6.6 12.5 16.8 18.3 25a7 7 0 0 1-.6 9.4c-2.4 2.7-5.4 2.8-8.1 1.2-19.1-11-38.9-6.4-58-1.2-10.2 2.7-14.6-.8-17.2-9.2-1.7-5.7-2.9-11.5-3.6-17.4-1.3-9.8 6.9-11.9 13-12.2 18.5-.9 37.4-4.5 56.2 4.4Z" fill="#000"/></g><g transform="translate(0 559)"></g></g>
    </g>
  </g>
</svg>
